<mxfile host="app.diagrams.net" modified="2024-06-11T11:38:27.770Z" agent="Mozilla/5.0 (Windows NT 10.0; Win64; x64) AppleWebKit/537.36 (KHTML, like Gecko) Chrome/125.0.0.0 Safari/537.36 Edg/125.0.0.0" etag="bmFYkaxm6VUrJ3v0lQSP" version="24.5.2" type="github">
  <diagram name="Page-1" id="WPEpln93dQFtQSR8DdW_">
    <mxGraphModel dx="680" dy="317" grid="1" gridSize="10" guides="1" tooltips="1" connect="1" arrows="1" fold="1" page="1" pageScale="1" pageWidth="850" pageHeight="1100" math="0" shadow="0">
      <root>
        <mxCell id="0" />
        <mxCell id="1" parent="0" />
        <mxCell id="8wE8BXooY0IBWLYI6pEC-18" value="" style="swimlane;startSize=0;fillColor=#B5FFFD;" vertex="1" parent="1">
          <mxGeometry x="150" y="110" width="200" height="190" as="geometry" />
        </mxCell>
        <mxCell id="8wE8BXooY0IBWLYI6pEC-14" value="" style="shape=image;verticalLabelPosition=bottom;labelBackgroundColor=default;verticalAlign=top;aspect=fixed;imageAspect=0;image=data:image/png,iVBORw0KGgoAAAANSUhEUgAAAUwAAADQCAYAAABsvVjTAAAAAXNSR0IArs4c6QAAAARnQU1BAACxjwv8YQUAAAAJcEhZcwAADsMAAA7DAcdvqGQAAKlMSURBVHhe7f0HnF3Xfd+L/uecM2d6QS9EIQESJFhAglUSqUIVimq2HMk3fk5k2bm5iXPv/bw8W4nt68R2fOPnOHbycu3rOHl2rmNZtq/tZ9myZUlWo0QV9gYQJEgUEgDR2/R26vt9//v8BxsHgzKDQZs5v8HCXmfvtVf//9Z/1d1UqVSq1sA1j6amJqtWq6bynPxdLpfdlEolGx0dtYGBARsaGnIzMjJiExMTVigU/Mq72WzW38V9JpNxA/ArTD3S97kSPn4Brml7Lpfz52G4F+8Sz5aWFsvn8x6P5uZm6+zstPb2dr92dHT4FTc8w8R7xBN/sHPlfa4RdgMNzBYahDkHADFAQEFY4+PjToqDg4NOkhgIExPuMPEuCKIB3AsDwm0Agopn4Gz29HvYg9DCBNEBSBoQP+xcg7Txs6ury7q7u/0Kcfb29jqZtrW1ORHjjvdwSzr43UADs40GYc4BQBKQ5MmTJ+3o0aN2/PhxJ0w0R4gn3EBOkAvXILY0cUFouA+38XwqpN8PO0j/jnfjd2iDER6I+MU1noOIC3EGvF8sFp0QQ+uEQJctW2aLFy928gx/49pAA7OJBmFeAUACkALXNKnQPYYcIITQlqLriT1NOAD3J06ccJI8fPiwa5JjY2P+HD8gHPwPzfFsSMfhakQ6fkGs3EvnGeS5ZMkSu+6662z58uVOnjwPA8gX3ouGoV4TDXcNNHA2NAjzCgCBRXCDFBm3Q3BDuLHjBiDUaFX8ZvwOTbK/v9+J8tixY06W3Av/cB9jgSC6t3MRpJm8Io3RmLS2tjpZ9vT02OrVq51EyQ/c0phEfkOy5CvvYsfgpkGaDZwLDcK8AgjthiuCHsKKHQFGqwwCDAFmkubIkSPe7cbwG+0KN4B38CeIF78xQSpzFUFy5F3kJ1fyg247454rVqywVatW+ZhnaNuRR+RN5E+DLBs4HxqEeQUQWg1AaAPYEWiEPghzeHjY9u/f72QZ45IQJc9DUwrhj+57mkjxL0hiriGIsr5RIC/iGVfyadGiRbZy5UpbunTp5Gw7+cK7uI9ywB/uNdDAVGgQ5hUAwolQhjaU7g5iIDtmuA8cOGB79+51O88RfNyHuzDcQ9DDH97nGgTK87mKyLd0vsT90LhpZFghQP7RRY9JooULFzp5xnsNsmzgfGgQ5hVACHloR6FVhvb4yiuvOFmGEEOAQYL8DsFOk0Tcwx4EGe7nKkhf5EPkRdwDaS07NHHukddMEkVXHe2TcU/yCjcNNHA2NAjzCiCWxqSJjy73W2+95RolpIngYnCLsNOFxB3u4xkmyAE7/gVBBonwfC6TZuRDGqQ50h35A0lGA8X9aKCYJFq7dq1df/31rn2GVt5AA1OhQZiXCAhjzM4CBBTBhighMjQdhJOZ29dff91effVVH69kQXYDlwdBnqwyoFzWrFljt9xyi8+wc7++oYkGKsqUcgS4qyftBuYmGoR5iYBQBTFiRyABxImdMTUWmO/YscN2797t99BwINoGLi3Q2NNlg0aPoVu+YMECH+O84YYbnDgpl3RjNxWJNjB/0CDMS4TQQhCoECqudLFZO7l9+3ZfbI7wMhmBUAaZNnBpQdnEWGaMXdJQQaI8o0wgTtZxxnKkeA9QjtiDPOO9BuY+GoR5iYAAQY4AAUQ4GadkMgeNEqELgeNZCCrC18ClBXlPnoNYXkRZkfc8wwDGN9H6IU4miPjNsyDIIEnuNQhzfqBBmJcIIXgIJovMDx065BM6aJcIKAIWXTzcYHDfmHS49IiyCW0ebRMSpCwoF64YtE7coW2y5ZLJIfau07DxPPxJv9vA3EaDMC8REEKEqK+vz3bu3Glvvvmmj5OhpUCOCCvChh1BQwi5x3sNXFpAcOQ9eR6/gyQpC7TNGN8MN9yDNFn8jrbJDiKeR0PXIMz5gQZhXiIghBAlaypZeM44JdojwgVxIoghYFxxjwmtp4FLB8og8j5tD02TMgiiTBMi5ciC99tvv91n1Bn/xH2DKOcPGoQ5DSA4AAHB8Ds0wiBANBGWCkGUbGnEjmCBGNNE+C4XQuAhgdCCgpz5jeE57tJaFc8Dkd5A2HkvfT9+c03/DhNxwR55QJgYGpR4L+IFIp48S/sLwt/LBeLI0i+WIbFu84477vAxTuJInkU8eU7jyG8aR967nPFs4NKhQZgXgPrKHmSCoIfWiJ37zHxv27Zt8tBeiArCDCFHeHB7uUH4mCAjDPGAxCEy4klauIbbQJqYuKb9imdholEIhD/hnrDIJ9zyO57xO55F/OIZ4PmVRpR7pJVuOZomhp1DcR/E+Gd6LW4D1z4ahHkeTFXZEYS0kHOFHPfs2WNvvPGGk2UIfGgXsWyFMcwQvMuBdFzrwT2ekQbiG1pykBbkGYZnXON+gPfTiPyI8PArTYQQKloX9yJuGMg6yJt3I//iedrP9HvpuFxqkAbCIx6UN3FlPzpjmzfffLNPCEW8Iv7xTgNzAw3CPA/Sgg9CEAD3MJxPyVIhuuAIEm4wIdD4gTbHb4iH65UA8QiBJt4RH7Sg0C4heAxrD+vvxe80sYYJf7lP2tP5BrGENltvaEi4chITbnAL0oQT/oaJsC43okzTaQ4EaXJ4cfQgyC/S0yDMuYMGYZ4HCGgIPQITlT+EhbWVTO5Algg+z3kHt0GS3EsLzeUU9iCedFwgSAgQ4qMryY6WWI+IBhxLZyIdYfgNuGIiHfXpCXcg7SaIJgxxgjDROBkbxM6YL2OAGOzkaRBQIOIF6sO+lCCsSDuIdHCfhpLZ802bNvmVvOR+utwbuPbRIMzzAOEIwaDy8xvyRLjper/44ou+xZFxytCYIBwEmndwi+Dwm2sQ7+UCcQ4DGXKcGfEjvlz5jZ10BSFE3Pk9FSAw3E1leC9Q/z4kDCKcsPNOvAt5sm4VjRMDEXElb3kW3XkQYV4uRNmlyxY7jQ/lDsnTRY9ZdBqhSFsDcwMNwjwPqOwhGFHxEWLWVz722GN+D6GHkBAcgOAgKHTJeC8IItxiLjUivggtpIggM6PLImyIMx2vNCJ+6ThG3MN+oZjKf/Iy8jMaIAAhYk/fIw8hIj7FQZ6zrAeDHfdBWmnwbjrusw3CxBD/yEMaEBoDDGVPGuiec5BHNEaBqfKkgWsHDcIUqMAIHoIAyYGo2NxDOLnPb+wsQn/mmWcm3c42EERA2EEICCECiXByHxCfEL4QYAzxghhZM4gWSbcb0gwNL/3+tQDKgjijXaJtxmc6IE4MJEU+kUekH3towWnwLPJstkmVMGNTAhoyeX7jjTfaunXrzuhxEE8MmO14NHBp0SBMgUpLRaZSU5H5jeE3BAnRUNkZU2NyhzWWPJttIMhpwYp4xLMQMpAmA+xokpAkx8Olv98d7wRZpv0L+9UO4kl8MeQLWifkSXnEJ4XR+LkGIYVbriDKl3yIZ7MJ/CVOlB3hYGfijMM7GNekfLiPIfwo24hfA9cGGoQppEkEQ6XHhOBBmgjYrl277OWXX54UtiCh2QTh4T9xCgEDIVzpuNHdQ5OJiRsIkytDA7wX76T94N24F+m+mkEc0RYjLyItgLSgXaJlslIB8mRcmXtRZqQ1nW+RJ5jZRJQJ/kfYxJU6wiJ3uuic7E5aAG5xd6l6KQ1cGjQIU0gLT1qoQjip2BAlXfEQBio6bmcThBt+EnZaU0rfhxDRXuhyI4Rok2gwmBhHxT0m0hFpTJPItQLyJRDxTsefdJIuNE80TQ444cp4Z4wnky+QV7hN+zkbQKOkAcNfwqR+YNCCecauILro6eVakCfXBq4dNAhTCOFBmLBTiYMswUsvvWRbt271e5ASQsB1toUO/xDmIEriE3ECCBqTN5AkV7rf6bFJ3IVb3ie+vA/S6QnMdvwvFYIc0/GNe0F+6TxjiRKaJt9uZ9kX5Ik78gk36XyaLRA+9QJAnMQDQoSoIUwaWk47uuuuu7wnQHymKpMGrm40CFMIAQpyCU2EwXvOr/ze977nAsHYYJAlQhBENVsgDggSxIgdIQNoJXS7Y6YbzZJ7CFwQRyDSEnaeX8tkGaiPb6SbciLP+B2ECHBPGTE5xNF6zLSjcZKnuAl3swXCRrMETP4QDoa6wjNIG/LcsGGDrV+/3hu7KOcGrh00CLMGBCi0FSo4WgofJXviiScmu1qQJpU8ulxBsDNBWmBDaEL48Tt+I3x8SxvDpxMgziDqiG/aL+IY4P0gB9zF7zTqf1+NuJA4RvqinNJgjBNNk33+scc/GqOpEOFF3mLw+1xAm6SsAPWDRopyIhzepdwiXMYzWatJ74AwokGL8Bq4etEgzBogH0CFZSyM8Upmw0N7mU2EkGCwh6AD7AgamglCBlFyBiMaSRBlAxeOICGuaJhom5BnTA5BdDwPNxjymbKhLCBfDHUi/Jou8ItwqEsYiJXlRrFOk/Ai7IjLdFH/Dn4F0vaZ+N3AKTQIswYEAs2OCs1WR77iSJeuXluZDUQFDuHAxD2Ei+42XW+IkvFKunLhroHpI/INAoQkIc74XAhddkA5Uwa4icYs7EFo0ahOF9QrljzhD2SJpkmZ8qG1zZs3e/x4xjXCiPhMB7w/3XcamB4ahCnQTaLCAjTL1157zScMQlhmGwgFAoH/AMEE/GackgMc2I/M7DfuEIQQ+gYuHGnywE4eksdoe4xPQ5aQJrPq0Y0OYKdcgjQvhowIDz+i8aW+4Rf3mARiMojeRLjD4CaGZqZCfX1oEOXlQYMwBQgMYuQAjeeff94H6OkSR6WdbbLCXzQMEEICOTJ7yge30CrRMgmXuIWgN4RiekiXG3kXJBV2DNomx/IdPHhwcoyR+9GgBWni10zrAWVMfcIf/I9GmAlENM7777/fyx3wjHDp8UQduRAQ50DEM+6ln+F3AzNHgzAFKhgTAqy1RNuggiMwod3NNhAcKm6QIVoli5vpgkOcIaBRuanw8U4D00O6/II46ssUoqSxpHdBY8lQDG5pLKkD5D2YaV2g8YOY8SdWWFDHuE9Xnd4Ek0DsCiIMwibcNNHVo76OXCjO5WcD50eDMAW6Yy+88ILt2LHDB+GprLTwoRVcikpGRUe7QKtEYDB0ywgPIiVM3KRJs0GYFw7yKwzEMhXZkdeUNUDbYxgGTZPxTQiO/EbjizowU8KEeKlPgPAgS/xEg6SsIVBON2JxO5N74HxDQcQnrmEA/uJ/kCnhcY24zzQNDSSYN4SZrvBh50plff31132ihzEtWn0qMpXuYgiKd6MiR1hpO5oky4Q4eBYNE3IONyHEdN8QKOLTqOjTR32+x+9A/XNAHeBzyPE9Jp5BQvEcpP0Je/p5Pahj1CvcYYcMMZAo78UQDZNAt956q9cNnuGGd6iLYagPxAd/ghwxUVe4F/GhHgVhcsU/FIJ4FvFIu0nX+fCHayCdzrgfbtLP5irmDWFSqaJCxDgSlRLhYEYcLXMqzLQSEBZhEh5+RGVG26DS0v2O8UrcUuHmS6W72kG3fN++fZPLj4K8KD9AmabtYKblRl2kpxEbIiBMVkhQHxkqoA5hx+CGuFCXor4QD0zYwdniQlwhZq6kh/Aw3OMKqWPiHnUVe9q/sHMlvPgddRcTdZ16Hc/nCuYNYVKAafKigBm35ABgxpHOVrAzLXAEgfCoNIAwqYRoDxAlQlG/2wP3YW/gyiDqB7Po7A5iQogr90CUKfUp7kUZzwT4AWGiMVJnGJahQeU3caA+hCHMqB9BRpio11FXw129Sced3yD9Hs8Im/hgqKssro8tuNwLt+FnIO1PPEvfmyuYV2OYtNBUGgoezYFxS7pe3MNMhZkWeFQY/A17LBmi60UcQtAQmrTbBq4c0mVBfWHZETu+0DrR9ngW5Qap4f5c9ed8oLzR9vAXvyBN7hFG1AWeBbBjeIfnGAgQA/gdcQm3aYQ7gLtww33C533SiZ040KBjIEzqbpyxCrGiAKQRfoe/Ef+5hHlDmBQg3RoqGmCtJQdqRIU5W+HybKYIYaJicewa6+3QLiHLqTAXK9i1hjRhUVeoM/RE0DSZFIIkqROUKcQSv4NEpwvCwg/CgpjwE+LBf+ISwF26fqRJMX0F1Dt+1xveD1IE4SeG58Qh/A3wmzwgXjwnnXTbGX+HQOkpoRXHe8Qdt/hJevB3LmHeEGa0mIDZcCZ66PKcDzMt8NA+onIxuYPhNwjBSFdSfs+1CnYtgnLAIPAATZOeCIYzN/kdZIC7epKZDvAH/4JgImz8xP+z1QfcpJF2x7v4B3CXJkVkIPzFxLMgOd7FTaSJe1FHqdPENQg+uu2s9KCOx/ph0pGOw1zCvCHMKDyWizz77LOuNTCgHS1uusKlcbb750O08rTAnINIa0wFC2FIV6aZhtHA7CNdFyjDIA6Igm45mibEGc9wD3lwTZfphYKw4r2wU0fCnn4OIm7R+PMsTPyOOIP0fUzUP0z4xf20PYDbMDyHCKOhCL8Y/8cvelAYxjvptkOiac1zrmDOE2ZUAAqOVpRuON1xKhy/o+KkK0oaUZGmAhWG96JFTlcurhycwYJ0FiRHN5xuVlQ6wPsR9rnCauDyIMoPAymC0MqoL4xpsgQN8ozuO2WfLkNM3EuT7lTAz/Af8E7Y0/6CsHNNuwvwm/uRhriXvqbfC3/iXtwH6TjzPK5pd1HfQfhD3Wa8E82TlSCQZ6wtTednIPwOP8kPGqCrFXOOMNOFHgVK4WPQKp966invVlGgQV4gCm46iDEmxpuoBHRVCI/fVJqbbrppcswyKhRIx7GBaweUG8M41CMmgqhHlDn3gwyirgUpxP25inPJDfUerZNNGfS0sJM35AlyEnIRckqexfVqxZwiTDKbykuhAForQAGwpo2zLelOMc7Cb2b6aM3C3XQR2kEUNAQaEzxsdaNbEmOWDcwNIOCUO6TJVkqWHIWmCah/0SBypW7MtH5dCzgXYUKMGGSMMU4mPel1IRPRqER+AtyRZ+fy80pjTg0wREUFZDoFQsGgBVC5WYyMGwosnlHZIbuZAL/wg7DwBzskSVckKgYI/3GfjmMD1xYQfsqPRhECoJw5hZ/yj7qAwY5b6l30QuYjyAe0SIiQoYynn37al/Kx/TTkgHwKWeUeeXY1Y05pmOlCABQCFRYtgIkeBqjrJ3qwRyWfLvCDd6OFZKyGVhRBiu4HZJmuEPyeSVgNXHlEWVJ+lC29FCaB+PQyXfWoS9FrwVDumLkK8uNsIL/IDwwgf0L2WIvM/nm66+QXIF8x5/LzSmNOaZjpjA5SYg0ZLRoVmnFLCi92UFB4FFYU6HQRYSAQaBoQJRUA4sTPEKwgS0CYDVyboBwhgRi3pAdBmcd5ltSp6J4HUWLmK0KuyDNAXgQ50sgwActXDRgLDkXiapePOUWYZDYZT8GQ+bTw7OhhvAlQ0TGMXUZhRos3EwQJ0kWjK87SITRLkPaTOMXveKeBaw8h1NSvKE8m91gJQdmnh2BmWqfmEpAxDHlBQxI9Mbrp9PSQze3bt/tXWdHU+Y5WuLlaMec0zGihWDdHIVEQfOSfli1a/1jWE6R5rsod/uE2yA73ITwYtMvQLNMaRb2//J7PGsdcQFpLAvym50L3knFNiCBd7tSTyw3Cn8pcCoQMTGVANB7IT9R9lJb4zTOGzCBNzqPltCje5X68G9e0v6A+nMuBObsOk5aKGXFOUGexOlplOrMvFFHYXOsLEc0SsqRLFt0yQDi4aWD+gIaV+hbHBEb500jH0rXZxLnq10zq+eUGMoUMEVdklfHgmEwLeUITDTe4Z3iNe4F0Oi+XvM0pDZMMxJCxtF7xITMKgoo7E6BNBEFiAGHgP1e6Yqy1hCz5jdvQShuYP6CesPUVTTO65gg55nIj6mq9uVykciEgPhAlV0gQ+UFuOFJv27ZtbtgcgJyFZop8nQ3nejabmHNdcgyZx0ByHMtFNyndjZoOgiwBfqAtQMBorOydZfkQXTIQ7uLawPwCdYMGlIkg6kjUvUsB6vjZzLUAZIT8Qb4gRBoZSJM8RMmBMJ977jmff8AdJobSwoS8X07MOQ2TVosCYL0XBBeZPVPCpGCDAKNrTji0iuwR58g2fqfdzDSsBq5dRMNK40mPg6EaBB9QP2YbQRZTmdBs682liMdMEYoHcWK+gQkf8ivkiIYGsnzyySd9mIMeIm5JXxpp+bwcmFOECSBHNEs+2B+VJCZ7ZoLwA4PfEDKFjXZJFwxNE7/DDYhrA/MHlDmCy5WVEmiakCd1ZqZ171zAz7OZUBLqzeUklvMh4kJ8I9+CRNE2+Y3sMbbJ0iNm02Mil3fSqP99KTHnuuQQGke3kfGMZXINTXOmoPCiYNFemQ1n4S0FjL88o3B5TvgNzE9QDxBo6hvdcg5difG32QZ1b7rmaur5xPglII/QKLlyP751FENpaJ+s2+TrCEGaADdhLheuScKMFrMeVFhmKtmGRQWhADBBeDNBkGQglhCx7jKIEmCPwptpWA1cu6A+UheivkU9QcuEBDD19QV7+n76GfUu7gUhYIdE0pNK1HOUAkyQIm6mMiET4S7qKtcIC8M94gUxcQXhFhO/LwYRVvhDekP5iLyM8Igv8UC2n3nmGd+xF8BdcEH4VR/Pi41rGtfksqLIIAo9MhcwBsIyIjRMFhTTUpHZFAYZGO6mA94lw3mfSofWsH79+smxywYaANQTyIh6EnbW/3KGAScb0duJupQmSepUvE9d5sr9aKSp49jjHvUZcow1v5ioh7wLzlYvCTfiARmirSEj/EZ2wg7wl7AxQZ6AeGCIP/ElrMspB4RNI3TPPff4sFjcI37kC/EKYA9DemYD1yxhRsGRUUGKLElgsufo0aM+jhSqfVQC3M8EhEeGMyO+bt06H7skzHThNDC/QV2gflHXqC9BNJAmdTLOz6Qe4Q43vIM7rvwGCD2zxYyNQ2I0/JAjGiv30S7jHfxJEyb3MGdDhBPkyBUCxc5YIZobV37jjrSQhiBF3g97kChxmS0yuhAQZ+LFGPHmzZtdJvlNHIgzcQs55z6GeBPP2cA1R5hRKcgUMocMpJJRyBwMzNpL7FQwCjQyDERGTgdREFRUFtMydhndrNkqhAaufYTQgrTgUgfZwcIkJFsBuUe9CcLhN1omBAkhUreou9Q3hn1omHGPf1GPAXbuYaaDkB9MxJe4BJGyyYMxQ4gTO4TPMxBESpi8G2Gn43WpQRzJK+LCagQ+S0x+kYekI3ghMNtxvKYJkysFSOGx7nLLli1+0AbPYpdAFHA6E6cDwsD/0C4Zl6ISR+vaQAMgTZhRR8POYS+7du2yN954wwU9xhtxT7cSLZIeEVfqLc+pW/iZrrf8xj/upQmrHhF2PbiPH+Fvff3lHvKCgXzQPtE60Y4hTwxEGjKHnIV/lwvEGUKnQSEeDI3RPedk9zR4Rnojn86WJ9PFNUuYZASZAigw1mqx2JUKGa1MkCr2mWYaLRqVGc2SQxbQABpooB7peha/o75xpX5CmjS01Ce0RwgSgUc7gijrCQzSCv9A2NPhTAfp+AQinuFnOgzuE19kKq1xQqKQFmOgab8uBwgvyDAUF8jy7W9/u2voaSLHHXbMbOGaJ0wKFlJjnIivQVLxeM69GFAP4sRMF1Raxks2btzoV0C4FFYDDQSCYDBBPGHnytpgDPWWMUka3nR3GxOaWvwOgQ8/MOnnIO6BuHc24D/uiUP6dz2hRFgRDnbcYpArCJO0sGcew73LhYgbaYj4IOc0QHffffeklk68eQ5C/mcD1+ykDyDTaGEowMcff9y7PkFkUeAXAtxScclYCiBadvzn/i233GIbNmzwrlIUAqivaA00cDZQZ6k71CvqzYXUnenU4QvFhfpZ7y5tJy3ICbLHUh925KB5huzwLnJIGklz+MVv7JEPMwV+hN8g/EWhueOOO3yYg3ggv4RDPOu195nimpV4MiIMhcV4S7oQ0vbzgcwOw3sUQJAlLReDykHE8Ww6/jfQAHUmNErq0IXgUtSxC/Uz7a7+HdKCVsc4IsNUTLzwwT9WjyArpJF3QlYwyBbEhUkrHTMBfoeshh1A3PQymc8gbMKZTbIE1xxhpomNsRXADCQZQ8HMBPhFq0mrBKKgqeBM8lAJLrSSN9DAXENoiWmEjDBjzRchWZuMYeaaIQdkCplErrBDWtNpLGYCwmOcmG93xVxGcMVs4ZpkATIiSA7NknWXcX8mwC8qRXSbIpNpRZkdZ1wE1FeaBhqYL6DuhwmE3HAP4uQsS0iTQ2noHsccAkQGUEAY1rpUpIn/KD1sFGCogCEC7iHXs4VrmjC5QpaMXc6W2k3hUwnwL5Z6YI/KwrOoJA00MJ8QMpCu+8ggBplAJumNsV6ZcX/IE4UD+UGxgcBwdynBhA8TURzWQdccRM9xNnDNESaFAsh4ugS0JtEdn2lhRAXA7zC0mBQ2LVQ8i5YR92FvoIG5jpAJUE+YabmAmNDm0CKZeEHTxLCdGCIFs6ntTQXChguY1+DzNKwhnS1lClyzUk/hUFgM9AIKbaaFEURLRodhQJv1XVFRQFScMJcbhHg2c2kwVUiY82GqdzDnA4I4HXM+TDd8UP9OmPmL+vqeJk1kDjsyEz2x0DaRIU5tuvnmm33TB2tOZ5O86kG4jF2iZQImgFj/OlNFaipck4RJYVBA7JxgSRGDzNGyzQSMtbAIl/cpcLRKCpcCT2uVmKg82Gcf8jdlQlibqokxyv0Mo3h4XKZvmnQJv+uNuTn9lbBO5T7Mud5LHqceuCERZaUSI0GbtJ/PJG55N/HjlJ9JGIqPbidpDJOOa/3vxOCF/qW9q5kz3aYNTirydLrmWkC67iMPaZlI20MuQ0YAz9EumU2PA7chNUisJKUnyJUrhvdniogPfoQso1BBmvAD4REWwwMxrsowwXRwzWqYZC7qNhlAxsS9mQLS5H0yHHvsGrj6oLSS3npzunRfoJkmZvja6e+EJzVzGmnUPTuvERK5FKZ4BlLWSwpPx3RN/D83gWwiTyggKB9005lFZ2wTTRN5g7AgsyDYmfYSAX4GMQbYv793714fz4wwIdNQrmLI7UJxTRImiaaVip0TZBDXmRIm76PGcyVTmehhJ0YU4uWDxAfBC3OacHGvpkmd9jwBMZ2uOc3vSaP/p3IsE9YE03+vScTu0U6j9pJfHJOuz2k8VKynXpxEhMEjN9gnfyca6On2+O2vJe9jrzPhV4JJXxNz6sEFI7yeq0CRCWUG+USmWKtJF50ZdeQMQg3NMOwXAzgAgxyj+JQk0/AEBxDHSUwh12iZhDkdXJOESaayl5WB3VC9p5vwNMhUMpgrLQ5dCFrEK0KYbiDGlPG+JXY9Q5pdolN2olm7NS3jEitLykAeUzuWcfcY7Keb8753PshZehjigkww3JQgz3SZNBGfqRDPZMJ9+l7aeHrxO+yJ4ZWMrNMxvDqXgVxCXmh92JEnJlPZDMJC9/j2EbIbys7F9OrwgzDCBGniP5PDTAJFPHA7E4K+ZrvkdMdjnRWIjJgJomAx+BfHal0ZUHEYn0Moa6Z2b1JAJwU39XtGENHV/U2GNaVJxgyVW5Pu429q92FirPFc8UyYCuq5EJO4PxcIK8LFEI9zhV8f1/h9pkmnO/7SsZqOmcsI4gLIWJATpMgKFAiTjSFomjxDYbkYBElyhRvwD1JEltEs6ZpzjbBwG3G6UFxzhEkCabFQs8mYaJ1Qr6NwpovQLilIWkAGpi+mpZs5ELoaWU4aVbTTyFGYJUnz0JRnp4zunWZS4QZ5y/Ds7O/VxTf13mT8U0jeEd3UTOKfyvSc5pR73j8jP2rhVptE7n5N4uxGj4Pe3B733fBe8u5pcZZJ0pW4I73p9Hs8ZqtQ5hCQ1ZBRrmH4jcwhZ6zZpJue7p5fDPADhD9pRYjxTDTNi1m3fU1qmBAmiSfzg0CnO9uVBplHpnKli89YSxTy5QWFLCFNRPk0M2nzKOk/4pY2LrDTMwlpqJJO2tOG0AKn4oFJnk/1Xhqnv3O6OROn/DxbfNLmlJskHWkkv4ilakbNxJ/u6xU3bk/ePd1MfQckvyIOYReBy3ieTnp+gWaOA7nEgDRhAu4ja2yrZJ0m5Mnvi1VUgqQhSLrjyDT3uJakFPH5GobykG9my6eLK0qY6UwMQ0aiNse0f/p+ZAbaZXyPhHsQHLPaMwWZh//4QeHhJ+ayw+tSIooJQqikyYjQy2XIVHb9X5S92pSVhiOBdeFTUcqOk7FxPj1Q8PulctUmCkVd0ZYSNxh+lyp0rgmtyUaVl4US5NJkQ8PDqlws3VGjob8Adv4SojDrGxxyu4JQmBO+wqmo93DJ++PjY2rIVJZqzPDFlTX3KNIH5Jd+njhx0v0k7hPFsuJmNjxW8M7xRCkhreFR+UVgDuoEsXef/U74m4RTtfHimPwp6p2i3h1xP3hlfLxohSIztGUPD3/Kyt+JWjeuIkOueH2r/XGoV7FY0l3CSoidvgB+Eot0GZx2jfthogxkr0pV5S9d3wmTsqaeX+uApIIAQ6bCgJBpdtSxM2jNmjVOYqG88CxkHAKM984F3CSyksyW8xv55h6EDG+wC4jnhBHvhN/BN5ipwrvix7uliZDMjYrCPa+8SigtBb/RIlGn+SpkzHqRaNyEHzMB4VJhae04HooZvCsD0UMTgkM6wgAJrEqpWChJsNVaqvJkMkm6Kb4Q6IwEsVgSOUqwS2W5FWmVK0kL75Af2VzWWvItqjzNVs5IWJXHDEM0q17LO/mEPxJnjF5J6JkwopqIUCdU+VryIlhV7CyCX7V8FnIu6cqJ2IPW2dEu/0qWVWWFMMnjrJ4FEuKRr1RMhVRW+ZVFhtlcRv4ibCb/EreKsuqC4qNrYaII1Vh7a97rR7Me4gMz8Ol40h0XLapeiPablF+WtxMnB6y9rVPxIP9Yg1ey9vacjY6Nq45xdJ/ir/Az1UTgyOsm5SlxlFVxkxviqSzJyB0pKIjMJ1jXNzpGK+YCXygm6WXlBfUTQaUOcw0hJN9Iz7gIobU1WdIGOfDelRs/v3xIy2rINt/k4uAM9oFDctyP/OKaJrnpIMIiDN7H79tuu80N+U6eRzj18arHFSXMNDkSccC9yJxEyLJekVigziJU1lMx4UPFTLulkvE7/JkOeA/DrgSOqqJ7gD/cu7wgzIQwg1DCTimhkWQkaBMSdIggJ5YrFiquER4/dsL2vfWW7d2zR9raCb83rDyjUSEtkCx51F4bo124aJEtW7nClixf5qfJL1rUZUURYWte5CXCzSqcZoR6Uo+KatJkA+MVO9Y3mOQ1+V8qiGgk/dWyLZC20NrSbG0ioJK0S7KQMsrIAlmHH5Pp0n0IEy14XKZJFfrIkWNKJwdEJ5oF4UxMjFtvb491dXZYVu+05lUvVAfaRDYQqC9Zmoyn4iS6rDSVpEFynFjGOtt7VWdEgqUm6xNxQry5ZtFoS05dtD7rXdBtixcvtGamr0WceNOk9NNskAOwW+QANeytg8ds/4GDLtx73txjh/bus/HhUddgSmq0MnIPYUKGaE4LFiz03svq1au8nnV3dymPWdrCt/NPHSKMIb88z2D1OYxIa8gZdZV94HyXC3lHiUH+Kf8YcptpY0I4+IFywMnxbHb52Mc+5o1YhA/S8QH8TuOKESYRISOoFJFxLoA1RAIZb+D4NloflhLhJhIVmYmmgT1apZmAyh27ERiAjrikM+/SA9FMurQYKCCudPnoQha9ccj7dfurr9lLL22xHTt32Rtv7vU8gizJN4mca37kRzQ8pIlKCOm2Kb1tIp+2jg67//777YOPfMBuXL/OVixbLPITPyho6C1iII9kEo32T//mq/alr31TbjKuKRULarz0DO3swbe/3T79Yz8q7lSXXveqCjMjzzDeV3aEryIj5S+pRltlmOBbj3/HvvPd79lxddH7BwbUXetNtAK9ctNN6+2HPv5xW7liubU42ZSspVnP8IE6QTxrplAet1KmpHsi3HJGmm6bDQ2O21/95Rft+edeFBmrfD0+FWmYw7b2+lX2yU/+kN1+802eDtcs8Un/VVEFFf6YGpTDR4/a1m2v2te+/g3b9sqr1tc/4IKOdpkRwVeU5gB1JwyCyVK1hQsX+ZKa++67126/baPdvflm5V9yFBnppLwwc50sQ4bT6eWKIkQPks8Tx7mWuEPGuc4kX/A3lCrslBflwVcn0TLT4DkgLBC/A1dUwwzyA5ExAIFnnJLWm8yjtQG4oVIh/LwX7vEHk/ZjOsAvxlEgS2btYgggHcblgVOjroSZEGVyTbqnRXX/GCt8actW+8rf/Z09+dQzdlTaWEGViYkH0h8NR8S7TF9WdhoE7hREmDFeVpJwt9AdVGWCkB5+z7vtH336x2zTHRutLY9uVYtJrYZU1eWG1D7zC79qv/fZP7Lurk4nqmaRlujYxkaGbdXK5fYXf/6nIt6lrmmW0BLwXGE1BQNPpgvChO6Sru1b0th+8d/8sj3z7LOucRZEiB1qvBiGQUMlvF/6xV+wj374w65hitc8jomGCe0S0cSgXY5XGJ9sEql2Ks1N9q1vfs9+7ud+Udr4SfnVrbwcdS1TWSbNI2//9lf+jX30g+93f0FRJJhFyGRn/PTZ51+0z3/hr+1LX/mqj9V2dfdYk5Op8p5B11p9jnrjf0p71E2EPiYaqG+LFvbY//qTn7YH33G/H4fGc0Adj3fmKsgj0sc1LbsQG/WTyRm2PkdPMuoz7qcL/MdP1nxSl0KBwDzyyCOTW6AJoz4+9eFd0RJJR5wI0vVGS2JQ9lkJTcxo0RowsYPQkxjcQapkAr/Dj5mCjCEM/E/7E4V0eZGQSTJZcCp85PLwkaP2f/72f7af/Gf/i/3+f/+cCn9chKKuXS5v+dY2y+VFill1WeS4KSsSkyaab+uwlrZ2v9+Ua9a9lpq7nOWbld4MZxRK25S7b37jW/YzP/Nz9t3vPKk8ZnxZAafqi3R6lVNOXfj1IsN25VeHteq97i6OweuxjvYue+WV7fa1r35DFS2Je07hNIkpyxBKKj31yGabfGHx9tdes5HRMcW5zRYtXqIw2kQmK0RO3TagrtSLL77kUaK7fnbfCAlhFBGr6437iYmCfec737XhoVHr7OhWV7zdOnRd0LtIdavbyY/7JeJJ3GV4H64/eXLQvvzlr9qv//p/sL/94pd9aGTRoqUizYo0+j5piGWRPpNf0oT0uhvlndoAv9ekPKZBa1LetSi/mlvULVT3nV7BL/7SL/n3qKKuhaAGsc51kFbSHMCOHDJsgcE+E5KsB/6GooCmCTEzfMLaTO+R1cI4n8xfUcIk0hAegATRKJ9++mknS7RKMouWmESgRpMwCI37zGijCfIbP0poWTW/pgv8x58YEA6cL/NmG6dCo/BOryQoHy+rK/hXX/iiupAFu/GmW9RlHbH+wVHr6V0g8supImR0zbodjW58jDG1YRsbHbHBQT6V2u/dZ4bmWqT95eSutbVdbvic6rDIr8127tptv/Kr/297Wd1NJl/ouU5C7MHY5tsfuF/k0qamu2ztIuOKyGtYBNAp4ly2fJU99fRzTg4FdWGZLYd5GJNMqhuGlJI+utKiElkLY0Xbt2e/tFg+f9ChvG+25nyLa3mlorS2Ct3qvA9DoLnlcumyibzinvyvQpbKi6zqT+cCK04wAVaxrS+/IrJS70Hl2gQxKS1Hjh6xY+r63XnnJrvt9ts8fcSLtDLkMDZetqeeetZ+/Tf+o73w4svW1bNQ+b3Q8yur+nLdquusWSrp2Oiw6vCY3pW27kkl7QWV1Yh66wWRqDJTjUJLm+quNOWO7i5r62j3nhRrAxlXC7IEF7Pq41oAsp9GEFZoeIwxMvlKPpAn3Kt/50IR8h2TaviFponf9GAh0gslZWrHJQURCZMmyMgAiA6i/Pa3v+2GMTjGENH4eIfnJJhWAUKLzCORaf+iqz4T8C7h0C0iTIiZcLBfXhAe6ZFh0bR+cwcDcTGuV5WW19rebcek9fRIy7FMSzJAPt5vhdE+Gxs+YeMjJ/TCiLW3VK09X1X3umJdbSKirCqc7ldLMsVhE79a/8l+a5YWSJ6PSeA7ezvt9Td32v/xO79lxwfkj7J0lIkTXpUmRdRuufEGe9s9mxTOgHfFmR1vk3bJGF9La5ftO3DE9uw76N3dXJ68nXASqUBkJjJX3rpH6jJbuWhNUsUqE1V7c4eI48S4dXUskhs0ZTVg0p6t0iz+aVY6OuzQgcM+yYLmV6QVkT/kUsy2W5U6wLim3sEuDa9VJLln737b/cablmWCJZ+xQrVoGV27FnSJ0Mbtlo0bpGm2yV9aCWl31ZLP2L+4ZYv9+n/8T3bk+ID1LlpmRRH3gBqHnMi8oMZndGRQwten9yasuzNrC3tbbfGCNlu6uMuWLOlSgy8tPqeGgSGCwogNjfTb6IRIVOEXKkVfbRDKAfUN0qQuznUgc6Q3ZCzkjSt5wHN2ATFMRpcZjRtO4BlyjlvyKX6fK8/wE4OfAN6ALPET4owjIrmPv3DK2eQ/+0u/9Ev/pma/ZCAxRIaEkcAgSxafv6Yu2CuvvOKzYyQoBmZxd7lAuIxvMJtJRhG/mZLvxQCRV+KxCKQfS6JxSNmxHbv22Dcf+5aPWTZL0Gg0hkeGRTB5W7F0gd1660Z7+D3vtI98+EP2sY982D70wUfsQ48+Yo/q+s6HHrTbbr1ZgrxIPksjHELQmcUm7V2+/Cgr7bQs8kPLOn7sqC1etMjukubF8WU5MRTdXB/P1PNDRw7Zc88+J1JklpHlYEl8WcuIH3ffdaetu2EtSpWTG+84oXlyaAySMUfC5/1jxwbsC3/9Jdu1e59rftAgqicTV+IVuUn8QYvbuPFmu+O2W+RCzQfC4H94ndQZD4L7jI+q+4z9q1//lj3++PdE3OqOyU80zKKInDHjBQu67Uf/H3/f1q+/PpklV6Srahv6B0fsV3/tN2zrtu3WLE28rb3Tx1XLpaLItcO19UULe+1dD73D/uGP/n3l+aM+efYBmQ8qzx995BF75IMfsIceesg2b77Lli5ZrPiUbUQaP7P+rC4Y7Dtm73jbA/aOd7zD6xz1j3K9EvXvakGQFXnAFc0QcgslieeAZ2n7TDgjFC40WhotfsMH+Bt+p3FJCZNEkEi6ziQmMgECRRV++eWXnd3pbkOUMdlyuQmLDGJva3x3HFxOwg6cKh6EnPBPxWFC3dKXXnrJHv/ud6SpjKv7zDjPCnvoXQ/aP/iRT9gnP/5Re+QD77d3vfMhu/eee0Set9iN69bZ9WvX2A1r18p+g92zebM9oO70pjtut+XLlkqzGbODh44qzysiYdaoqYIq7/MqixMnjnt8Hn7Pwz6jzkSI1x9dM+oON+fbnLwHB4fV8vPtFrqTSZcSIrlx3fV2372bnTATxuSapKcq7a1JzJtwLOWcsZ279tmf/f/+yoakvdEYQN4VuSMvpG8ofPYE51yjWyiSet/732M5wnMXp/4A/4vjE6P/Csq73/293/cxQ5b7ZBnLVf2C+MbHR+3uzXfaj/z9H7ZukaDHV2kYHBqxV7ZL0/7N/2xN0nJb2zqlaY95XrS25W1woE/vbbKf+PSn7JN/7+P2wL132y033WTrlO41a1bZ6utW2HXXLbeVK1ba2uuvt7vuuk35cb+97YEH7PbbbhPhinzlX3s+a+9WmTFjGxoQ8kH8phLY+QDSHQQIL/AbjkAThxu4H3yCCcwkv/APMuboOYb/4KsY45zKv0tKmOkAg8lpLVgysHXr1sllAxAlwA2RxYT7ywHCZ40ch25EnGeS+RcLD3HyP5mw80/xGRgckCZ2RN2UdfaJT/yQffrH/oF94AMP2+ZNt9kNa65ToS+0NhFpMitNZVLDIyuLx6vSbCCIZgnlypXL7daNt9iSpSvsjT175edRJ8skHJVDrbL09/XZXXfcKeG/ztdkovTxHCJC23ryyads16431DK3JQ9kCIsxU9Y0vl2aU2urKrxeLLKYW0Tl1dsJU/TGOyJDZrKfeeZF++u/+ZJ3dfNtajiN7a5jXnEhTDQzliaNjY14+j70oUd98XrQZGKIQ2JneQ9LlpilPnjomP2X//p7IrwJcXNW3eCkvlUrJQlhv33yEx8XaT2oPEBQ1fspVWx4bNz+6E/+1J557kXrWbDQ1762iCyHVAal4oTdeMP19pmf/uf2/ve+2xZ0d3r+NENy7rEaA/5qcWGlQkYNA8uVFi/kpJ71dtemO+ztD9xn99y1SSR6v9c9hoIAMnE5FYarDdSLIEMaEfIC3mBZIY3JqbpzCuTZTADPQJLkP6RJmIR31nBq10uGKHiuDGwzqfPcc89NroWKhHLFICBE9nKCcOmSR+ZwTbdclwtJiMQhDEjuko0PPHCP/dqv/Yr9u1/930WYH1PXdJ2tXK6uRIvyUITSJIMm2CyWxLCYHLKig9uSz/ki7zaRTIu0tx5pOO9597uklb7POtpZcqRwlOZmkRrVok1d0EMHDzspelYoOr7LReXD73YR87333O0TTJQX+cUKNTRUKuHevfvsrf0HkkonksrELh+5g070wD2lezwuMmJ2HA2CsoDIGDLIKQ1dHW16hT3JJSdB1qAePHjQ9u19K/HPkc6rmtEtD0fYvv01NQrJAbJRtmzZpAFZqK4Y6WjJk26lgdcV10xzi33z29/x1QR0w7nN0iYIlV1M73v4PXb3nZt8DLYq4/mvfGbgwSeydKXmM07c3qLek5KPHdOmoFYu7bUN0kY/9OgHfeNA1H/ix/Vyy8DVBvKBukZdYrE5n4thJx7dZp5x3+uWzMUgwmHyjRU5UUeiPOpx5p1LACooY5SMVbJkiOn89OkkRBAtDwKlJYFMLycI/+qYlUTKZRQfLrU7MhBRWWTWZMuWLLQli3uk1bRbq34z6ZJtgkjUbZUJoWN9JOsm0cbQzNieOKEuoDzy51xbW5p8zHPlimUiq0EPi/Kgi033miVELIqXxSOCPzR8/MR+t7qRSxiXUzgeXbENFY5ypALu2rXb2MvOQ3YaAfz39HmqFC9VVjQ/FoOXakLA2s2iuso337jetVSiy1ZOxlbZOdPfP2C7dr+RkFsgMgzQ3Vf8CYrgn3v+BR9bxSO2RSJslRKz7yW768477ZYNG7yhyXhdVP4pgUMjo3biZJ9rxUy4kSekjXHdQwcO2NKli9WFz1sHC1ZF8MoOj7si4uRJnmCKE+M2NiLy1yMasYLS1XfipI3L/+7OdpVLslc6uoLkL/ELbXO+grwMfiBPGGOEMCFPngVhRn33ejUD8C75zmQzw4PpMHlWj1kjTAKZKtKwNxrB97//fZ/gYakA44Vsb4zIhbpNJWFGjDWXsw0SP1UGAO4jDCDSMVVaLg8SIuGaBgSVaIxMlpRFlIqjIVQsiUAbQVAhAmlDynMkmKU8bNOji81sbLs0I7SqovIb/9AIb79tvW28ZYMLLvnAekX2oLOch7WZkAZLaEbHRQIekSQoiHjN6utsxfJlrlVyM7KXcUJ2wLzx5ps2Lv/ozkJuOCNbk5xNUsK9YZEH2ijkxC4kyAf/N995h737XQ8qDRwkUtMy5dHg4JDt3vWGGgA8lFeJh3JT+6HGgCv708cnyrZz924K2bVZ6hxOaGDo5jMZs3BBb+21ZDKSt/cfOOTxybHGVWRJ/I8cOerPMeukFRL3cZF9K2OuRNoTpzCUhqRhUTddZdbFzjGloSTybJO2uWTRAl+WNTE24ltVo15S/2OFBnIwXxGyRz5E3qBQMcZIvnAPwsRduJmpvPIuDTxKHBom/kRjNZWfs0KYeEwlohsRCeE3RMjC0C1btjhBosXRkhK5qBBULBg+CCsq5ExB2JHQdIIjk9PxwxA+GUbcI/Nxc2Wggq+RToL4AYWSFmlwEkx1GmRX/ClYkSUTIi7RNeekwaF0YodandTkBuGHLABCzhrH+++/18fgGGtjXSXEgmc5EcaoyOzo0WOqsFB0Ah/nUzkuUTfpgfvuk99oawX5jfaGltlsY+Pjtkfd8gF1s9F8ITOKIyFETlUiVqqsIpuXtrxs+w8esjbVCcoE/8dHR2zjzTfZHbdttIWLep34i4Wi1yGGC7a8tNWJnGT5WlElmW42SYdYS/KHtDPRw3Ki1vaOyfhT1myNJP0MS+TzLGqecI2QMV4Qx42xZIr6gF+sJqDuIryMweMHdSmpLwpYdoSNBgc7eU5YTLmT7rzIkgX6CkimZK3KLxou/EYGCI9rKBLzGaSffPH6KztyyqQsi9nJJ/iC+0Funs/nQPhVbwB1DjtaJuUbXDAVZo0wKegobAIjYBbkMhNOdxyQ6CCss0VotkAYmCBGMhayJnzimDao+VEAPA/tIBGEK4ma0Oii4vU/4giUy9I4pdk0ScB1KwhJGZvYRUiJxpV0TUmK3+dlERYGYqKb39He5iQKCdJNZXcOmhWExvgd2wAhcgyrdMgbNFXe27jxFuvs7NA9abM1cmE7IWOWBw8d9t1JEBrEICcOj5f88J0w+v3ajh1yQ7mgQUPiBevt6bL1N6yxnq4OabHL1fiOKz7J2jvScOToUTsgLdCTKENtShpd1S/5ymQP4e7cuUvabr/iJaHLJFsOqQ9jo6O2adMmH1Lg3bzeRRvMqDuPUCxbssiWypBOljKh5UJ6dNcZXnj8O9+1117fqbSwgiHZMkoCfZmVrqSHsmhuaRU/yhHxJCSs3mVXniY3G5gGYnImFCzqIrLN9WKAXKHg0S2nQTyb7M8KYUJ+VEICwU7AHNPEmCXjkSQOzYCWgYhR6TGzDfwOQiEeZCJhhwkiTAP33I93eS/IPO3f5cepcJ0oVX5VCWWmqu5e7a85I41Fv8tiHkgN4UVYMS72ECPp1dWLX9fY+6z/lE7Sy1FpLd6thEALKju6mb6GUQxJlzo549JfqcUK8hFhN2fsphtv9BOzmQWHpCEKz0OFc0BaIyf6MI6ZzkXiSfzQAkfHS743nrC8HPTHkMGqFcvspvU3+FKfm6VpEjfCpDxaVI+YxNmzZ6/CUrRkqN8+0+8hJV1vSAwyZv89ZByaiQ9HyL93PvSQLV+6VPlKPsgf+e3jsbp2tLXaDWvXiLwnfKKMoY68yJA6vnDRYtuy9WX7z7/zX500WWDPNlTO6ixSTpHPMshFUgbUKQpI//Sb4ZLJibAGLhhMzjKkh3IGqGtwCeU6E4Ssc4V44S3qIX7GszSQnIsGHqfJkm44+8DZF04F5xkRwASJXWyLcD4E2QXhUXEJn0zBeEUWiAt2DHHCEF8M9qky7dIhaCWuAciNuElzc41SZKCudEFkUyzgVvTZ3OIC6jteZEgde5pdeJn1RTiVHpQdDugdEYmwWJ2ZaPGHGwjHu4ZoruxJV7jsrXZtCdSygq4v50dCkAt6e+zWjRv9qDWeoz16OSsOg+qOMzbpGuqp1x00AhD34cNHbefuN3y80IlefjK2uOGmm6xXwkG3dcOGm5JFxV6XquoRtNsIe7H1njck8pyTiwJoguQh46hs9SRs0srOoChb1kHetflOa21LhCPGYbNqQJhEy+n6wfe/z3o6O/0ZWgfj7GiQHEPX1tll3/z24/az/+pf2x//6Z/bm/v225gaF9aPks/kMQeIsM7U816RKOte0l33oJyEG5geaPQYy0QBCw5BRmfKJ/EuPEC9YKkjHBa8UY9ZYa2Y4SNAtjnSDWeWlERxn0gFUWGHwS8FEaUzjgRDgsSNDCBDEDoqPnGKOMQ76QznXdJyKeJ4ftQX1Kk4hK2MGqO+MeORaD0QHd3bsYmSjesZpKjI+yG3Zbmb0D1egUB5hlBzShF5oqZO6UWQa1q/njMGCUETItoQXXO8xAC6k/jPlVlrFsKTr5AdWYY/vEf+M1M+ol4GXsNJpMHzXVe0vld9yc8Ja671PiBLNMjNd93p47XMjK9Zs9oWLV7oZckMOvFj/HDnzt0ixWRFBeUVdZyyLItJ3zpwQFruQRcy4oNWGfXi+huut+tWXucNRbJOVZGDaPW7irasLvgj73uv0nabHVf3n3c6Ojqd2I8fV3zV1W5t7xTZ77Ff+dV/b//kJ/9n+9Vf+/f23e8/Y0MjE3quBkfp4yARNGrsDFXwPnbgQxMNTBvwCmPM1DnqUvRcLwbwAfWGRewoemeT/VlZuO6CJjBmyWA4s02MC5KQiEg9IWFmm5DSmUZ4hI2BGMIQL5Y0MelEhvM7Zu4jPhG3dJwvF6q1LEkuqfxR0viFRoWNfc70s0eGJuxE/6AdVsv4wosv2Xe/+z376te/aV/84pfsb774Zfva179u3/ne9+3pp5/R8632+s5ddux4nxU41KJ2EMcJ/WZMjm2EnEI+zqnmyje0IfLpBz72EVu5YhEBexy8wy+mUQ5J42rxw0Cefe4FGxgaVrwYC2Z7Gd3Roo8BPvzwe1wTldKm94g2o4wJeX/+L79g33/iaevq7E20L7ELWz3/0Y//qK1YvsiJdLRQ8bQdFAGyjZIT4znkGC32/nvvtZUrF9XKW54qbIYZCvL8+0+9aF/92tcUaRpHeguQP+Ratkce+YDvsOloE4kpLcXCmNIiD7xLDrEyEZNo7a+++pr1Dwwp3qS+ydasXWtjY6O61y8iX6QGueCaNHX/7776dfvmY4/5ZBNjnYy5DQ0OErGEuKlj1FPqlzRPGqMGLhwhlzSQ8EzsMacxnYm8Ius0hmkuwh6fqqn3c1qEGYQUnqd/o1Fu27bNlxDRAkBKbGwnIeEmDX7X30sjnmMiHBDvcC/9PK4YiBEtMsiRNVxUXBa/MtPGnvHk9OvVblDxo5VK+4u5nEB44MOIA+QBKTS55sZvnsmBrCMjFdv95n77ytcesz/7i7+03//sH9rnP/8F+9rXvmnPPPO8vbL9ddst7ee113balq3b7PkXtoiYnhIxfs8ef/z79ti3Hrcnn3jCdry+07a+vF29glelheUt39KmhiQ5O5OZ4872FvuBjz5q1y1f7GN7GXVX6bYSEbrHnJBOl/uFl7bYvv0Hle9U3pKTGhro2Miob69cvWq56DUhM9LJHAnf1vnjP/lzaaF7rLOjy8cPmfVfvLjX/uE//BFrU9h+YpHIb+vWl23njp3SqFudpGmkfVnQ3Zt851MmQ9yURfKDXTXDIyX7+mPftye+94RIkEyVoCkPx6XxdbS12P/wiR+yTbdvNBYMKIflH7ugkklJ0pSRJkg6VquuJOs+dydrOT1fSr4UqnfBQpXDmOpOq0i+29Mg/Vxa7VF7/sWX7bvfe8q+/d3v+7eJ+gaHnXDRqkk/5clqAfKQxicpWMo5IXSu/D4FbqTN/ERaPplMZrMD8k4vEuXoYgFBwllsJsDfGRMmEUy6PaciDPjNIRqQJSejh2YZ3W8CDbfxXphzIdzgP+ECIs89ftMqhPYaLQS/CR+CZCYNguTEE8iR09SZnOB+aJh00Ykr5AoizDCXHQqTrjPpYWxR0i8SU3pVgGhHSSuatUNH+uzPPv839rk//bz99Ze+Zlu2bfe9z1Xpfux55qzHXHObnyDU1t6t9LVJ84N8IMMO+d8kEhi2t/bttx0i1Je3vW6dXQukdSpwwhEZMVtcLo77Jys+9uFHbPXKpZYRmUF6jL1xtiZjm4yRdnT32A51vTkLM6f8HBUptbUqTD2DoNZfv97uumOTwlZZsi2S7qnKbe+eI/a5z/6JTYg4Obm9SWRcLo/bpjtvt0c//EE/Cg2NFZLds/tNe+7ZF62ltcMncyCvSrVoN918g921+XbFV/WBcqvKn0qzHT7cZ3/7lW/a/r37lX8la1aYLSrnkcEBu+Wm9fbJH/pB1YvFIkq0YTT2nDdWSdlLSMh35T+NP/UH+47XtvukGI0CY8mlksgui7ar9/XnC74yLcr7dklWqw2Nluytw8ftyWdetMe+/R175vkX1d07pkBM5aTykaExRCRZO4tmTqvIoRw5ehA0TBgnSP2mnapVS8UyscwzIPsYeAWFDNJEXrg3E8KEP5B/ZAsuwB+4C8UKHqnH6fR5DkSECAB7ECd2JngYLMUOIgEXA94nEWgSAcIME7+JA11rKjaJXLdunX+BjqPnN2zY4JUdkgxSvNqBsuGTFkpXzKL6mZISkKyE/qUt2+w3f+u37Q/+4A/sW9/6ts8As/iZWV0WtrcpL5j1RhtktrlcLKiQWb+pLqsTCp+SYGtkly+oJu8gL19ArT/ymzytb1knJVV+efzkj8/0eoUzY286J/ig4XEyOmONPtEisqJ+MJan0tL7iaF6cGDw0do+dsoSLQ9B2HjLzb7lkmPZGHfkSovfo249Y63UL8ZumWXfsXOHhOaExwyy9yqtIPr6+m3nzp3uloYRME7JaoD169fZsmVL/V7Au+xKS5zfiSe+zEl5sXbtGvuJn/hx++nP/JTdKTI/fvywuuPHlbZxuecgFBa3M7FTUro5Ibyi/GxRfnBIMQ1zi42pLLZte9V+/79/1n7mZ3/e/tP/8VvS+l/S+wxQKMIKhzyosBLC8z7y+3Q4h9bs8xFBitQTNrjQ6JBvZ9TXC0RwGf5hx3+ukDH363HBoQQBxpWKxJIhpuExrLuMyRQC4jmRmAlIPO9yxb/wh8ofBMp9hJ3uNF3sNElCnGQmLQbxiEy56kHBk2+1QtMNF3ImB5hQYVzsv/2337c//Nzn6K27MKL5tLbmfWsfh1GMDg/YoQNv2VD/SXWHh2x4oM9GhgasVBBhlQu+Na//xHE7uH+vDcjNRGFcXWMmJlRZRFzkF+bMChhiqquIhLIIN/Cnf21z6RI7cfyYyoslPdKK3XlTsk98ZFipURlSDvqHdsaXP5l5ZgeSnHnZIgAcU8fED11W0g+hM3SyeNFiX7zOcXPN+eQYQM7GZAdOAK13YkKa3f79vvSIhejJ5IAeim1YRL9p0x1qRBeS3R5Xstof6w+STIiXcsh5eER45col9kl143/+53/O/sW//Cm77767dF9d7ZNH7ejR/XbixGH5w2cQ2qVdN0tLGbPxsRFvrHp7ur0hoz62trX7iUx/+6Wv2E//9L+0L37pSx4e5UnciV9RjQ4DF6dDvz1DE+t8B3UUGae3iKzMlDCpQ5ggSriG3/Sag2vSuOAuOR4iJOE5EWa8khlxyJKAIEzu444r94JgpwPCILL4gx+RCPwMfxmTZLImutzYyTziEJnHO9hnmplXAoxzKYmJUOiakEOLz8z+7u/+X/blr3zVTzZHs/RPHkh78vmf4qidFBFWRFQ33bjOtxQyqfHgO95mD9x/rx+1ds/dm23T7bfaDdevseXLloiUkrzlU6/4x+SIz7zLQNwsFkf4P/bRD9l1Kzn6jjFI4pU0Qr4QXJFUFEV6XbblpS32wgsveleG98l3xpZOnjhpDz74Drtx/WpPF914PtHwt1/6O9v68jY1er1e1iwQX7VqpX3i733cVuuKFsuEDGTOMqoXnt9ib+7Z55/jQMtljWRTpurpS87eVD2Rgjg6MmZff+zb9uwLW5Ky1/s0LOyy6ehos0996h/40Ws8UlX2ySaGPpI4KzHUNddUa8vMFGnuUCQrr1tm99xzj9111yYfP71u5TKR/oCNjw45QXKqPcfAET+0ZIYa+tRtZLafAz5CQ6yoweAwmpdeeMGWqKHhW1IuPwqPTQQevsMzPGVqSFnnG6h78ABlQx7SLQ9+mC54DwS/IQ90yWlk4RYauTSmNYYZBISdiKIhcFQbXR4CBCQGg9uZJiIygyv+Qp7MhvEbDYSxSSoYWgez2xAl7uvDw46JTLkWQFSJM8KLHcFj5vrr33jMflfa5cDQiLV1dBrfk1kkjYsZ2pGhPiuOD9mGm9bZP/nH/8h+7mf/pZPOe971dnvoofvsoQfvswffLqPru9/5dnvvw++19773PfbAA/fZffffZ8tXrLQdO9R99bYt6ZYjkOwvZ9H2xz76YScGxU5xcydOMHRQ0BixS8alZQ3Y448/7hWvtUXdYNKicmFg/uYNN9nbHrjbf1Mae/bst7/4yy/YoUOHnSjUGdV7RRHRHfbI+99rCxd0SxtmBpTlagxJZG3PG2/Zlq2viIiSc1NZDsVp7kz63CatFAKHoIjHX3z+C7brjX0e5+SrjORt2e4U0f3wD/89CQTLsZLGKak3XBWKO0y0XTRcDjOmbumH+4E7DtFYumShb918x4Nvs4+qQeG4tiWLF4o8h9SdG1a4yELZRvSbI/c62tvlf8U11lw22QbJfv2TJ4/bzp07bNOdd9qy5cv8cGGeEX7IlGf4pKkhZZ1PSMs45IayxpZG8ist+xcK3gmlDjuG+kvewy0M9aURzdh5gSeAykNXnC+6oWHCxNwj0HBDYNyLGfLpgkjzPlcyCL8RKsYiGaO8+eabnSzRZEL7DJIGXOMecSIzI1Oudvhki+Ir2VLclQYlidnnP/+Lv7Qjx044ubEPm0aKbgMCuHBBj3340ffbf/j1f2f/0z/+cZ/RrpTG5E9RV2lnfJ5XpMv6TaoUpxQtXdwtcrrdHnnkPfaDP/gDTkxokOzDnhDBJGWJ6zBCtWZXnFjeU/UJCTWi+h9Ou+eezdJeV9vw0ICPZbL7xw8fVhltUU9kYHjc04NhB9DefXt9fzVjl5BJc3NWmuL1xhcdCcnXdeoKcXXQVd+40Vql/XKfMyuZied7RHuldY6OTcgfNEGTNn7Shy8Y46RbzVgrww18X+e+++5R76SHUQVPCm7QKqkvSTx0W3WPd+gaR52mQCgbtgTQ9Yb2RcX6XbDFCzvtfe99p/3sz37GPvvZ/8t++//8T/apf/j37baNG/ygDQ7Z4BxN6mBnJxNxauBzLb6Oc+WqNfaG4v/1b37L+gaG/aN1JdKtCCa5ezac/clcBnnoDZjAFWUJJSruTRe8R9nDVaGcxRUyrse0CBOPuTLBw7glA6MQZiAYOgjzQhIR5AjwO0gujqTnN2EwLsn45Pr16737TSbFO8QrHR7vYABxSXfTr2ZADkis54MEFO2NtYrbX99h217dbp3dvTZeFJl6niXaB/uuWVz9z/7ZP7Fbb71Zd9hhMqYuMqsVmLnle8wc/CDti8MY4Tv5jaFCqF64nXFMCA7yoEvOBBMyST5mRTpJdvJyQnjR/LiiWQOnF226/Tb/Vjh+Av/ujuK7/bXX7fDhY/4uq3MOHjpkff19IiaF1yr1lImS9lZbu2a1nzeJv+633E+OY65aZd0inAI7aihvESkkzn71IWneYhnXkvfu2y/NrV9ab7IVkkkjyLCtrcVuueUma85TR4lWoqWiISd1lxUX1B2GndhKG2PwjC0TD7mVPflch7QQPWlX3WqRZ23SWPms8LKli6Uhv8d+5l/8lP3ar/5b+4Vf+N/s0Ufebwt6u21A6R2fGLeBwSHfo88XJZUy4yuSj337cXv1tdcUt7zKj3WwykPy200DAcoprsg9GiBcQDlTV+M5z5IyTdydC/EOwC0GGYTfgkfCjwtmkZhAoSsOWaLdxD0QkQMRCIk4F9LvEiEIkojyG6LjfTKD5UCQJSeVkEGQXyQAd+EP4H6QZ/gbbq9+JILp3UIJCmlg0pY1lf18CqK1TVoPk0CQlvJY6aJr+cEPPiIi2KD8YiF51to7OQFdlUcS7Vv1ZIdIwzDuh2Fml3FKPkeRyGWtUpB/6ooCtFyIxw+QcMihnvMLkyxgF4komPa2nLrd98o9xKOup8KeEAkz0XH06HFPB0pqvwjjNTUC1BPSwdFtHFHXK1Jh7LKV03blOcMSgCt5snIFa2hXS1uG2NEC9J6ev/WWCLKvT1HjsBDzr0MODAypoaBrm0xOjaqry8TgDTes9aSybhPaj9OJcMPhyWiWMWzg+YDd6w9phKTJAfJTmo7ukXbIk3z1xsbHH6XFq7G6ecP19vGPPWI/+zOfsZ/8p//YPxfiZ73iB5qv8pWDO/js8RHlz569b/mmAT+1iUJ2n1LQLe7U3Z1XoDyoNyHXLA8MwuQ3z0PuQdo+FfCLd+AR7LiHg4Iw0TTDHc8umDC9csvQDedEjwjofKR4NhA4JvzFHuSHQStkFoyuN13wGIDF7dxFknbylAkKNJ9RaVOvilyKaD3NLa5B8SEvxr9GpSFef/1an1WebDioHAjb2evIJOiG000dnxhzDRNJxB9ejoYLUGnQBBWyDFdoIkFyTYgDDuJja12d7a6NsXCdbYxoTRzI+9xzL7jrk339tvuNN6T1tvgWTeKAprxoIZsLFuk9GgPFT4THleVQENWC3l4/7IM6MDY6pvwhzVk/FemYuuHsOBoaHvMtk6PqqhN/hAVSpjFhfefyFUvlJQRHPSL2NcPlLKBJiOGI5E/E6f+HCdup3CEvsjLk2JpVy+2HP/lD9o//xx93LZehjKoeKIe8B6HM9Z1J+w4cVLwnvEuuyOvB6TjzzvwE5Zo2kGbUf+pGmiDPRZZnA/7wHjIQfAPX+dX/vwDgAVuR+HgZM590k2N/+ExQHyESDElG95lMYO0dn9lkrJLnYeYuIk9o4RJpY5H2HnUxmVlGG2lt61CJZn1Wm8XW7KnlnMaa6iNySAjCK8p56grHsfX29vhEBd1xZovRChnHxKBpUT4Mj9Tqi/uJt2HCxrpPiIITftgHzjgmpMTsMEMIstir0jAHhyp+KDEmqdwVH+dEi2T88rrrVnqFBa7pqStNd5q4MbG0adOdek/5pHepKx2dnb5MZ9sr24mFH+ax+829ut81WZ+IP2OYD0j7ZWiizDfCTyPMqXD6MydKkaYvjD/NSFDdQJgYudVr5EVCnOSNFAJp0Q+/5132wNvulRYMKRZ9ggey5KQjuXAts0CXQv74kirZIgb4dfa4zh8EScIRGOwoVomSkSxpxEQdcjm4QATZ4i9XuC3mYcK/CyZMPEG7ZGN6kBseTidC9Ui/iz1+Q5Zolhgyg/uQNAmKiM9FuLBJKEgvxEl2oGxAjhz2wCcc+KQDz+k6MqER3XdyzolJPzmzEu1FxS87JrlXb9BQGQb8+te/5oTZzOJrASJme6GP6ZUqPj4o54m8uiAndBBIQkfkqXBl+/CHHlXdmKg9pJtc9PWyfFbijTf32KFDR+zEiZNKl8KXNxCYYmnr1t3g52CiUca7aJuupYrwUHLvEmH2dPd42kHUiWeffc7zi7HSfeqi+1ZLZR7PRtW14pMSrL+EfJMhiiTOybUe9feID4a8rifKxPhzXoNU/VfkUtVn1bs7OXM0IyVgjfK+ZANDfdbZ3eGapjLcy5l8oitOmSQxiHAbSKOeDDnyDX5KEyZI28+FtHuAX6EoYNJ+UFwXBMZeIEsmCvCMbhqsTjd5pogWAnII8mWMkjFLZsNjYgd3aLS4vZAMuJbhBS+jxPpvZbW0Pk7bETmKOIaGkwXg5A0kN67ygGy45wZpq73P3cn7Uxgmhnbv2mWPPfZN4xDgbjVOXkEUKJUP0aeFZVnQZLb79RQlhG/84jo+Nmp3373ZJ2+KzDpzVy/zZcn+/kF7fccu27vvLfeT7jiL1iG09vY231EDPOm8KPKAvB26p2piy5YtthvXr1c9HPUZciZpuqRNcio8+7shzIkJSDHjKwg425PxWL77ze4esoYtmxHvxJwLSTk45BTtcRIpL+K+a5d038kwzzTljW6ykB/tvVAcV5mWbMnSRTY8NuyaMuOsEGV3d683hCAp0QbqQV0KExphLCus1zDT9vMhzS3hHlmA9yIcQM25ILDNjC55rLnEE0gM4pwpImIQJiDh7PnGQJyEAyLhYZ/rIIXJrhtZ9B9LUfzgB1UKJlDIt8izk30n7OixY5PkCFzHkRuXW/0+m9l/YL997o/+UF3DZLeNl6Xyd/LYMb0PYY6IiFTcbqaG3DtjVNW9brFO9RDuvvtukee40w0aIrPCzPw++8yzvuYTIuSQDyoklX3Vqut8BQT1ysE6JdKIRqs4VEtUfBoKc0KGLMkH374oQ/f2qaeettdf3+F1FE2SMOiZMKTzvve9z73NyS0NzKlcOBPk21SYvB2vpg3Q9fRXdcPzsupfwRwTQb7xxm564b50yyfMnLx11c1lK5b7jD5+JEVwlojMYwQXhKG+hNJGPYr7gbR9Kkz1PMgTJY76E34S1hmEGQQ4WXEFZsZZoI4H6ZlxIhiCO1MQEfyDLOmCo12iYsf9cBMm7s1VsG6So8u8qVDWdrflbUlvl+WbytZUmrDWPIVZtAlpKm1dHXZicMBe2rrVOBmdbh1toHLJxz45ogzj+5X1DDvFijZz6PAR+6vP/4399Re+rMaJj4Bx6pCIupmTihQ6XV60NBHXrj27bBwtKFPW74L3aHPyi9PeGbdDsAm6wsy8tKic4rz5vntkl58KEM2YsFukZT797POuBeZy7CZSwysiHB8dtxvW3mDLlkoDhEBUxL5YnZkTJo8UHreJEgrnvffeLmImpeQT3Xa0gbL95Rf+1nbv3WfNYtVk/py6WbHrVq60Ozfd5e6KRVV6pTVjzXpXWrvSkJX/BJXxvFG32Ao2Uhi257e8YPsPHbQJpb3IuzwnHxUX0lrJlGQXmTfRMCQHkyRhKiNrKidLw1g61NrZY089/by98uprlsvmbWJMRN6lej4+ZvlqxbrzzbZ2+QpryzYnyS6whAlvajJAesh41YNkSGH+Am4KLoCDaNTpcXGfe1OZsyGe4R+odwvnhb/gNMLkZryYvjJ2iSbAc14OD3gWWuBMANniV6yzhDDj++ARQYCdjEnfm5tQulUkQUNiOutsabI7brnR2pr1rKLucgnNqmJtna1WkHAf6ztpf/f1b/hJPnRFKbUxCWOmqVldUsZhmDSR0JbJUxo4s5e3vmK/9Zu/bZ/73P+tclUj2CytNZP3Z7jliDdI1b/NIwLctv0VO3D0gI2Xx61YLTiZQy6JSaoQIoyBqFq62mzdhpts8dIlrllSzfhGUE4a5bETJ+34yX6/Vy1nLJ9tsaLiuP6G9dYh7TnxrSp/5Bt7PsUeHLWmBCn+1Eez69cuteVLe6wgjS1ZUM5EVca2bHvV+odGmV4XoVXVAPAdoLJ/u2fRwq6adyJJkWWmklN+KiXE3wd1FSzpkfuh8QH7y7/5S/t//vQ/t1/+lX9rn/uTP7UXtmyzMeUnZAmHVdV4VDITMqNqSIjHiBh12KqFEZXRhPwiBclqTXLgb7/8NfujP/lzacJ8yiPxZGxoxHol6BP9fXajNOyNN6wTYTbZxJDKJCNSV1ona7zSU1W5V0WYGHmQ3J9nCA7gCvfACyXJCXMdwUvcT7sL+9nAc7gsOAZ7vAMZ4y/PwGlbI4MAuYZBu+TzuEGYoD4C9b8vBPgNYTIOyhYktjqy5XGmy5TmAshFSC3RslTQ3nqqQVEX85vfesz3fNNdHld3jnE7n/1VefGd7BNHj9uyZdfZggXkIafKS/jprvJJCwktJ6/v2rXXfv/3Pyvzh/bCC1s9/xcuXOALqVm3yIJ1VDn8ZIyQGfRiYdyOHT1k625YY7duvNknW3LuJ5HFINUS5OSOID1LcSyKeFkP+dZbnJGpbqbHRTzCEXG8I6JjrSZnbtKN/4kf/7RtuPF6rxfoq4zzEQ8lQr+TrhbhcWUy59nnX7B9+/ZbC310nvMWTmr55ocAi7RYDvXPfvKf2E03rfZJI8aHPcpJZGvwhLgtw3ZJEfRXvvx1+6PP/Znt3XPQtm19zV54bqufL3rwwDHfPJBVA8BEXEYNjV7Q26SxzZqy0tB1ryRi5jT4AweP2X/+nd+zP/rjP7Ndu/d6o8Sxe4sWLrUREWa7yL3vxHH79Kd/zA9abmnNell0dScnLCWojzA/EODTUzEfEFwDgUFkAQ5xOXo0ORnf64CM1xnhQvjJ613tPRAkiQIHL8WSxib9l/gqwKbMfsPYESCL1J988kl/OVAfgQuJUD3wG8OyGMau0C4Ze4oufjq8eQPkwgtZ+Ume6t/I6IS6hCX7uZ//1/alL/+ddfb0inSk6csZJ3p3qls31NdvIwODnn+PfvCD9uijjxrnLdLYsRaSbaxPPPGEf66BRd8QLwu52ySchYkRu2PT3f4Zi5279lhXzwIbGpa2JHT3dNrw4EkJ9kn7yIffb//6X/2srVL3tll/zpAUu2s+aFO6+l9Gmm/FBocn7Ld/+3fts5/9U5FApypcq5MjhiVEHPwBKY4ODdr1a66zz/3hf7fV1y2XdsZkooRBZEoW+BF3qhJMjjAmyRJNvnP+H/4/v2n/5b/+ri1YvESOVGfVV+YZ7n3xudyzJZHdR5/9g99Xt7wbhV2kKX/kL8bhtV8/XG2Uhl2VRpHP2L/7d79h/+33/sAW9C4RgY3ahLr8RIhGZPnKpbZoyQJbvmKRH+KxaNECW7N8tbRWlnuNW7/Kgk8Mb932ir2+Y6capEHl97gtkmLAt97JfzRuzr089OYOe+c7HrDf+S+/Y6uuW6o8IRpsKqDZiAjqJizvdgxxRc+PRMwfBC9xhSvgCX6z3PGZZ57xLjTPglB5Fm7OBSdDvRdcBgfyHgf73HnnnU6czotpwowxSq5oegx4vvrqq34iEcIYqA98JuSGH5Azs+EQJhGKBLpmMR+htLNPGoGfGGeZjzQV/WYR9tPPPme/+Eu/7F3ahSKJ47qiSfn3bYoqD3W5KTt6Aqxk4PszfOiL35jEe3YGJYcmc0bjQN9B6+7K22/8xn+yFavW2I/86KdERhwXp64xi+ZHh2TP+a6Virrj/+rnf9Z+8GMfsZaMNNGa3DphSqAZ08OGNkt0xGn213/9Zfu1f/8fnWxa6Oa7Rpms20WrZE92/4lj9v73PWy//Vu/aR3teT9Il51CyXeGmFluRhn1uLNgH0CMn/+rv/FzJZtFxOyUYQcUpMmKAq+PqktjI8P2Qx//AfuFf/3zIj4W+6tuqZ/LN9hZQ0B+J+RTM0Cv9qvB+IVf/GX7q7/6ono/q0RwrPls83LgW0FlxW2UGe5qQdpii/JI2sdE1Up8lE5CRf2lbuM1M+Ask/P1okPDiltW7tv80798ImT9mqX2Lz/z/7KPfvQRevGeh83NkIHiKm3XyZJ8bRCmIwgNBGEChg2feuqpWSVM3mF3IROYTByiUJ7GdBF4XNFQOAnkUhAYYUCScSJIJGw+d8kRgCgw8oO2jO+GcxjHA/ffb//gR3/U1yMeeGufNKSqdbarOyop61T+dfWoBVShM8nQpt85dfXQbCZUyF09PdIWe6xnwQLrXdArd2UXWLYK/tv//ZdVIe6SdrPCyYVv25TKfFFS73WxUiFjR44c8v3beZEzkxBe92r1NqqhYl77Q3trclLimLm1q67TOxz8MaFrxfeZsxe7IjIsqUGmpm2+6y7jYF9/lylkgcZAmeF2rxteB5PQCJ8vSV6nOHOeGwSbbxZJSW3EMFbJ0W/tba129+Y75WfiFafYo72eIp8UIj3iJz7te/fmzf7OgQP7vRvvy630myGATtVbNNsFi5dZXtrzeFH1Od9mrV091tm70Nqk9TeLFPNqeCBKtGPCIx7Ed3xUxKk8Wbt6hf2Lz/yUfeD973MyZySGE5SS/J0ijg4iWovsPEU9+fE7eqazCfytD4sinATEGKwN40KYfX19TmJp9g1M5eGFghaYQzRiFw+Mjv+XKvHXCpLxOuWPCKRQ08Y62jt8ucnHPvoR+/SnPmVLFi1y7Wt0eCghh9KEuoF9Pj64aPEC6+7tdHtHV7stXNSrLjEDmlVfAzgw1C8yzdr7H3mf/bQ0G86phCAQ5k9+4uPqftzmmmW5XFD3ctT6+07Y+nU32E/+039qd90lEnEi82hNIc50I0Vungq2BF5na9eskp0Tk8ZEFMmBupB9cWLMCuPShEX6b3vgftUxGlH5IBPLmpIDRpI6AXzmX1dm0BkaWLt6tXpBnMrEVx7ZDTQhIi4orAnvjq9cscxuuXlDcg6l+5DUV9aZOiar86l6zc4jGqiHHnybffwHP2rLly2WZtgnrX1IcVO8lS/DSseI4o4vTGTl29p9YqeqepxVOWXQLpUYP/ZO5djT02XHjx9VvCeUz3JZHbd3PnS//fz/9hl7+OF3+frMEC0aSf78y5xng2vDp+I8XxF8BFeh/V0qBPdhTpv0SXeJ6Y7v2rXLD9kAEbn0NW3OBcgQPzExTsqsOHvE6a5A0PgRmi04n59zEp6XYZVF7ICGR9eMveOcsM6+8ZUrl6tc+m3Pm2/4R8aYdIEgWW6UzUEKfFp4VEKHpliwkZEBF/p2dXk3b77DPvGJH7RP/diP2r2bb/WxPP/GuK5on3nZ35C/e/e86UT6/ve+x/7Hn/gJ+9hHPmJLFy/2CanJknFL7Zcuir0sCeFjx+3I8LAdPnTIDkpTg6g4SR1a5bBduuUPv+fd9sM//An/pMOkvzV43apdI2+YFKOOFtW9Z6jBD7AeHfN1jbjl0xiFiXHrkRb44Q990N778LtFWMnZnBARYbvxwNx399uBNcuzkh8Bd/vtt9paDuvQvdGJERHlkA1CnrLTCDW3qKFXHheLY6q7UDm7sJJyKJZGZUTm5XEbHtY7I/0+5HDbrRvsf/jhH7QfU/5zPihjucQHzTKJStLTIrYMi5xC8jz5L8z8Q/ACV+oBV3iLNeJ8iDGUrbgfbs6HcBdu4116wSx1ZEjS3egBJe0gMG5CaHTFmSigUvLyhQR6NkCYsX6T8TUmem666SY3IB3RAPGYf6jL41oWQGZkR1nKCWNojJNBQk89/bR9+9uP2+u7dthJaZjMFLp+oiIlz9ukvbGNkHNEb7nlZt/tcs8997pmT3lkKyVrlWqnamDjhYJrQ8dO9Ntjj3/Htrz0kq2RBvfOBx+0DTfe6B9Dm+wlnlEVFKY/TDQkvuPD2kvI7fixk7ZVpLZzxy6lIRly4dAPNDlOFt+48Ra75+5Ncuuvp7yOwEhRUoGpI3TZyYuxiYIdPXLMnnnmWf+wGMugGJ9lzJA98gt6eu2BBx6wG9evdU+ZO+JFJpqClJI1jjKsFaqhJIKrViekhXNsYdbGCkU7erzP9u47kHzobfvr9vIrr9iho0etT40WC+i9B6a/isL2yCltvke+pl2uWrHcbtlwk71d8eEoPk5d4lBhGpTmHOFEqklpIEn7GSCfPd6n4jyfQB0Icos6AW8xOb1lyxYfwwx33MdNKGTnQvgV7pAf7jGGed999/nWXpS90wgTxzgkQnxjnNlxtELuXyyBRbcbf/gGD9olggwiknEF85Ywz5bsuvIme8bGCj62dvj4YXtt13Y/p5QGjopCflPIN1x/g++i6VJLyVq1ZmeOxDO6sXm54zAPCDOD4IuQmEChh0HDyZij6zviAr5wyDigy+skTo8wvyhnutNox9xQvXNDnAsT7PhhgurUuDhHw53uC4g7XJNhGupEMjxEx546SSNCXAseb45qY6sk6WNckx49ShpHprUyLMHklIgM/7yueUIwSTwB2qU1IXSSBUWaSTcmmzgViUXrwyNjdryvT2Q5YG/tf8v27t3ns+KD/QMeR5ZdcWweZ3pet3KFH0Zy/ZrVfh4mW0/R6D18DwFtORl2mBqRB1OhQZjkN2TIbyZ9nn322UtCmPfee6/LEvfOIEwCQVh27NhhL774oq+g5/5MCYxAEV4AQ+Pfxo0bXbucaoInItwgzDNBlpAvXFmaAyFgZ5E2S3v4SiP6GDnI/TigAqABMbvrha53OfuRpTdM0LD/HHKANFW7jG8IeTTkCQdNiGUknnpH7OPFQzy8mNzVGaDrTblTtaIichgvJApfKTh/le+Z88VIqseZPsUdhEP/Ky7ul+KXnJNZI0yxWLL3Xf7rNgvv/UBguYiZZjRKNLNSueB1EXfuuyeCyNTIB2e+k4bxMOWX/OVE9ia9k8vknDwZX82KQMllRlSZQCMevnYWC954XNWrUv3ma52Kqe6yiWDUG6w8Y5wCws2nj2uZOQ3gfrrvzA0EP4AgTABhxrIigLuLJUxAd/yuu+7yuRbu1WpKAgqaFyA2JnyCvWcK3iXSYULrIXC0l3QEA7xzMWHOSZBFNcNkALPNMA/aFeN1E9IqqyKfjASvJZO3vEyLhFp9AyurSzkxqm4m+a/ibs3xLK/aJj9USfwoN2mafGyMMUVO1BENyKUqmsqG+8x4M/vsRUXReJHVl1ESQbrjXvn0R5e7ta1FXWXIjLgy6QG5OC+7/+z5PtVkA36c7ndyenutG613k3pVO4JORMinLWpyIz/lruY/YZFPvOPvKV4sV6JRwb8kHW5LjH6XKgiaUq+Ggt1S+VyrL9R3wZObrBxVigWrSjCr0myzbCyQRy0KoFkmL9MmouzIq8uthJXkpsSpxuLhDtajqgteZWeRfMtDlh6Ps5gGpkQ9P1A2QXCzCeobSl2QMjhlE4Jl6eYxiIpj7l0MeB9DItEu6YbTNUwjTZrznTAR2rOBR64hibycaGTYVtrW2iZCE9mx66QsV959FrnItEjg21s6RKbS7lggWRKV6X5OZICmRGVg1tnH9iS8OWlKVArC4je7ZdC0dIF7XL6T0kmX0alIQ5JJJROx+KCrDCQlD1rUSOIHp7dzpdtMN3py1noKQG5M8Ex2pWthEe9kUoR41Ey48avCUbi+7lP1iTQydpqk91R49fnNEiJ271TLzYonGjH73SHJJE9z6prnlJfsQW/JNFurGp8MeS7NtlpQPspkRIgYiLZFBJmTf/qlCClsyFj+VkoZNSBkal0aJo3QIM0pERxBWcIdKGNTfX/nYoGs+Vi/roTjda72zBFExTgYhIkjmDtNaNMFgQD8YEacz+NCnFNhPhPlaSC70waEHJFH+ke3jm9z88PlCg6Q8UNuJZjJ/mgZ9pDrXkb6JV8r9F0weIqg4l7lAslxS7RYCyTxzLuSuq9/siXhBlzOHZMWh2tTiqNXGRFXoh0SDr91VdSckPktQ/hnK3fC8O8XqRvr7vQXjS+/6Qb72Zn45Z7jVv37RLWUINEd47lIVxphMr6ZhAmmCtWjKx5zLVXu+ONrlHypks/4JmdhSnCcFJO8dBKVaUF791UACgMupGevsiDveYdJL/km/3iPYSrFU3FTqmQ8h1OmZvPCdR9rZn6Dsk/XAQBhouTNNuAuesIQJvA657YaQhvkO784LoksYdiZrnEiANeIai0BfkGYISBcwwDchJnLOFua1VZKE+TkmyH97hNZ9InvBmWKieKI/IgkfFwRg2TbgEo2+byEG5a3+BKXmnGB45o8h4Sk5JgUHMkyfiC8yYEUWT/FhzN86M7zh0alO3LHJzO8tuCP/HNvHZMWB4TlBxnLcGgG365hUonv18jD5H2W0IRf8ujU8pnT/SIMhhmyep9JF0iG9MO6fhKT3HhYJMpfwPhd/8mByOwU4kGO/ezygx0yru1x9XyMsM9Eklfq7mVKVsgUrZAtWTFXsXKLwm+TZqwkRVFUchNWzg0oT4cV6Qmlka2ccicCrkVZRoKeGZefQ3LbZ9YyYAWV35j+H7K8bM1uhmU4NmS4POJNV5MKrFqQByo08iAaofmIkBt4CqLkCq+wXhye4V5JvBXuLgS45d3gP2QxZBS/w193V3vHES+h3gZpheOLAX4QMGuaWM8UjN1AHchy14hUiBKVinHUGJ+PHfNP5E7yIKDknFGQSAwPEKRwJOOVJm3kQn6HgWyoAkk1QBgTMs7UjGureq1GTR5GLB/i7inUnuOTa3fY9Bxiq/nvv5U2/55N6i9xhl/h7xSAuZzYEsNfguR3EvJkLBOjR+6vp1EpQ6uDMGtpTUziU+IiTILEDxEc++R1Ldf+ispjiaNsIlM59nyUVwxooFYwkubSgkcKTsqpuulFaZsi0fKYQh1TAzCq67DMoNwfl3s1ilJHeQ8/CirzCRuxvBopl5QoYlkp0uQzFvMTcAkmSC3uodTF7yC7C8G53AVvcQWEmdhqYOyJWSYIE5KMiF0MiBB+QJSMX6Li4u/FkvBcQbrAODit31qkbXRJw1gkAVlqLdVea5XG0dI0IRKjISuooCTEkqSJTF5it8jGm7okvKpAqDFepDKu0lB2aaP/FdypXw2cAc+gxCQlkxC0a7fKV5oVSIxDUkKZxxRKeRsv91ih2mnFSosVpQ1WGb9VSWakfTZl6TLKMBha0rtFab+FrHVIG+oujdvC4pgtLhZsabFki0vDtqA0avnxQauODFt5VK+JMIkPvYNKUz5F7fMPTlzikCAyuuPwCcoeSHMW9nORYrhNuwnOYn4A3sKOcT5UIJMuuUl3/Lvf/a6ruJAbJtbkzQQkBI2SxeqsZ6JLTjhByA0kIE/4Cs6gDLnSrPakVeWvXl8NHKAxIrLURZrShHWIYFtk5FYmOeRMj1Sap2miAHuNJdG8XCvST9f70u4aUMYgdNLuVR6Qkhu3RxZClOQbs+awWJKTIxMiMRUAXwhuZgCzPKBnlKbKbETd76LIku8cFfSMczVZ/gR52kkZlXLTUl06VOgqyXYRra9nV8lmlum6Cm3GymJqeuaMeLYpTkms5heQkyC0uLL++LnnnvONGyU1QNGtDjeYc3ENz9NXgH3JkiV+8AbcFf6dQZgckxQ7fGLAE3V3qjWTF4KILLtLNm/e7DPkhDOfEelPFxAo6XZtFZk0EMmI5CYnmfSeZFbClj0poSx6969gC9R963T3kGo7rwlp0vRQIohalnvv1q8I/eTtBmqo0iluYgwsKzu7oLxT7JnmeSvDwRnReRbzyaiQygvEZJKRMuR4xKrjb6kHvl/dgMM2cuItqUHDVhkt6J7orpCT4DFSXLHm0lG9x7ik3s+3W66zw7I9EvT2vDWvuMGs+2azztvFwotsQu7GVQ/4Pnqb4jYfGztkJjgFIEt79uzxM3tjGzeEiRu4iyu/z6ec4Q6/cIvhXdZgwll8DQLw/DTCROtjh8/TTz/tJBljjRH4TMC7EC+7e2677TafKUdjjb2Z8xHpBiPygGum3C9Fcq+IsVtMuUQOdRUYKyuKASs5lk5wqjoz2By3pzyUuoh3zMngq5sQbl35nYYPBcqHhDDrnzZQbULPhwxFllW2cCaKgudlLV+TZo0uNuUBacqMD5kNHbPSyX02OrDXJoZlBvdZceSAtWeL1lyZUCPIZ0YQupxIlwk2zgUtq+uesVKhXT31qsq6YsWWgo3nFX7PKutc+TZbcP0jZos3iFe7bKJJcqkmMqcm0iet5iHgKSevmtm6davt3bvXNcxYChmkF+4vhDBxw3toqXAW3xbjLMzgKp6f5gsOMfGQKx6kBXw6iPdJBETJFb9iNX4DCcgnx8gxG33+b8x2fNPs6POSRZEnn0DIVm0i0yQRVWNjXVaWyUg/yVdKPgbWojwG+OI+qbi4+uRO6r4/c0CWp99pIECeJF1tar0b3XKyjCwj71yzhCxFmnS9Dzxmhdf/2I6/8ic2sOsLVjnyXesY3WYLSm9Y2+gea584ZL121Hqaj1h3/oB15vaqW71Hnr0lwd4vodxvnW37rKd1t3Vn5b66y8b6nrPR/petPKF60HTCMk0jIkrOC+CA56TM5xvgj+Cm4JeRkRFXwoKr0nyVtk+FqZ6HPDpBpnjQ7/n/NTDIyaEbadKc6dgliMhjYGn8A6HizldE5oPIHwp94MA+O7r9Bdv1xBfs6LN/Jln6qpSYZ0SMr1lX+aC1lkbUCU+6Y1I1JK/yJyftP1OS1lHUXXbzUJHUquoRfQeUyKT4E7jwc01+NlAHlYZyWH+Ui9sTIfGaG9Lix+6RqxWbOHnC3npli+14+Tt2+K3nbGL0gLTIMfEp4/Ttyv9lVqj2WjHba8NNHTItNt7aYmMdzdbXYjbYmrehfN6KzfI8V1YEpA3JZ352tKihHB208jgz7LrBwnk1lDn9Ebf5iCDFAN1wJn24h0aJNhncFUQXvDMVeA++o0eNO97HHwy7EuE/3IR/p/kUL/MAO+ZiQUAYIhD+nSsB8wGRfgoz8prlC+0dnbZw4VKTDFnf0e32+vN/YYee/kMR5zctU9ot/fK4NY/3yZSsVfnZ3JyXYE7Y+NigrsPykGUrBXXPJXQwI/9qbFm7JIBFhfkpcudGQkQqH5ZV+e9aPkVmcQoJqma5ZBMS1j179tq2V7bb8cEhGyqK4FRKxeYlVs6vtUrrrVbpuNus5x1W6X3QSgvfYeML7rOhnk022HOrDfVusL7WNXbMFtrRcRHnBOGKN9UeJkeYMiaqrnlZzFpuk+kUn6rJLHNc3fyWoQBkiakn0gsF8gcmCTF1jRlyMHlVQJOyxM3vfOc7/kndYFbM+Vj6XIAo0SgZv2QQFX8i8IjsfAPpJ+0xFkMeOUYOmO1/ygb3PGmHD71k5YK0ynzZ2lt6rKvnRmu//iGzhXdI9Vhnlu9S5jZbUcSYbSpIxBl7k4Axs8qyk4p0TsbLMjn5n3gPyHmFrv/RcrFNv5LNZUhl0P/KGyckMi6p9+QYnz9u8jNHcVOw0shJO3Jon8wbtrxrQN3sMctl2i2f5QuV3Xq1Q0bk1iKya1XZ8F7TqO6N64rWOGIjJw5Y8fhhKx54y3L9b1hH4ZA15fp9CKa/abkVOh6wFbd+2tquf6fUzh6PDmKjIlac5p/8IDdBjtg5s3fbtm0+zDcTjgr/kEGuDBtCwKzmedvb3uYfQEvjtAOEiQQfzIp95AAPuY+ZCYgIWyE5MDhmyGfq11xC5MFp+cGlo9daOFS5mf3Lw5Kpk2ajJ608eMKaThy0/Gi/CgWhY9ZcwpuH8hA+CWG5KEO3Dj+z0jJpnFSJUtmNNfmJsJ361UACnwir1ogyVS7czmQkqFkZ5FINFVs2Ozv5zMpK67lunbUs3WDNi2+xzMINZgtuNOu9QdrlWpHlErP25WZtS2W4rhCJrtJ1leV7Vlhrx1LrkNZYGR6yyki/VarjVlb5jTf1ys16615xv+V65Be7pmqEGZP38w3ISnSbIbb9+/f7wcHxbLoIZRD/8BdFkfFQlhTdcMMNZwxJnkbJofVwDU0Q+8UgCDfY/2L9mwugkAD5EoVMvo+V81ZAkFbdZwtueth6V9xtbe2rrLOl3bpyIsnBrXZy95es/6U/svFX/kra6PfMjr9iNnZIGcv2yIJKVKYiApUmxCcVyHZ65w1cINAsJw1lw4oCGqGibknD9PVaui9Cq0rNyzR3Wq59iVWar7dS7mb1oNdZJbtKbpfI9MpNl571WjnTaaWmbjVtC220ssyGKittpHqDFarr1UjeKmLdqM7Bciup610us7lDvQTFId/aZrm2dmmnifxA3r7MbJ4DuWHcf2hoqHZnZghuCp4KfmJXInM69aiVQgIEOS3M4GIJLgg4gP1i/bzWUZ8fk+DMxZxatOwiaSi3W8+tH7GVd/6QVXpvs2PFFptokdt8n02MvmxHdn7Jjjz/Z1Z++Ytm+140GzhhVpKWyVZJupVltE5pnIy5JUWZgm44GZzxoAGKIxGBGrihPLSi8ZXIYm1ZF6zVxGnp2TZlZbLEqynTnDRS7OxpHpA5pq7zIcvkj6hY9lt1/JA1F4esvVK2TnnZLm/8xPVmmdYW9er0Lju6MiPyc1CK7qC1dBUs26VyzfdbUT2KSq5gVZm6SM4rwE2lUsl7wpDm5JDWDIBf4R/EGVcmfKby9zTCBBAmQjxbhBn+NTA1yBsMhZNr5pBaRJMRf3Xf2m+RtvmQLbr1UVt449ttLN9jhYy6I5kB68kes7bh7Tby2ldt3/f/wnY+8bc28vpTZsd2qQt/WDI+oNrAWkG+1lj2eQpXjigKZM01KHUvfRk8pizD7yirZHzzNBM8O/n0TNS/w46Z2DVzJgjrfIbIns2k3Z0Of7MWtocfpi5+9Wby5dO8TX74EIf6wuRUSRmhDpz8FNk1tekZB5hklcdiwioTcEfVbu01K7xuNvyiFY88aYVDT1v1pH6PHLWmiXE/p7hQVDqYRiiMSrvkgOEJa8uWLa/0NWWK8LHqgfzMjNpEZkixGFXoagxPRW5eIbgEYkO7jHMvZsox0ZOObj5Xfp/tRLXTxjBxzLcxYO1YAEpEwtOZgHcZu2QfeXxONyI3X0GeBNL5qrYOqkzO09CfTxjkO6VtrrSWxWssW+m0sZEmKw5LVEsFa5G20lE5YR3VfssOvGHDb71oYwe2WW78uMhX0piVR86UtTA49g3lhHMxi/ivbjyn66CRliakjKJJEadcjWBUQWV8PacMTzm1nYNyA8TT/7gnw4lK7k4/mRrB8Bt6c8KeJDquYU//xugNTptwu8i8iW9Nc6UyJ1dn/jiRwpEiPEIhLrKFLxgPSU785Cf9gvgifVx53RV0j47+Q0NXGJzyzj79igixyfdVQZLJeZmcb+mbBwoKnQM2mMyRdmiFg2aHpPm/8R0rbv2qHXv+a3bylWfVmI1Ye5d6EB2Lbbyas3JLxfK5USsP7bTRA89afnC3tNAJyxWzNpxZbgs3fcCGFm+yMXXlM0291qpyayrnFCfJT6oc5guCi1ikzmJ1uIquM+OZM+EUOI4JI8YqY2kR2iWnrPMsLavgNMKEzCBMTluHMPk9G4TJonVmm5gtD3/mM2GeDRxllpClwH/kle8nlmnpFHcutow0EvYht7U0W57FeuomsqSoo3nYutTHqxRP2pGDr9uJA69boX+/yPOYZQsnJfcixqzY0r9XI6GuSPusjooIRAhMJmTzurIyQkSgeJRQdSECxYHP4ooaZErJPmnVCScV/vPI+g+PrmqZbqnOyCoqqV3DnKK0BJ7IxFr35NRP+efkmUb6nZTx/Krd1z8oLolDEg9qHFd3ojQExSaEn9zPkG4OzSBMxg2RA90v8bkLOeLk+CYRaaZStJzIO5uVkSbY1HRCfh4x699tlf0v2NiuJ2z8DWmVB1600aPbbaHavUy2aseGxq2c77XOpWss17VAMZQ/1T4bOfi8TRx4wbomDskvlXely8oLb7XWdW+3oe4Nctet+LdbK5vJmZSqfWVyPgKCO3r0qBsmaOAoMFOO4j14KhREdiWuWLHCOarezzNmydkaiapbz6wzjQz+sJ6JDexomuFvvf8N1Oq/qzpCZDfX5AEDXpbv7bGOrh6bkACfHCnaSLXVqlJ4LDso0RuTq2HLZ4esuXLcKsNv2Mjx12RetYI00KbRA5YrnRAxijxbRZxt3TaeXSSlU61rRdqONJ4qY3PSSJtVPv45CSaPyuo+ltX1KY2KTJihZ/kSkaKiQmbochCpuv4iEt7JiMizLMHx64QMmiH+U+6RqDDcS9+P30lD7TP90J3PXsvEb9wwtBDv8qpDJK/wMmoU2PftBk1V8UPvzEgwslUMDUGK3PW7KiKqqiEqKw84L9S79CRRGmdOfmRK5MWg4jSksI8nmuTYbisdedwmDn/XRvY9aUNvPiXy22KlgTetWpSbNpWVyPW48i234npbvmGz5RavVJZlfF+4jRyy0b1PWOXIy9bp55t22Eipx9rWPWS51fdaoW214s12hWb1KpRIZCf2ws4zQGholSh2HBBUUtc8NMSZIKlfSUbS8wVol7EzsR5nECaHb6Bhhif11+kCYmRRNuuamHmCtUNrbeB0eHdVJKP/yHA3dI0hCLWBui+SaO0w61poLerWVVsX2khGpFcuSJ4RND75IO1TmmS7iKqjNGK5CQnsyF4rDB60ob63bHDgoBVGj1l14qSEfUxK54i1igDyTWMSR3VrRG4ZJow4ScfH4yBF4gHZSfvMtIhw6ZLWWl+vF4qbX/mtC/Br+kcyq+zp8d9TGdJ4uoHS/F3RRRyG4feYKk6T5WlG/xNvmM4bILmZvKbeqZF3EieoX3QqDbysfKiw0kAEmRXR5XQvmylI6VRXu3hU3ep9ZkO7zE68bMX9z1jfm9+x4289Jt57xirHdlnr8DHrVR625dXotLZZfyZvfblua157q63Z9B5rW3Gb/O5RgBJywu7fZYW931Kbt8NaM0NWKHXbCVtpC+74AbMlt1upeZHKhf092WQpJ0MsZEsS7XkFuAOipDvO+CW/IUw4BvtMAVmiYTJsyIEb+DUVYZ6xcP2pp57yheu8wG/MxYw5QoxEgq9Exrqm8O9iEjgX0cT+ZATVBZk1d9JpZEfBIaeqri2J2JomVC5jIrx+O3n4LRvb/y1rOvqYTyZkRg9bR6FkXe5h4o3zgzAgDa0vu8TGW5ZYuW2ptWSWWnt+qfUsWGodi1aIiJeo698r9yLlFgl0s3zJtEsRahF15CbjgbeJSbq0NdpxDS35QJvHNnXFgTr1IkzGD6eLGp+dgbg91WM+QOb7Q32WS8DRpEe66l8SO/1hJ5o8b2JMlwN+4STcy48x3RsVWQ4fttLgfpvof9OKQ3utMnZAbc4xK4wfs1z+hJ8s1TEuU1KDUu60Sq7dBnKt1r9wsXXecqd13XS3Nbeuk5/q7pUXio/bFag0/Tf/zkZe/h3LDm211uqIHStcb6M9D9ra933GbNHNNsakkmic0++rhSYJsnLbZbmWtnkESJK14nzVNrrjcZjPTJU6iDLGL+GoBx980DVXuKqeo84gTL7tS4R4AQ8w2GdKmPhJYiDM9evX+wBtnIQ00wTOVfiZ3dLwnIKk0TnB6C4dBYbWSiKA1make9zKxWF1m5OuZm54h43vf8JOvPmyFY7vtgWVE9abkYBP9ElwE++cOLN5G6u2q9PeZuNN6nKUVL5MWmRaLdvWa63dy6x94SrL9og8F6w2axeBti5KSFTkWbI8I27yKCk3xv6S/7kmtIkuHHBbqr5hnVLEp7yZwikvT1llwe58OHkzGZd0mzTJqNn+uObGtXjGIRN9Uq7JIN2D6PUrY8qzkrTvCTVIY4MixpM23n/YJgaPWGHggFVGj1hVGnqmcNJabMRacmXLyxTVgEmftOxEm5VGO6xa6rVK1yqrLlxjPXe9zWz1zeqaL1NIXQqlx7IVNUpjYtfCIbNtf2yDO/+/1lI94MR9JHeHLbjtJ6x746f0zmKbUDvanJFAZytWKKrMcs0+XHL+jJt7OHTokB/lxmL1GHOM60y65byHQUulG87uHsYv0S7hp/MS5vPPP2+7d++eZNyLJUyAunzjjTfahg0bnDyJHP7hdwOnwPIen2WV6NH9ZNlKItqJaGDoZZZL49Yi4mwWW/BJ3BzjZCJJO7HPxve9YoN7XrCmvt3WVTpmraJHNCbvwnl+o+nJb5Gnf/xMKBerNl5ksYo0yWynuoDd1tS+1DJdy61FAt+5ZI3lekWibWid0orQPH22GBaii5zEt+Jkyje7kymienE+NUsOnO4Saxr1L4GUs8m3avcS/07lUkKYnGrZbAXFB2ekmoYlMarX5DONU7JkQM71GwN5HnvD7PBu6+87ZIN9B21iRARZOCGNkK/tjFibuubtmYo1V9V0VND4SVSTDU2oaWvulbXXhse7lQ2rbOmNb7em295p1rtGUWy1qvKtqbnNxhRseaJinayrPfmiFZ7/XRve89+tta3kC4ZOdL/bbnz/L1qx42Flr1Kkm3mO9msu2XiJ7yO1espS2TJvsH37dnv11VedQ+AreqsQJVomPDNdBCHiH5//fvTRR5374oCgcxIm4PTib3zjG24nMkFqMyU3AkSrZAyT04uZ+IkueUPDPB3+DRkJc9LRTYgISqCAuONGP+ie+dIaBBzNiPHGsqSwIqEqSbMceMsm9rxkJ3Y95xM93Zkhy5f7rbnMrghpNdJM3Wt1+UclekmlwHfph8zIy1SaWq1YVUWsiAizbZZr7bHWjl7LtS+w/PLbrNq+zJrbpCW1iTzzIlGWQLHBmSU3spebWqS5JstvfCJJZc14YGiAtdScw9Sg/nJJVTTpWSeE6NohywmqbIogL/TQZ9K56uKOOb9J5AJJMnFF19dXBsgweTUxoHakz8ojJ9TbPmkjmKE+y588aa3DykN1zXPNI9acZwJ0QEEpp9TosDAB4se7sh8E3KLnncrHbhuqqrFpX2w9a9T9Xv+AutO3SbNXQ2PS0OHmms7BQdGeXeMnrWnft+zY0//VuqpPqGRGbVwB9Gz+Kcut+RGrdN7rycqTNCaZ+Fxatl2pb/ETMZM8mXuAH2L8kLpJ3YHQ4KZXXnnFvwoBQcIrodCBc/FJPfEFeB8NlYkk+IkJH/yOdZjnJEwC5Hi3xx57zFkWhIcXQ5iQI+x9zz33TH41Mu43cAoVSQB0CZLOba3Tq1tOnV54SE+NLLFDmJQNkyCuOUkySxIuuo8n3rT+t7bYyOHt1jJ+0FoLR5I1m5yniFeqk+Vci8pBdgJi3aH6/sz1gEoT1Nwsk5dd5JdtsYokfagsYsh1Wktrh7WIRFs7RaIdC6ypRZppz1K5YysfmqgIFY3UvxgJERPPWqX2cVpPVWL3+Htqk7iF3Z/HvVp6/Uct/c4asvs30BV/aX3GR9TJC1aGSxuvjg+LIwesPC6SLAyJK4/aaL+6whNM4gyr/VBDU57Qq+O2oNpurWVljE+i6bkIk3yKaPk6U4I1pcsWSlg7bHxCediz2poXrbX2629U9/sWs+61er7IChNdlm+SWwXhyQXSFFmlUB7dZ2NP/pkN7v6K5bOv2lhOVLjselt67z+3cs97rdi83sk5T3pY26neR6GpI0WY5M/cBFwUPIGdieiDBw/6YRuQGyQZXXD4CcyEMHkHvyBfPqHDkqJzcdMZhMl2o+9973t+jW5zWtOcLiLRzJBv2rRp8sSi0DIbOAU+ZIYiQrGT2+QOXT7v9jlRyMR10uhZNiNBYnII7QuqpXM8Zk3lfj8BqXhshw3tfcaKR7ZZ58QBayudsAzfmIEIWJ5CFYBjoiZEvYuIONjIkLVSOWN5Zmn1jopQWqi63yLRqsixkuuwCWmmVZFpU2u35dq6pYXq2tKu5+3W1L3EqtnkK3zZLKcoQaJKJaaZ7YUEGIHGVZFyDYK0yw55kAc+g08ECroUxZcFNfLjVlJDXxF5VgsnrTx2yEmwMjEiPhxS13bImgrD1ibiaZXJiCxz6or7eCCZTZAiPyugXYgos/JfP330QVGFj51Ls102PNZtoxML1Y1ebb2L1lvz9beaLZY2uXiBVfI91ucnly7Qa73WyYYBKbWev+y+ahb5tQzaeP9OO/H1/9uKx19W+9JnTQuW2IL1d1v7zdIum261UnaZEyb9AGdcaegF65A3LdZcTYYb5iKC+II7IDTGLplbYewS7gC4Czfn4yfcTAXuo71yujoaJkOGMTGNn/UkfAZhsoKecUzWY0Jo3LsYDZP3STBjAuvWrbObb77ZxxouhoTnKpLdMVBe0hn3TjnFE4Xt15rdy7FmzzJmV3b9kjsJabIWctyyxT7Z0aSOmIk4B3c/Z4NHdul+v7VP9Is8hy3vxAn5oqHJB+oj/mOIiLRLtcEyzBo26R0mkyCscCMPWGokM6ZIlNU1Z1a9xMQVREts1DWfaO5S916EKbLMueGbURJ8ueNKYK5Zi/yTtZdJB57P20KSVTQJyDJIU9dKqSgrH74SSaqelSFLuWuuDorn0KYJHaMYQY6eCuVNRd10kgxIAwHx29NNfxkNVTeUL6zHLCp+Y5U2G1W3u5BdbNm2Vda16GbrXSaNcqG0ya7lZu1dYrdklHTYS4/Z7XZ1tzt8z4CHUVXeZTlx6pgN7H/JBp/4io0OHLT88h5bfNPd1rX2bmmnm61SXKpsrR3n1sQp60orr1f4NIXyaw6LTpoA4R60S8gS7ZLucnpCJoiQ35iz4WyECQ9h6P3ecsstzlWQJtepFLozCJNp+507d9rLL798GqGdKzLnAu8RISLBbh/GCNA2G4R5JpLth2iJEKa6BS5g+s8FO/JfeUZZyPCYdxLJ54vZPrrn9xnbYyIjZ9KkKhI4tksycVBRV1Pd0QN7XrP8wa3WM3rAyoUROR2xTJlvZqtCcioPA3YKA62yKAGFMMsiPcqzy9jVInIFHgkZgpOdTSoqWFlqmqNv4RNlZZptoEgXn0pIuXvEE7tIePKeNNYgSwzjumWlww+88MZDKfQ8ERXLSd6FR3nm9/0Nvaf8Kw/JqLstNxiyzL0EcQVhT7LQNUlakIriUZQ6OV5SDqqbXsx0WVPHCjf5BWtt4eqN1gRZsoIAgmWYIqsrn/sUKMeksciKqNusWf5D3FY+qbCOS4HdZ/u3f9/KO56zguLedpN6X3e8z5oWbZSGKz9ZctTMUIa67hlpzk7AOfXmW1zrlFXAMvcAN8QYJnwU2iVrxKl/KFzBKwB7mmSnwrkIE2Xu/vvv9w818hv/Q0msf++MSR/GLg8fPuxfjuSliAiRmgl4H38YIyAijBOsXLnyrAw+n5FM+qghkd2H5iYNec9dGZUDJMnEQbInWrIjNzU5dfdJGTP2w/8ivwyFr6u0phLHwOkeJnfsFasefsX6j+2T1vmmVYYPW6sItTM3KlNWHCYk3PRDJejEweNhNl6ZEK8l4zxZqTqEAykRmhOQCIB96eVy0m1HIaSWdXTqUS1+riDiLXGVv1m01FoaWRIUYcEOuVb31P9NesAPxas6UUjyKoAd53iXDHElmIy/BE1XH4skHCakROpoziVFtKRGpawMrUozrFTQ8JZarm2NNbevtZYF11vL8g1m162T3yI0acsFxaGSa5H7pR6tppJosjKebCGF8KQ9j/F5CWVSXpdsUYQ5fsyKh16znc9+3bpH37SFa9ZZ7paHLL/yfis332AssXVSZGKruSCNtuANFl1xNmh5Q6q08SG7uQj4grpVEkew/RGyhDRjvzhkCrHhLogV3gr7VDgbYcJr9HwZLgTwVJrrzkmYRAIHjF9+61vf8kjw+1wROR9INIhFoBAmi0PTiW0gIAHhgIkoERfwuNbIRFYnSozuYHxuWq9CFq5Y1t6Hg7BDDuwqdB7Sfd5RJ9a6K8dkkbbIes3+AzZweKcNHtpu48d3W1tlyDqaRq1NBJvni4cQJ8ynt6tt6nZKoie7yPIVrQ/DOB/DonQZvcF3o/9oDMZl1zP9q/1XA3bc4RVwtVnwdKjBjXf0O/2a/6AK4Q7D++EHv3keBogcXesTwZUzeZtQcko+BitPZKqK55DSOCECzeUYn1xp3b03Wc+yO8yW3CrG5xvhHfJbmrKEquB7zRPNr2KtrjuzUihDNvlBHLqqjo+R8coU8iRXktY7etL69r1urz71DVvVW7a1973DbM1muV+u/oC0UeUT2eE9h1zRilmGW/IeDoTJM1+4PkcJE55ASYtF6nTF6ZbDIaG8wU1wSGib0VU/G+qJL8LAzzvuuMPXifNpcdZigiDN+vfO6JJDmoxjsuMn9mqGijpd4B+JIDGAbvnSpUt9TSYnsAeIVJjIkPqIzh+cSnfIeYJaAeoaLvyq28hN2q3LkW6c8ill9/u1XyyzwRh7rsfUyx6w4shhKw4esOEju6x4cq+V+/ZZ89hJ66iMSL8pSHsaseY21nbyfnLxwLFDFAGf9ZZoc79WxcpSsUo1IT/VKCSeZFXuxAyvPC3xHKLNyuh3GJ7xlrtzUF/0S/WGP37nS2JuuthEA03Tx0jRTNQ+MLaaa1UXOi9tuUkaoDzMNlu+vcOKXfdYU89dtnjJautYtNqsbZG8k2pcQaNsU5LQGvVT0aXRIi/5y/Anb0iFxyvqr374sijiJjtDLWWR6djwkI2NDNqSlUvlRm+x/Erxk96eKk8sNBj4JTdKYzy71rVLeCYILi378Ax2JmI4TZ014ShwF8MJ8R5hBicx086pRJyidt999zk3RY+XOCTldWaYZ3TJAcz+0ksv+RbJdKJmAjKBd4NwGb9kcJVZqXhGxBq4ApAAoiVWqmxSKMlIfREh+lpO9pqPHDE7ud9KA4esMnDUxgeOWWHomOWzfdJkB1QBWQgunU3ak69PlL2Jxdy6+ngdGhL1xoVbQqFi9lpUq0s+Fhl2mOZsSJzI0elX70aL7Jxm5cGpySJdpWpnmAgScaNFspC91NSq7na7FXQtZdqSZVD5Lp/N7+xZZO0LFvvBzda5Xmq7SJLlUXz/vSzGrTCpJbJMeMu1XkwSNUYqm5Ju9BSoFzx+Iw9p0phvID+QfzAVQbGECLJkVhxtMu12uuAdDKQIt9Htjvx/4IEHbPXq1ZOaariP8NLlBk4jzJK0SVRUrqjBzJbjEb/Ds+mCwKkUXGk1iCwaJtskYfg00hGeaXgNXDiakml5H6KEczh+rCnL7DDjlhCnNMnCUGLGRaJD/TInbWxgvxXGdR0bstLEoDRTJo30vDxsHa1M64yIPEZlxtUTlVaquudttzoaTioUbZhAaKfcS9dRficNf3I/noU/jBPCYPzw59jF9XppkBPQWTtabbZilQmZHmmRjEkusXzHUuvsvc6yPSulRS7UM9aMSoNkzSin3jPQwUJ8joJq0n0mdoC8J7sIJhk5INCEMM+2LhKho05zpV4jjPO9fkdecMVEnsA1dI1ff/1144ANOCM0P56Tj9MF7+Avkzv4DeA5fr/vfe9zjksTZMQnfqdxGmHSdYaFCYDB1u9///seECYiPV3EuyQWRicifGCIBaIQJ7+jMkUY9ZFs4NKgCYlPERVVMSEDVWa0zqq0RT+sV8Ynf0SmrN8siBwxY4NWGOuzwugJK4wcs9L4cd9K2FQakLt+keiQXhXp+jbConVJE82oCy4xgV5UJzxk/12tqLtUsyfADZdkEohfnNMJueMD9oruo8smR9LxeQiuOZmMDed7bbRzpbV39liLNMhsc5e1tC+29m6W/0iTzC9wArVsl1gcQoQgIUrFl7WS2BkoFNmyrCp5RqxqRpHDRK7RJT8XYQY5BOI31/mI+jwJHqCrzLgl3XG64qGBl8QjuA8imw4II7gHjuH4SkjyXe96l/d00yAOIMJJlxk4jTBDA8QR45gvvviir8ecaUQBCQUkPCoHYTB2cOeddzrLc7++e1If0QZmH00lESHZzPieioaqwmHsKJ7RRabE0Appyrw5o1zYF4hhkJCZHLRRJo4ww4dVkfqtIg20KDItjQ9YqTAq4hyz4tBxXRmsL4t7S26wY/xcSPmd1JC4KnyRoh+oCyk2KZ4eV8WESRq/NosMWy3f2u47j/J8MCwvrbJthY1132itbZ2W1TPfeZSTFplTV9vXWaIxighFigxhIgWYnB8IrPR4ahUWS6p8sJJNHEQoMXKqK8MBTt8yit9ZCBMZQFCnkqH5Ws+DC9KAc+iCb9261ZU38oZ8gxvIQ37PdAiDd+E3JnUgTJY4fuQjH/F4TEWOEb/68jmNMHkYLxNBxjCffPLJSa1zJoj3Qnsk8djZU063nPEDEoG7dIWqj2gDsw+60f49c3VBIZ+CyInPu9IdRd+j5FwTFC1QMqIup5Ficdg1UDiuhcWQCdWqcJkZhoRlRyMtjok8RajMGLPPffSInoloawKQkCYLz8s2ODjg4SQQYdasfC64paXNrxkWuiuunAzPJE1WXejmDmmJfEgsLwLk+98iy2SCZ5GMutsplKWellWvvEbKDUuiCAaDol0oqQ5Wxi2fZVy2xVNLypmXIpVnyDhjtO5bEOap+ptGdCtD2EMmqO/ztZ6nCZM8YMkQ6yz37NnjyxrpMoM0L4SWOBMQBnWOMoDPWA+OdlnvJ/HC4B6Tjic4jTDTrIphszv7ygkkGD7tBpyv0OMdDInHHzKDze2cwn7rrbf6FdT73cClRZOf/cgKBrq2TIxAWczUskyGsqCjCdCkTnWZccEb3A0yVaGpRosI6LYDX7CelKerbhBqVpob46O4DQN51JYmnTK1C6/XfrpfrlHir4iHpUBcvasMjWOISRJmtdJllZJiWXsfp7UE1LrSUgoUfqlc0G8IkoM6ktRK56gZqFC/5ccpkUq84T/1i2RJ4u5NyVkIM+o1oG4jB9ybD4QZ6ZsqD0g/VxoUDtSALBm3xG1wDobuM5zB5M+FIs0lYQgP/1jW+I53vMPtuAu3XIM84514FjiNMAEOYF2ujCds27bNZ6sicaEpxswVxDedhASIDJolM+arVq2anNY/W0QbmH1UmvikhQhDdJA2qgX+l9i4E93ONLHVyocFnu4yIa3Ej6isfnFAUpiEYMCkq+QapOnjp+E7liRcvErHkeU3kDxPeZaOGYBGW+DuxCOHhy+TVC1cQnhhEh/K1iaTaILxau215DevyZKESiOShHouwpyvCFkGcAUyzW94JO5Blihm7C6kOw7gn5kiCC9AWMFnECTKGcuI2NUDb8E50+GaMzRMAiBRBExADMByqDCIDMAdAUVgM0lg+MNYAotGIU38C9avT3gDs49k8Xuqsqgm8AvCChp0PnBCOUUqk6vg/VX9p/KKayy3wWWaxHAxqeS5n4l98prSMuO5/6bb6yvBQULf0FOQZmKPNxNwJaxmP4z5bPCYJFZ/I7FXpLFG85+OX9hBzaWuqTg3CPMMBI+EPU2UyDhLfJhcZgkR3XBmsNEscTtT4Dfvw0mEx28M5IimygEbDAOiscI3uIs4XgjOcBmBADyE0Diajfv85lmQKtdYlD5dkGH4wXFyZBgzYpDlxWRWA9MDn4eFp5yrxEkMP3JUJiuLuLLkKOFKkUE5LyO9raQrhmN7SjI8YxV3oj7W6AM6QVuryAt2qWBTvdIDPuPA1j7O+mDnH6ZJbXbaqBLIg5Thd82wZ5yZ9mxVemClaM0VddkqZWtRXWyV21b51ybTzGlDTUdlpLXwRcemfhnd4+QfH0dV4pjtKSn+pKeotBWanZup/ZggyqnJUu82cF4gz2mZRu4xEBiaJV1wyBLyjOczBeGE8gZXYSI8uAouQ7Nk0nmmXHMGYUKIBICHBM5Cc5YA8RtERNKRmykIB39oZZhgYvaKFmY6jN/AzEHV9BnwmgmiOC33gzHc6D8/zUJ2jLgm/ZJzpquHarVlOBmIYzua/cpxvpMMLHfYpcv5Z3/R6erM5H25xWO8pYIHw/seUIzcuJF73/teM94KEMFzmYh8DcRfiPyYzBc3aJH4Sfy56uYkPOGJtYFJIN9wRJo7ABM8rL6BLJF9yBKZj+cXA8KCU+AR/CN8lDommeObYoArwwHT5ZrTXOM5HhBgaJEEjAobrIwbIoI7DGOPMwH+4x+Zyj7RaGlIBPcauPSg8H3fN/bU1WU/uMQdYUQUOYwqf7PqhuodyxQrGLFKRaySbNeDWHitSSSZEVlisrKrkXW/RTZhYCLecVWzZnfD89p9f0eB+NIirjJJTGXnIZBbDITqZCZDBPkyo3XLdMmwB7xN1xYZPfP94/Kj5lWSRhl5mRAkho6/NFqRJBM8EGZiauHJkNrENFAP5Dgty/AJ8yKQJGOWrLVkKRH3w12Q60wQhAu3RO8XcsZvZsThMUB4cFd9/C4Ep41hElmYN8gyGBrP2VtOq0BrEMe38wwiheSmC/wnPMIgPMCALCeHcMgw6zMbuLRoonvKIm1nMrHG5AROQkbcpmREh/6HLbEHoEXeZYIIelQXiHtVjO4GrwA5K8j7U+8G1SR2/A3qSe4B7vNtI0jSvTjNOMfiXnUpCUgmwuO9sIeHtavLiNuJTWiMSfqgdx9uwKNIQO3q2ZTcqSFiSy7oLxw0cBqQdWQ8Tk1HMaI7HsN5cA7EFUR2MSAclDyukDP8xEfN+HQuQ4sA3kmHOR1MGbu0J2GHyJjV5newMoQZZDdd4EdoqgzGAjKRD7STobFwNQ1+14dX76aB6YDiR2urqVeUqxvlK6ZGBgkxJm4SvZElOMkynOSP+0Gdp0w90s8IuUYz+sN/7iRhMJkT9iTscJ+YACVPHOPb7e6Ka3rVffoFUP970lGEULu4NSwYPfdJndPNZKrnCVkib2mZm0r+wk08C7LkiDbWWh45csSfQWzpbYlwwsUQJuGEH9gJg0/iwF1sw+ZePIO7eI59OjhjWdHZgOcvvPCCq9IESsTQLEnwdAMFkZkwPfZobSBlWgLUZzTNIOkwhBVEi517/I7nQeYNNNDA7CBkKuSN32G4F895Ftd4jlzHxC5dcbrg6XdmE+En/hMu3HT77bfbbbfddlFEnMYF+0ImwNRsaUxrf6i3F4MohCBh/GPGHE2TDGapAW4AbmiV0pkdGYEfEacGGmhg9pCWrZC9uIb8IbdBhNzDHnLMd8RZlD4wMDApy5cC+E3YDBsSDz6Hw3kVab64WFwwYaLCMmPOeklIi8FUxgdmGpl4L7r1JBTDcgMSzMr/HTt2+DpQSDMKhoLjXa7pzI/3G2iggdlFmjBBWuZDDrlHT48r3MCwGicOceoZig9KFryBuVQgLoRDHDh3l9U99FAvVqlL44K75ICMgOCefvpp75pz6tBMdvkEoiBIIGSHHf/4TcbS5WfsgYXtseecZxjigVveizHQ8KuBBhqYPSBXIGQrLWNppQViQotkrBLCROlBTkNGufJ7Jst5LgTEi4kePoHDJydYcxn3Z4sXpkWYRIbZa7Q+SJOMJAMYh5wJ0gWB4Xe0BkGgECdECTlDmiw+JfPDPQV2KTK/gQYaOB1p0kH2Qn65wg1sbWRChzFLfnMf2QxZhiuQV+yXQtOEO+AiyJKuOBovGiereiKuF4sLJsxIKJlGJLZv3+5flrwYNTsyNOzpRBEeINEAkmT8lE9bYCDueDZbmdFAAw2ciTRRBpBPDBolM+Bokxg2n9Dz4xm8EHId/BGyGrI7m4BLNmzY4HMtsSyRcIn/bClVF0yYqNGwNyxORtCKsDaTpUAsXidCtCCMaxLJYPZzddnJvHrCJHGYaI3IWEy4JSMYn0DdZslArAkNTFW4IAqq/nmE2UAD8wEhB+BcsjLVM+7xDJlmXgHD2myIknkHOAKZDbfIK+7Dv/AzSGwm4L3o1cJF+BV2tEqG71hlk04Dbi47YUYE4kqkOcWIQ4YZ24Q0eQaZEjkSgLvIwNkCfqNtstWJ7jnkiR2ihljThQQi0xpoYL4g5DQtAyEHcT99D1kG8RsEwSC/uOcKIUKMaJQoSqFRxvuXA4RF3IgP8h6TSZytu3HjRlegYogw4jWb2uwFE2Y6cyOzyTi2N/HtHxKA9keGkiAma0L7vFSAOJm5hzQhT8IMbRdEYfOb+EZliXtpd2dDuhI10MDVjqiv1PE00vU46nvcC2IJOUn7AUkyHgkx0v1mqRBrKVGSeIabtN+XGoRF2KGYEXdmw++///7JuQ0M9zGhRM0Wpk2YacLhSuQhTGbNiTAG0owlR+cio5mAMAPYyRAmhSBODKRJVx3yjszDTcQ7DIiMDHcNNDAXEPU7roD6na7/IRf1QF4hQuQaYsRAkpBlECVAi4uucBDu5QBECYEj84TLtke+/JhWzEhf8E6kMZ0XF4NpEyaIwLlHxJgd46BhThyiewxokdgbTubPJtKFjZ0CA5ExEHVom8QF4uQaanqkg2u0QtFaNdDAXEDISD3iPlfkNq7IAOOSdG8hRXqOMZkDOfEO8oEb3GLn3lRhXGpA2Mg0V8Yr2cWDbCP3xI+4pWU54khaZwMXTJggAieTMQEiSivEUiOu6a75VK3YxYCER+KjwKNAoxDjd4x1onnSIpGpjHGEPTIWP86WobOV0Q00cLmQlgMQMoNBwQgNEoKMK/IKOWJHnkO+0++C8DdIFvmebRk/F4g/ceH0IcgyDtQA3E+nPeQaM1txnJaGGZkGIkMhHewkhG1QLDWilYKUQvubTRCHyAjiFBlBWNi5R2Gmn2OiCwFRhuE+8cdtOm1pRDobaOBaAfUeEwpByEzIKUSHCdLDcJ/nITshN/iTvo+f3AMhG/H7coCw2G3IHvHozUb66Cmm5Ri3/I54zwampWECAp8qg8hQDGOZW7Zs8QJAs6PFiowlQbwbBTDTRESm4FcQXhQo99IGhHuQvh9XiDTs9Ui/20AD1xLSdZp6jNxhsKfrNfZwG88D2IMk0/dnAxFuGGQY8iYOsVww+IPeIkoOayyZEYdbAqEsgXQcI02ziWkT5tlAoshY1maxhxSDmt/R0eGZAFmSqGjJIoFXOy5FpjfQwKXEbBPbpUSQJnyAHX6AR4IzAJzCfAjLhuIw83iWxuVI96wRJojEk+hXXnnFZ8/5TWsQrUes12TsJCZirjQg8MuR2Q00cCWBLM60VzfbCIKEF6J3CCBCTAwTwBHs8EOrXLt2rbshDZGO4JywX2rMCmEyiAzrB/GQGYxjsuecMc1ISIwhkhEQ5lStxJVAZPhUuByF0EADs4lroT5DeMEXxDeIM+zBDayxZm84V9ynOSPScs0RJgmMFoNEkYDIEPacs+SI7jmDtLHYla46pHk1gHieDZejEBpoYDZxNsLk/tmeXW7AGWiRjE0yQQzgA2SR+yhXjFeyN5wlgshhvYLFPUxa27zUmBXCpBCidSDykRAAUXLcE110zsUj8WQGSxiuFg3zcmR0Aw1cDbhaCBOZo6cJB2BiORNDdkz4cPgv45XYI86QKYpZ/MYP7sE53LsccjwrhBmRJsKYSAD3AS0H3/LgMFG2S4KrZfyygQYauPwIsoMAucYEMdscMWw+CYUKLsGklbLgG96Ne9ccYQIiTQICkSgMJxxxijqf1KU1YYF7uDkb8It3w95AAw1cXTib/E7FBSAIDg0TA2kyC85idNZYMnSHW0w9r6S5BtSHcakxK4R5LtAqkEAM45fxZUi66RAo4xe0JGQcJIo7MpBrZHDY43eDOBto4OpAyORUiCWFaI+4o1eJLEN63OdKF5yPHXI0G7Ph8AUTw1crLjlhkilkFhmFgRhZVwVZssCdI6IgUjIX8qT7jhsykswDQaDcD78aaKCBK49zEWZafjEAooyJXz4lwXIhDtBA/lGEzuXf1YBLTphkAhmXJk3sZBqHdrAziCPiyEgIk+eQbD14p6FZNtDA1YVzERyKEdpiLCVkYofeJENxrKmEMBmrDE64FuT7shBmaJnxG3uYmEWHOPlwEs/J4HSrFJplaJpTEWoDDTRw+RFyPRWQV5QllCPklhUyfF6GryUwVslzZBt5hkhxg+IUkz1XIy45YU4FMjlaE+xkUoxtom1GyxSFcS20PA00MB9xLsJErpFdNEq63ZAkkzvINiTJmCbv15Pm1YzLQphpckyTIK0P11DJGb9Ey0TjPHjwoBMnz2NiCG2Ud67mFqiBBuYTzkWYQZSsp8QOUYLQPJFjiDJ4AVmHPFnMfrXiimiYgcikNMhIiBLSZO0mi91R6clk3EYBkdnc43dkOu9yjVYK9xh+4wfuAL/D1Idfj3ingQauFYSMpBH1nGdpO/UbgyyEPIXMpN2Fn/Es/S72GDaDFJntZmyS9ZRpogS4CX+nQsTlasUVJcxzgYxLf2yJK4aCoQDI1MhYCiG0VQo97qcLFIKdqgKcrwDP9ayBBq5WRB1P1/WQB+QjLSdphFuuyFQY3CJ3aH/Y8Yf7nMyObEGQGMhyyZIlfuAOYcw1XLWEmSYquupommidzKxTSMy4UWCMg1CQFA5jJlNVCO5FCwjC77ji7mzEGH400MC1gjTphT1QX9fDDbKEnCA3EGC63gfxIXMMiyFnECdLgSBIxiU5HINvaaW/rTMXcVUSZhQiBZsuXIgTrRPSRNvs6+vzrjaFDSFS0BjsFD7vTuVXvb/nIkXebaCBawlRZ6OeR/3niqxE3Y9r2j3gd8gPsgFBAuYS2NsNUYY2ycx3KCyAd0M5Sffq5gquWg0TkOkYMj0yniuFzuEdkCcG4sRAqBRujFdSYBRkfaGd73cahN9AA9cK0nU55CcMiOdcMRAiBpLDcC/co0XGYRgQIyTJN3S4xzNkC3fhVxrhz1zDVU2Y6UyPgoEsMXF4B3a6CpAlJMo5nHyxkivdByaQ0l++4xp2kA5jKvC8gQauJVC3qdP1BoQ9LQcQH1dkKnbcYZiwYV8399Aiz6Uxhn/4jbKCXDY0zMuEKNQgNRCFXP+MVhHwm+dBoNFiQphooTHuyT000DD85h38nApnu99AA1czkIU0GYYdUoxx/yDF0BjRJLFDdOl3gvTqyS9kEkCSgHdA+tlcwlWtYc4GKDgMBYqhyw5xQpbYIUx+N4ixgbkA6jgKAMQF8YXhN6QIUQYRQpzxLDAXSW42MecJMzBV60jl4ppuRRtoYK4i6jx1PUwaDaXh/Jg3hNlAA/MFaSIMpSCAcjAVGmR5YZg3hDlVhYh76S5JAw3MBwSpIgOYem2zgakxr7vkganItIEG5ipCFtIy0ZCBC4HZ/x/Wj3I366KycgAAAABJRU5ErkJggg==;" vertex="1" parent="8wE8BXooY0IBWLYI6pEC-18">
          <mxGeometry x="20.42" y="30" width="63.85" height="40" as="geometry" />
        </mxCell>
        <mxCell id="8wE8BXooY0IBWLYI6pEC-22" value="" style="shape=image;verticalLabelPosition=bottom;labelBackgroundColor=default;verticalAlign=top;aspect=fixed;imageAspect=0;image=data:image/jpeg,/9j/4AAQSkZJRgABAQAAAQABAAD/2wBDAAsJCQcJCQcJCQkJCwkJCQkJCQsJCwsMCwsLDA0QDBEODQ4MEhkSJRodJR0ZHxwpKRYlNzU2GioyPi0pMBk7IRP/2wBDAQcICAsJCxULCxUsHRkdLCwsLCwsLCwsLCwsLCwsLCwsLCwsLCwsLCwsLCwsLCwsLCwsLCwsLCwsLCwsLCwsLCz/wAARCAEOAcsDASIAAhEBAxEB/8QAHAABAQACAwEBAAAAAAAAAAAAAAEEBQMGBwII/8QAVRAAAQMDAQIHCQwHBgMHBQAAAQACAwQFIREGEhMVMUFRU9EHFBYiYXGBkZMyUlSSlJWhorHS0/AjJEJVYnLBFzM0NXWzQ4LhJjY3c7K0wkV0g6Px/8QAGgEBAAMBAQEAAAAAAAAAAAAAAAIDBAEFBv/EAC4RAQACAQIEBQIGAwEAAAAAAAABAgMEEQUSITETQVFhkRShFSIjcYHRQlJTsf/aAAwDAQACEQMRAD8A9cRMplARMplARMplARMplBFVMq5QETKmUFUVyplBVEymUFRMplARMqZQVFMq5QETKZQETKZQETKZQETKZQETKZQETKZQETKZQFFcqZQVEymUBEyplBUUymUFRTKuUBEymUEVUyrlARMplARMplARMplARMplAymURAymVFUDKZREDKZUVQTKZREFyplEQXKmVVEDKZREFymUUQXKmURAyrlRVAymURAyouOWengbvTSNZqDoCcnzDlWulvMQ8WCJz3cgL/FHoA1P0BBtsplaTh79UHxInRtPQxjBp55cq943iXMtSG68o4aQ6eho0QbrKZWl4nqT7qrGv8rz9rk4oq2+5qx5P7xv2FBusplaXvS9xe4qN8DmEpP0SjRTv2705/Tw7zRpqXsIHoczCDd5Ra2K7Ur9BK10R10JOW+sdiz2PjkaHxuDmnkc06hB95TKIgmUyiILlMoiCZTKIgZTKIgZVyoiC5TKiIGUyiILlMqKoGUyiIGUyiiC5TKIgImUygImUygImUygImUygiJlXKAorlTKCqK5UygImUygqJlMoCiuVMoCqix6qrhpY9+TLjrwbB7pxH9OlBzSSRRMdJI4NY3lLv6LUTXKonfwNDG7U/taAvI6RzAedcccNZdJBLM4spwTu6Y0HRGP6rcQU8FOwRwsDW8p6XHpcUGshtL3u4Srlc5xy5rCST/NIc+pbOGnpoBpFExuOUAbx855VzJlARMplARMplAUVymUGLNRUk+pfEN73zPFd9C1z7fW0jjLRyucOUtGHHTpafFK3aINVTXRrnCOqHBv5C8AhpPlByFtAQdCDqDkEZCxaqigqgd4FsgHiyNHjenyLWRzVdtkEU4L4CcaZGnTGftCDeoviOSOVjHxuDmuyCvvKComUygiK5UygImUygKqZVygImUygiJlXKAiZTKAiZTKAiZTKAiZTKBlMoiBlMqKoGUyiIGUyoqgmVcqIguVMoiC5UyqogZTKIguUyiiC5UyiE8upGmmdUHDU1EdNE6V/ma3XL3cwC1FNTzXKV1TUkmEO0A5BJofctHM0c/Sji+6Vu40kU8YyRyCPX7XfnkW7a1rGtYwaNaA1o6AEH0AGgAAAAaADkAHMqiIGUyiiC5TKIgZTKIgZTKIgZTKIgLimhjnY6OVurTydIPSD0rlU6UGiY6a11BZIS6B51wNAR0gcxHOt41zXta9pBDgCCOcFcNVTsqonRuweVjveu5lrrZPJDK+hnw4OdwY5g4crR5Dyj/qg3OUyoqgZUyiIGUyiIGVcqIguUyoiBlXKiILlMqKoGUyiIGUyiiC5TKIgIiiCooiCoiICKIgIiIKoiIKoiICIiCooiAtfdangafg2nx5vFxyiMZcf6elbBaScd+XRkXLHCQHAe9Z4zvp0CDOt1N3vTs3h+lkPCSdIJ5B6BhZyiIKiiqAiKIKiiqAiIgIoiCooqgIiiAVqLrAWGKsjw5rmteRzEHVrj9i2645omzxSxO5HtLfMeYoPmnmbPDFKP2xkdDucLnWns8jv1inccsdvgdB13XfStugIiICIiAqoiCooiAiIgqKKoCIogqKIgqIiAoqiCIqiAiIgiKogiIiAiqiAiqiAiLFnr6ODVrn7zxysj8Z3p5kGUi07rvUSEtp6bU+Xee7TzN0H0qcLtDJlsZYD/BG3/1nVBuCQ0Fx5ACT5gNVprQDJUVk7vdaAel7i539FSNodCDroQQf7nkI06FkWqCaCOoErHMLpQWh3O0MHIg2KIqgiqIgKKogiqIgIiIIiqIIqiICiqIIiIg0YfHSXWcvcGxu3i8+R7d7m8qzH3agZhpkf/Kwget2i+57dBUTmaR0mWtAa3QDGo5dNV9st9BHyQMJ6X6vP1kGI69QDkgkPnc0dqnHcWP1d+eh7fowtk2GBuGxRDyBjR/RUxRdWz4rexBr23ikOm8yZvoa77CsmOvoJMCdoPQ/Vn0uwuR1JRv91BET/KB9ixZLVRP1LQ+M6/sOJHqdqgz2kOGrSCOYggg+pVaU264U2rqWbUa67oO6fUcFfUd0nidwdZEdRglrd13pacepBuEXHDNDO0Pie1w59OUeQhciAiIgKoiAoqiCIqiAiIgIiiAqoiCoiIIqoiAiIgIiIC+JZI4WOkkcGsaMk/YEkkZGx8jyGsYNXE83mWk/WLrUc7KaN3nDR0fzH6PtD6kq66ve6GkaWR/tHUggHne4cnmCyae0U0e66f8ATP5dDiMH+Xn9Kz4YYoGNjiaGsHMOnpJXIg+WMYwbrGtY0cgaAB6gvpEQEREBVREFRRVAUVUQVFFUBERARREFRRVARFEBERBUURAREQEREBccsMM7d2VjXDyjXTzFciINLNQVVI4z0b3loyWjLwOjoIWXRXFlRuxygMm5h+y/+XsWetbXW4S6zQDdmHjEDAfpzjyoNki1lvrzLpTz4mbhpcNC/TlB/i6Vs0BVRVARFEFUREFREQERRBUURBUREBFEQEREFURRzmta5x5GguPmA1Qae6SyTTRUUOXFzN8A8rnZAPmGVs6eCOmhjhYMNyTplzjkk+dau2NNRU1NW/JaSG/zSZJ9A0C3SAiIgqKIgqiIgKqIgqKIgqKIgqKIgqKIgqKIgqKIgqKIgIiIKiiICIiAiIgKqIgqiIg1Vyoz/i4MSMIdJu8uOR483OsuhqhVQtcSOEbo2QDkJ6R5Csk5BHLrjRaTNurxpinl9W4449RQbxVRVARFEFRREFREQEREEVURBUUWuq7pDBrHDpJLru8+413RjlPmQbBzmtaXOcGtHKSQB6ysKW60Ueoa50hHVjxfjHCwW0VyriJKp5jYchr8nT+GMYCz4bbQxaHg+Ed76Xxj6jj6EGGbvPIdIKbX47z9QaJ33e3e5p8f+Uf/AJFbgBrRoAAPIAPsVQabvq+t91T6/wD4+wr4luVaY5Y5qYN32OZvbsjNN7GuVvFCAeUajy5+1Br7QAKVzh+3M8+oALYqNaxo0a0NGTo0ADU8+FUHz0eULgqqujoonT1c8cMTeV0rg0EjmHOSuSaSOGKaaR2kcUb5HnoYwFx0Xlb33ba67iNjtGHefHvAmKjpQdA7d9+ebp9Coy5eTaIjeZepw7h31c2ve3LSvWZd1dtrs01xDZal4H7UdO8tPmJ0Xz4bbOe+rPkzu1cUGw1gYwCY1U79BvPdM5up8jWYC5fAnZjqaj5TKq/1/Ztn8Hido55+Dw22b99WfJndq2tBebTcw7vKqjkc33UeWyN87HaFal2xOzRBAjqmnmcKmTUetdUvlhrdnZqetpKiU0/CBsNRkTU8nKGSEcrejpzquTky4/zXiJj2W4tHw3Wz4Wntat57c220vSayrgoaaerqC4QwM4STcbvO01DcALQ+G+znvqz5M7tWPLdeONj7jUvDW1Dad0NU0cjZmPYDp5Dgjzrr+ydltl4Nz79ZI4U5p+D3JHRgb7ST7lMma02rXH5o6Thunrgy5dZv+Sdp22dp8Ntm/fVnyZ3anhts376s+TO7VfAnZfqaj5RIodidmNDpDUa6fCJFL9f2Q34P6X+zbW68Wq6Nc6iqGyFvu2EFsjPOx2Vnryatgn2Yv0fe873cA6CWN5Oj5KaTRro5AMHGoPoK9XYdWtJ52gn0hTw5JvvFo2mGTiehppZpkw23peN437rn6PStDWbWWCiq3Ucssrnxv4OaSKMvhif0PcOjn0TaW9C0UGkLh39VaxUrRlzOZ0pH8PN5SF0KisNxuFrr7pGCWQE8Aw5dVNYdZntPLoM6dOhUM2a1bRWkby18M4XizYp1Grty0npHvL1pj2SNY9jmuY8BzSDqHNOQQV9dK6RsXexIziiod48QMlE5xy6HlMf/AC83kP8ACu6ySRxRSzSO3Y4mPkkdzBrAXEq7Hki9eaHl63R30mecNv494cVVV0lHE6eqmjhibkvlcGg+QdJWiftps0xxDZqmQa6b0dO8t9BOi6ZJLdtr7w2NhLIzvPha/MVFStIG8W87jjXynTkC7bBsPYGMa2oNXPLjee6ZzAT5Gsxos8ZcmSZ8OOkecvZtw7RaKlY11pm89eWvlHu5fDbZv31Z8md2oNttnHOYxgrnPke2ONrKV5c97joGtGvKngTsvp/c1HyiVZFHsps/Q1MNXBBLw8GvBOllfIGkjTeDXY18qnHj+cwz3nhEVnki+/8ADmum0Fqs74I601AdNE+VvBwl/itIadSDyrZU08dTBT1EevBzxxzR7w0O69ocNR6V0Hugf4y2eSiqP9xq7pZv8ps3+n0n+01dpe1slqT2hVqtFjxaLDqK781pnf0bBEQ860PGQkAEkgAAkk4AA5zqtDU7W7N0shiNW6Z7SQ7vWN0rQRzb48X6V13bO9VMlTxLSGQsYGCqbDqX1E0mhbBjmA0JHPr5Fk2vYam4GOS7STPme0EwU73RxQ65DdQNSRyFZb5bzblxw+gw8O0+HBXUa60xzdqx3n3bLw22b99WfJndqHbbZvmdWfJndqvgTsx1FT8olUOxOy5BBgqSCNCO+Jcp+v7O78H9L/Zsae92+poBcohUd7vcWQh8JbJMQdNY2HOiyaKupq5rnw7w3C0Oa8aOG8NQfTzL5lt8ElLHSxl0LIQwQGMD9GGjd00PKNMHzr5oLfFQNc1j3OLtwe5DWNYwENjYxuAAr4i28ejyb+BNbTXeJ36fs2CIimyCIiAtddoRJTcJpmE6n+R2HLYr4lZwkUsePHjc31jRBwUEzp6WFzjq9o3H+VzcErLWnsrzpVRH9lzH+l2rT9i3CAiKIKoqogqIiAoqiCIi1Vzqnato4dTJIWtk3eUl3JGD5ef/AKoOKrrZqqQUtGCQToXNwX9J15m9P51zKO3Q0u692kk+mXkYb5Gg/avuio2UkfMZX5kd/wDEeRZiCIiqCIiICIiAiqiDV39kj7NeGR677qOXdA5dANTouo7ASQNqbuw6cNJDTPj6eCaSHAHz5Xf3ND2vY5oLXNLXBw1BBGhBXmN1tF22brxX0HCmlbI59PPGC8wh3LDO0D3PNyZHmWTPE1vXJ5Q+k4TamfT5dDNtrX2mPeY8nqHpTQ9K6DB3QXBgE9vY+QAAup52tYT07rwSPWuX+0GD92v+Ux9in9TjnzZLcC11Z28P7x/bvH9F17bF8LbDWNk03pHwMhB6zfDvsBWnPdBh0O7bXa829VRgenC0M1VtBtdWRRxRhzY9REIge86VruWR73YJ+nmwq8metqzWnWZbtBwbUYc1c2pjkrWd5mZjy6s6zNk8FNr3H3DpgGdG81kQdp6VmbBcIW7QcGWh/wCq7hdloduO01AW3uFtp7TsnX0UJJbFSHfecGSVz2lzz5zlarufkb180IPjUnIQf2Cqq0mmSlZ9Jbc2prqdFqs1e03jb7Pq4bVbT2qodS1luoGvGpjkaZzFMz30bifWFhnb28aEChoejX9Ocnp0XeblbKG6076ariD2nLHDD438z2HpXnFZRXnZOtbOwtfTOIDJXNDoJma6iKcHkPMPyFLLGWk783RDhluH6unJbFHiekzMRP7Pu12y77R3RtfWsl724aOeqnmjMbZGxlrmQwsPMcDyDXlJXpc89PSU81RM5scEEbpJHHkaxo1//i1Vkv8AbbzEBE5sdVGBwtM9w32n3zOlq6vtpfBNJxRSvDooXtdV8GQ50s+viQgDl05x0+ZTia4sc2id92TLj1HE9ZXTXpyRXy9IaiWSq2pvRdI8QwP9057mtbRUDHAaEnxd466Dyu8i9Lp5rNSwQ00FVRMhhjbHG0TwgBrRoBpqtTs7s7BR2qaOtha+ouTCa1rwDuxuGjYNf4R9OpWkf3P5y93B3KER7zuDDqYucGa4Dna8qjSuSkc3LvMr9Xm0Wrv4E5OSmPpG0b7+stXf6SO03Vlba6qLgpZe+qYwSMeaaduXsLWn3J11HkcRzLuDrk29bL3Sog8WZ1BVRzxg+NHM2M77OzyFaIdz+rH/ANUg9FMe1au0182zd3qKWt0bTveaauY4+IGg6MqGg839Hfwqus3x2nmrtEt+amDXYK+Bk58mLr22mY9Gy2BkhbWXZh04aSnpnx9JjY57XaekhehheX3S03HZ+uZcraXuow8zU08I4TgQ4ZjlA18Ujn5COgrZQd0AhgFRQMfKMOdBUNawkc+68E6qzDkrijkv02YeJ8Py8QyfWaT80WjrHnE+jv6Lov8AaDTfu1/ymPsX0zb5sr44YLTLJPM4RwxtqYy573HQAYV3j4/V5M8E10RvOP8A8/th90D/ABlt/wDsp/8Acau6Wb/KbN/p9GP/ANTV0nbxznVVoLwGF1FMCCeR2+0kA+RclFtzBSUtHS8Xvd3tTwwb3fMY3jGwN1AI8iorkrTNabT0ezm0ebVcNwVwV3mN3oXqT1Lov9oNP+7X/KY+xQ90KmAJNtfoOX9Zj7Fo8fH6vH/A9f8A85+Y/t1u9sqG7QXRoduzvuA4JznboaXhhY7f5gMZWz4g2/5pJtMn/Mjrr5Vn36y195pKa9wUboaySAGpot4OldEDqxwI0BeByjy+RYFs20uFvjZS1sHfPAgMaZHmGqa0YAeHjQ+pYZrWt559437TD6quozZtLT6StbWp0tE9Z/jr2OIe6B1k3zkexfcez23kkkUctTPFE97Wyyi4OeY4yfGcGjJPQs/+0GD92P8AlMfYh7oVOPdW1wHOTUxjT6FPlwx/lLLa/FZiY+np8R/bucELaeGGBhe5sUbWNMji55DRpq5xyT0rmA51rLLc5rtRsrX0jqWOVzu92vfvukiGBJgDQHmWzC9GJ3iNuz4rLS1LzW/eO6oiLqsREQE/6IiDTWvxaytZzaO+q/8A6rcrUTW6qikfUUsri4uc8jkeN7mHMvqmuZ3uBrG7jwdN8DQf8zeZBtUQaHQgjQ5GmQUQEVUQVERAREQcNRM2nhllP7DSQOl3IAtZaoHSPlrJsuLnNjJ53H3bv6D0r6vMztyngbyucZHDp08Vo9f2LY08QghiiHIxjWnynnKDmREQEUVQRERBVERBVFVEBQgEEEAgjQg6EEeUFVM/kINdJZbFK4vkttG5xySYWa/QvniHZ7910fsmrZ/nkKfnkKhyV9IaI1WeI2i8/MtZxDs9+7KLUZH6FvNlZ0UUMDBHDGyNg5GxtDWj0ALk/PIUz5fUuxWK9oQvny5Ol7TP7zMuKeGGojkgnjbJFI3dfHINWPaeYhcVJb7fQ8J3pSw0/CFu/wAC0N3t3A10WVofL6imfyCu7R32Qi94rNYmYifLfoq4pqeCpjfDPFHLE8aPZI0Oa7zgrl/PIn55CuuRMxO8NfFZrJBIyaC30scrNdyRkYa4a9BCNstjbKJxbqQTCThRIIm73Ca729r065Ww9fqKnr9RUeWvbZb9Rm3355+ZVVT88ifnkUlKcywqi1WiskMtVQ000haGF8sYc4tHNqVnej6Cp6/UUmInpKVL2xzvSZifhxRwQwxshija2FjAxkbQNwNA0A0WJJZbFK8vkt1G955SYma/Qtj6/UVOjl9S5MRMbTCVMuSkzNLTG/vLW8Q7Pfuuj9k1fcNnstNKyant9LFKwksfHE0OaSNDoVsPzyFT1+pR5a+kJzqc9o2tefmWNU0VDWta2rpoZmtOrRMwOAPSNVjcQ7Pfuuj9i1bL1+pPR9BXZrWe8OU1GakbVtMR7TMNbxBs9+66L2LUFi2faQ5tsog5pDmngWYIOoK2WfyCmfyCuclfSEp1WeenPPzKaYwAsWottsqyDU0dPMffSxtLvXpqsv1+op6PoKlMRPSVNb2pO9Z2lreINnv3XRexahsGz2hHFdFydS1bLP5BTP5BUeSvpC/6vP8A7z8y+I2NjaxjGhrGNDWtA0AAGgAC+wmfL6ir0KbMKqIgqKIgIiIBWLV0UNU07w3ZAPFeOXX+LyLKVQaSlqpqGbvSq14PXRrj+xrzg+9W69WViV9I2qhOgHCsBMZ5z0t9Kx7VUuew08n95EPF15d3k09CDaIiiCoiICIog01X+lutLGeRhgHq1kK3K0suL1ET0s/2tFukFREQRERAREQEREBERBj1dMyrpp6aR87GTsMbnU8r4ZmtPKWSRkOB9K0XgbaPh20Hz1cPxF2VEHW/A60fD9oPnq4/iJ4HWj4ftB89XH8RdkRB1vwOtHw7aD56uP4ieB1o+HbQfPVx/EXZEQdb8DrR8O2g+erj+IngdaPh+0Hz1cfxF2REHW/A60fD9oPnq4/iJ4HWj4dtB89XH8RdkT88hQdc8DrR8P2g+erj+Ip4HWj4dtB89XH8Rdk1RB1vwOtHw/aD56uP4ivgdaPh+0Hz1cfxF2NNR0hB1zwOtHw/aD56uP4ieB1o+H7QfPVx/EXY0Qdb8DrR8O2g+erj+IngdaPh20Hz1cfxF2REHW/A60fD9oPnq4/iK+B1o+H7QfPVx/EXY0Qdb8DrR8O2g+erj+IngdaPh20Hz1cfxF2REHW/A60fD9oPnq4/iJ4HWj4ftB89XH8RdkRB1vwOtHw7aD56uP4ieB1o+H7QfPVx/EXZEQdb8DrR8P2g+erj+IngdaPh+0Hz1cfxF2REHW/A60af47aD56uP4i2lrtVLaY5o6eatlbNIJHGuq56p4Ibu+K6ZxIC2CICIiAiIgIiICqiqCLSVQ7zuEM7cMkIc7mGhw4H7Vu1rLywOp4n87ZN30PaexBswddDzHkRcNK8yU1M88rooyfOWhcyCoiIIiqINLcf0NdST8gO44k8niOzlbn0rX3WHhabfA1MLt7/kOCPsXLQT8PTRnXx4/wBHJ06txqfRlBloqiCIiICIiAiIgIiICIiAiIgIiICIiDpW3+1k2zVvp46Ex8Z3Bz2U7nta4QQxgb8paTy5AbqNOXo0PTrVsdt3f7dDe59pKmnqatnD0cU81S9z2Efo3vkY/RodzaNOObmWP3X3ON+tDdfEFnY5o5t51ROCfoC9jtrYY7fbI4tBEyipWxgczRGAEHl+wW19+F5fszfZpKh7n1EFPJUEPqIKqn3i6J8muWkB3LrkAc+OG3Xm+yd02W3SXOvfQtvF0jFK6eQwBjIZy1ojJ3dBjTHMvWRR0LZeHbS07Z990nCiGMSbzgQXb4Gup1OuedeL2v8A8Wpv9au/+xUIPcF573Q9tKjZ9tPbLXuNudVEZpZ3NDu9adzi0bgON9xB5eQDk8YEehLwbbXSXujGObR0Pfdij0doQInRU5cNPSfWg3lJsFt3c6WKvuG01TTVs7BMKeR9TI9m8CQJXtkaA7pAB0Xzs3tdtNYtoRsxtRM6ojdUso2zzuL5YJpSOCkErsujfqOXkDgcbpa71708q8I7qobHtXC+HEpttFI8tw7hRJK0HHPoGoO0d1e7Xi2HZni6vrKTh23Thu9ZpIuE3DT7u9uEcmp08679Y5JprLYJZpHSSy2q3ySyPJLpJHU7HOc4nnJ1JXmfdk1/7I68u5dtfXSL0vZ7/INm/wDR7Z/7aNB5j3SbzfbftPbqahuVdS08luonvip55I43OdUTtLi1p01IAB8y2vdWud2tsOzjrfXVdIZpbi2bvaV8XCBoh0D90jXTU6eddb7qmh2ttWnNbKDXTm/Wqgrc92T/AA+y/wD51y/9MCDCo9ne6zW26hulJtLM8VdJDVwwuuNUyQxyxiRrSSNzXkGmunlWfsbt1ejdm7ObTampfM6lgqJWNjmjqW6t4CcNGh3iNAekjlBx3vZX/uzst/ots/8AbsXj+2wEPdEc+mxN33ZZCGYIn4OEjTTnOD6UHvSKdpVQEREBERAREQEREBERAREQERVBFr7uf1QDnMzAPU4rYLUXqQltPC3LnOdJoOkeI3A6SUGdQa95UevVN+xZK+ImcHFFHrhjGMH/ACjRfaAiqICZREHyQHAtIBBGhB5CDhaONzrZWOY8nveTn5tzmd5xyFb7KxaykbVRFuBI3xo3dDug+QoMkEEAgggjUEdCq0tFWPpn96VWrQ06Nc79jm0Pk8q3Oo0B1GnKgqKKoIqoqgKKqIKoqogIiIKiIgKKqICqiqDzvumbMVt5oKS42+B01ZbeFEsEQJkmpZPGPBgcpac6aanU9Gh0Vk7qFPabNT26426rluFuiFJEWOaxszYvFZw3CeO1wGHYdyc2ug9hyuB1LSPfwj6aB0muu++JhcNOgkaoPI9gqHae9bQP2kuD6yO3xy1NWA90ogqKioa5oZCx59w3eJ1GMAc+OvVl1Fi7oV2uzqZ9Q2ju9yfwIcYjJwgliGji13Jva8n2r9B6ADk5MAD+i+dyPJ3Gak58UZKDyr+2KPm2dn15v14cvydcvdK2Tr7maTaC1Qummhp2w18EI1mdG0l8c0bQNSRqQ7nw3QYOnqBjiI04Nmf4R2K5QeV0Pdbo4qJsd0tlWbnCwRy8AY2xTSs0aXOEmjm651Gh0Wmsdove3O1PhFcqR8FqbUQ1Ly9pEUkcAaIaWHfHjA6APIHScEjX2h1JRyPEklNA545HPijLh5iQuYAAAAAAYAGAPQg6J3SNmq6/2uknoI3S1trlnkbA3QOmgmDBIGa8rhutIHQCOXQHrlg7ptLZ7ZSWm822uFVbYGUjTCGAvZE0MjEjJi1wIGgPLyL19cElLSTODpqaCRwOodJExxHmLgUHidLR3ruibVw3eSikprPDJTCR794xMpKd28IWSEDee/Ougxva8gW87sYJg2XABP6a5a6AnTxYdF6q1rGNDWNDWjka0AAeYBC1p03mtOnJqAftQeNW7uoT0NpttrpLC+WqoqGlo4pZKhzmPdFG2LedFHGHZ05N70q7I7LbR33aFm0+0MEsUEdSK/WpYYpaqpYf0TWRO8YRtIByANGgDXXVvse5GM7jNf5QvrKB0dKK5UQVERAUVUQEREBVRVAREQRVRVARFCgEgAkkAAEknAAHOSVpINa+4umIPAw6PGuuAMMH9V93GrdM7vOm1e5zt15bzkZ3B5uU+ZZ9HTNpYWxjLz48rvfPIzp5ByBBkqoiAiIgZTKIgZTKIgxKuiiqm58WQDxX6fQVrY6ittzuCqGl8WujejT+An7FvV8PjjlaWSMa9p5nDUfSg44KmnqBvRPBxq4HD2+ccq5lqZrSWnfpZHNcDqGOJ0Hka4ZXH33d6U6TxGRo5C5uo+O1BukWrjvNM73cT2/ylrx/RZAudvP/ABiP5mP/AKBBm5UysTjK39ePiP8AupxlbuvHxJPuoMzKixOMrd14+JJ91OMrd14+JJ91BlosTjK3dePiSfdTjK3dePiSfdQZiixOMrd14+JJ91OMrd14+JJ91BlosTjK3dePiSfdU4yt3Xj4kn3UGYrlYXGVu68fEk+6rxlb+vHxJOxBmZTKw+Mrf14+JJ2Jxlb+vHxJOxBmZTKw+Mrf14+JJ2Jxlbuu+pJ2IMzKZWHxnbuu+o/sTjO3dd9R/YgzMosPjO3dd9R/Ypxnbuu+o/sQZqLC4zt3XfUf2Jxnbuu+o/sQZqLC4zt3XfUf2Jxnbuu+o/sQZqLC4zt/XfUf2Jxnb+u+o/sQZiLD4zt/XfUf2Jxnb+tPxH9iDNymVhcZ2/rT7OT7qcaW/rT7OT7qDMymVh8aW/rT7OT7qcaW/rT7OTsQZiLD4zt3Wn2cnYnGdu60+zk7EGYiw+M7d1p9nJ2Jxnb+tPs39iDMRYXGdv6x3xH9icaW/rHfEd2IM1Frn3eibruiZ3maAPW4rGN2qp/FpafPJqAZT9GjfWg3Ej442l8j2taOUuIAWnqbhLUPFNRNed7Bdpo5wPMNcgeUo2319U8SVcpY3oJDn+YAeKFtIKanpmhkLN3pPK53nJQY9DQMpRvu0dUOGjnDXRo963Xm/Pmz8oiBlMoiBlMoiAiZTKAiZTKAmUymUBTKuUyg4H01LJrvwxnXn3Rr6xlcJtduP/BI8z3j+qzMplBhcVW7q3e0k7U4qt3Vu9pJ2rOyplBhcVW7q3e0k7VOKrd1bvaSdqz8qZQYXFVu6t3tJO1Tiq3dW72knas7KZQYXFVu6t3tJO1OK7d1TvaS/eWdlMoMHiu3dU72kv3k4rt3VO9pL95Z2VMoMLiu3dU72kv3k4rt3VO9pL95ZuVcoMLiu3dUfaS/eTiu3dUfaS/eWblMoMLiu3dUfaS/eTiu3dUfaS/eWblMoMLiu3dSfaS/eTiu3dSfaS/eWblMoMLiu3dSfaS/eTiu3dSfaS/eWblMoMLiu3dSfaSdqcV27qT7STtWblMoMLiu3dSfaSdqcV27qT7STtWblMoMLiy3dT9d/anFlu6n67+1ZuUygwuLLd1P139qcWW7qfrv7VmZTKDD4st3U/Xk7VeLLd1H15O1ZmUygw+LLd1H15O1OLLd1H15O1ZeUygw+LLd1A+PJ2pxZbuoHx5O1ZmUygw+LLd1A+PJ2pxZbuoHx5O1ZmVcoMLiy3dQPjydqcWW7qB8Z/as3KZQYzaGhZppTRajnc0OPrdlc4AGgaAAOQAYVymUFRMplARMplARMplARMplAREQEREBERAREQRVEQFFUQFFUQRFVEFREQFFUQRVEQEREBERAREQEREBERAREQEREBRVEBERAUVRBEVRBFURAREQRVRVAREQEREBERAREQf/2Q==;" vertex="1" parent="8wE8BXooY0IBWLYI6pEC-18">
          <mxGeometry x="50.00000000000002" y="130" width="85" height="50" as="geometry" />
        </mxCell>
        <mxCell id="8wE8BXooY0IBWLYI6pEC-28" value="" style="shape=image;verticalLabelPosition=bottom;labelBackgroundColor=default;verticalAlign=top;aspect=fixed;imageAspect=0;image=data:image/png,iVBORw0KGgoAAAANSUhEUgAAASkAAADgCAYAAABfCZBKAAAAAXNSR0IArs4c6QAAAARnQU1BAACxjwv8YQUAAAAJcEhZcwAADsMAAA7DAcdvqGQAAM8pSURBVHhe7P0HvBzHeSWKn+nuyXMzLnImSIIECBLMQYwSKYmmZOVg2bJkOayldfp77f+z97dP8nrX3n32rv28ttdRlmxFyxJFZYpiEEkxZyIQOYeb7+SZDjPvnK9ngAsSpEyvREHgfEDd7ulQVV311anzVUy0Wq02etKTnvTkFBWnc+xJT3rSk1NSeiDVk5705JSWHkj1pCc9OaWlB1I96UlPTmnpgVRPetKTU1p6INWTnvTklJYeSPWkJz05paUHUj3pSU9OaemBVE960pNTWnog1ZOe9OSUlh5I9aQnPTmlpQdSPelJT05p6YFUT3rSk1NaeiDVk5705JSWHkj1pCc9OaWlB1I96UlPTmnpLXrXkx+KJBKJztkPRtrtnpq+WqXHpHryA5cfNED15NUtPZDqSU96ckpLz9zryQ9cXopJUd9e1HRzHOdF3+2Ze69e6YFUT3rSk1NaeiDVk1dUXopl9dhST04mPZDqyQ9cfhhg02uMf/VKD6ROc0mA2dsOOz8c/nLRYoFv8acyPuKJir/DP3ZsR0i0W3av6SahN106r3NUTwuVBkEQwHE9OvlHf/hCxHvtzrmO8iOk/z49aQbx0ecF3w9QrzcQhgE8z0Uum0U+l0EiqiHttZHN55FkYHpffxQ3ha/4tRiIl2gjxYv2FRZX3uG36WHeOt4bZB7o2EZLwMlnFFd9e8JxwKDsW+3BBP2h07n+xZJgeigicvS186gCaLvdZ3ryw5YeSJ3mkhB0tP3ODwGKgMcxQJFTuVOhljMgYqF1W6EV5lknZSCl63LtwEeKBT3tuASYiAWf4ENPnIyHFj0oNoDD4zMYm5pFudbEdLGCqVIFxaqPetCGz4dCvtMgSFWrNYKVjyRBqq+Qo8vCaY4j5zXR1z+AXK6AbDaHoYFBzBsawWBfDqND/RjMJZBWPImukV9DxmPABNM2Qcfl1wpI9Q0WOSGlROcE5rbL8Hn0CbIC6pye5znRkR9Bl+B3M1V4l3f0rvxM8X26kD4rseSEWalesXmlpAdSp7kYkzI4YsFi6YrEJngupzsqoyy7BlIJ0hQnIkMiHSGeIWg1rJy7TpJ3k/ztEgwISPw1VSdA8d7hGeDZXWN4avtuHJqYRjUIERB86o0GipWagZVPxEsks3DTOWNZipWYjEEIASUKCQ6RT2ZTJRg2RXxM0sk0Bvr6MDzQh0LaQ9ZLYKQvi3PPWImLN5yFJaN8Rs/RCZxaZGspfkiWP/TbIcIGfgMtMjaXYOglPSNEIdkiGH5KABQxFvbxZFsEKoEUz3ghFsGUw5cSLcJ0N9H4fI9JvXLSA6nTXJS5bbGI+Gf8Oz41kAhpfqXIRnRurIssqk3kcmT6OGJgNH7IgIJEFmXfxcHpBvZP1vD07qN4ZvcRPL3zECbqLNrZPrKUJGqNJk3ANjwin5NMEexSZC2uAZVZVgQxC1nIqECFSLLh5Gjj0Xo0k03XFY926BN8GkjQDeXTmD+YJ4tqwAnqWDgyiLVrVuGK9atx7ophzOsjSPFVvmIA1Uf0Siko+hczSoUtEBILJGNEgb8VIG/RiQ2KQcZppL9iVG3DMKWQ07VhdZWnPXllpAdSp7movUZkoZvJKlsqdPGduAAe/6X2JBZPOnIqNFgSBRokTdi+v4rvPb4F9z+xBVv2jqHh0FjKDSJK5gheIWpNAgAfdnNZPh0gEq2xhioikwUuMGBouRwjIDQgaOgGAVSA5vJas87fTT4f8F1FLJWEk/KQ5qutZhVho2TgJCO0QMpEckXgCJBmWMvnz8PlF1+Iqy+/AGctOs6uEgQsj14m4dOfFtmUgmVciWTtKI+Epyd5iQlj7VVKq056yXVShdERwsagJaPSacujnrwS0gOp01y6INUVFTZHlMboCosfgSSgCgSyg1SCefCJH1XixMES8OTWvfjuA4/iiS27MFkN4eSHke4fxUS5TuaRhJvJwCOYCGwimopqDHfURkSP4hDIQQheamR3efQbhDzZmHaXsROTUnx4dLMDhAOaZAGRJWIkOq3gLo8RwSmZiJBJEiIMZMiueHSdNtI0Qf1qDdXiDAZzGVx6/jl47VWX4qJ1C7CAZKlAtEoyCEdtagTQrOiVmGI7Q6fWNsWk47oA1QGrWASoTBAeZQrScGQc+G5PXhHpgdRpL2RGLOQxIyATMJtL57xCZhOprYnnTV4RYxovAs/tOoLn9h7BNx/aiiOlAKV6gFYyD4fMqd5yyXhY2IeGSZIiRL5AhyZe26ffdDIVMY8+kWnJzGRQLT4XhgSWKCQOEtgccRHGSSAkwGKc2nQBbbSWJ1ORwEGAUI+crgsYHIIRvbNnI7KgKGJYfN8j8BEXkUnlMNSXR9uvoTY7jkEC0Zol83DVBWtx1ca1WDXfxTziCskUnKiJDIHLpYfdBnLrwZN0SoMOx4CK4bTIxNrWjSBWxW/ogdQrJj2QOs0l7qZvEkwacMV4WOqU5e1khpaVg9BxUeNz41Vg894SHnlmB57YvA17D02gESWRSPchclKok3EEXhahmyZ4qFCb5xSyjJbargKCTwtJl8U+YDhqZCegWBnnHwGTRxfJlFPDtcw93nd4U+ae+cTnIgGbfKOZGDKe4jBtgZacEE8+JlNkffwtU1KMS9eOgWACWQFdVIcX1JBPNLFkKIPL15+BG6+6COeuypkpqLarDNPGA01I9V0SpEgE4SXSjO+c7+u4thPwUtyexRgTt+RDT14J6YHUaS4J1f4B6RFBSk1Eatx20nn4DkGKZhKxCU/sKOOuRzfjkS17sX+6TrbEQkhgSpOxhASVyE0hTObItMS6WKBTWQJCV214JDjxQuzaNPeCKk0zmmIEHIGTegsFTAkDJwKDgIjn6tWz+45j467Qpr8ECdqG1osYJQiM5lwyLJlmYjuy3ficgFJx8AgWCb7bKBtIIaW4Mz4EKJcmYgYNZBnzftfHinl9uObi83DNpRuxdBTIuwEGEuNmvkVBi8CV5hcy/IhhKCyarSYCKvkpE9HGUsXjzXryykgPpE5zMZAKKwiaDRsGUJO5RoAijOBwqY2v3PkgNu0bx+Z9E5hqEEPSAwSyFJp+hHyKrCkkG1LrOV2TdpVMLZZgll8aPSy4HkFJPW9O1GBRZ0HntazXQCHnYHhoAKMjw5g3PIC+PBlM0sPw4ACyabEVkSkxExpRYYRavQG/7hBLEyiWKxifnsWRiWmMzZQxVW3QHE2hlaI5l+kjwKYRNgh4wsVcgd9HkCL4udmM+dciIKuXkjYo8sSZqF5EqzqDwXQC/WRZKxfOw03XXY3rL1uM4fRRpAmEOfqZ1lADv40szw0EjwERI9thVF13vL2qJz9s6YHUaS4y96anj6B/aBj10EEpIhPKerjnyaP45299F8/sPopqgiyJLnCzCFhA1apk/fFNqkaeIEAQQr0Mj+8N5T20/TLZEp2OzQoLeERmMoR1Z63B2jNWYvnSYeQyCeRyaeQzaeTSnpmB/C+fkVIjOo9SPDlhTT0ISVYYNxIVn5hTbQaoNHyUCEY14s3m3Qfw1Nbd2LTrIGYaLaT7hmmyZlFuEDjJehyaoT5Bz280Y1MwmyUQkrERsBJkPzmNQ2jW0K4VeQ4sGB7E+WsyeNuNZ+GCM89l2E0UyODyTLFUENE0lcnKd+JGKf5XzHWMD20CYE9eGemB1GkuGllNiEGVSFAmCSJ5wpfueAof/8I34PQvRJTuxzRRoKmuf5pOiUzWzK9IQ8OTQ0CNhT5JdkRrK1GbRKt8GAMuzadEHetXLMTVF67DBWvPwBIW+hyZUpLh9RXSxwBJzviItExOiNQp6Pa7Q1ZkRIXWo1e1NiE16qtFq0WWQ6PQgCrktQoB7InNe3HnvQ9h07adKFabmA3TCFIDyAwM0SxM07hzIKLV1JwcjUol+KjBKa0pOBqhTuAKajX0JYtYvcjDG8iqbrnhfPQxDoN0KRaJRKOKQoampMVbkVVE+W4n7uqM6MkrIz2QOs0lIGgcIc6oqWfHGPAX/3Qr7nl8G5LDSzGpjrmILGRwGNlcDqHfRLNcJhoQ1shG0n0L0GyIRc2SLdUxP9vCsiEXywZc/OJ734JF/RmaUC7NIz5OLSJ/IQPhH56rDKshWqMFbFwoL1uTuLr/9UNgJWcv0Qml5ImrVrK5IkQgwBKMGrLgaPJlyNDoNSaKwLNbtuPOx7Zi8/4JzNTJvHijyOeqbYJbqoBEKsdgGIAAMKJ56iRsWo/TitBqFpEIS+hPtfHayy/AL//0NVjMdPLoxzCJFLkZLUYGzv8xSFmfpEWpc7Enr4D0QOo0lwZBahvL/R2P7MIXv3kXDswEaPUtxAQBKmIxdAeGEdX4o0lHsy2rAY8snAm/hkTQxHA+hTwL8eLBNF5z4Vpcf9l5WDWagoZsCltUXqVAx9rRKbrmqOGcd9T07BonUq+YkEiiMweBACCR4lOe4ZVvQw74PBHOoyd6X03UGkuVECPiL59e1Mn6rE2MERBYiSk+vaOCb959HzbvPYSj9RamCMw+WWLgZFElaCmMJJliyw8RkkWpVzGhTgQytT7PN4Z4zuIcPvIzb8JFZw6TLUYY8pQWiqniHTeWy9n39UrNKyY9kPoxksSx1lplWSfbOpfUXa/G7YDlSV35LIPGPCZZgj9x+9O47a4HMFGu0LzrQ7nFopcdRqulnjTacRpmTfssjRqSwQytuzJydKsLKZy3agmuuvxibFy/CvPyKqr0m2YUMcKCTvCKBpBLVJQFViQrLMpB/CzjeXy2oFz8TvdZAYWeVhO6jpL4veNOPYMtPmxDA2SK8mWd6ht1rjFeaufm52KMgHz7/ZtwxwOPYe9kGZVWEvVExtrb6iHh0knD8TI0Z/kimWNakW35cNtNglWI0WyEn7zhYrzzxvOwiEmTo59Z81kSw63FS9+po75EyCrpmKidXyYCM7uink2+2Daw7cnLkR5I/ZiIAZRyynJLmq9irqNusqCytAZOEj4LXY3lQZP2d++fxW13PIwv3rsTQTKHthvA53uB66CZyBMYiDqJfjq1vbSRCSaR9A9jyWALV5w9Hz916XqsXzIfI8PDBAQFRMBhQbQlVpJJC/pE6V55ZVVKg1EFzEoRYY/Y1f6xOh7ZtA33PklT8MAkjtQSqDgFNFNDaBGwDJz9GQyhTKaluYUeBobnoTo9hiUFF2+7ZgPeduXZWDMMjBBHEywmGnfqJI+DkNritbSNhayLGiqh9JmTDLZYgg1Ylc3NG66Y4wtTricvLj2Q+jERa6c1JmVa3znS8ZIamUMWkAovN1i903DDpp0l3Pr12/GdRzah2rcSgZczPyJmt42B5Ds2FqmtYQM0y9oN5FsVbFy9EDdfcwku5PHcQQ9DSYWjckaOwEJmjepRZMdTRboTqJUqDZqCWpJFtmiVF3cc8XHP45tx16NbsHe6jiLZ46zsQ4K259CUC2qIkgVEXjz2Ki1G6Rcx0p7BGy9chZ/9iWuwejhlcwU1nUirN+jTFZ5NXFajmwEVhaajzMGwc19/lHw2yl8DXg2kNGWoB1IvR3og9WMiMUjZH7oOSEnXqfga9OjzR5FlpcYC8syuKj73lW/joSc3I8gPYyIziCAiWwo86+Z3Ww4LaIAkzZtWaxpOOIv5Ax7efN1VuPmKS7GU5GqQTKzAYNKJrqnD8kVzUkAVhqGBVMyufvQSBE3GzaEj6FKdxabangxOoMQ0mSE+7Dwa4AvfvAf3PrGFbJMGHE2+BulXg6ZuiyCVyA2gXaSt2AqRzjjI1Y9iOJzA685fhV9//1uweDhnQxeU7MoGfbqnE4GUtahJ+IDW6+I9WdAS9QVY43sXpFgx9EDq5UkPpH5MJG7XEDh1nYRXyaA0KlsDMUNaME/t9vHJL92OBzftRiszgCmyg2CQqKPFn4Ici1Ea6WYEN5gmAM2gP1/EysUp/PTbX4cr1p5jwJRnmSsQ7FSUNIG3KwIlrZCg0eGe550yIJVoC44YT8XHgIOOjIVfaY3qs2pEJ7Mq87vueXgvPnvr13B0uoj2wBJMoYBKg897NH3zg3yoQsxpYCDdJFCNYaQ1i2vXr8Dv/OrPwPVDDOT43UwjWn3GpDTCPgYqhR+DlFiqzE/dFq7FjEtx5DXmVU9envRA6sdE4p4x1dg6KssEEDLzkmjyXCbe5qPA//z7f8EDW/aj3b+YhZMsK8/Cl2IhsqkeBSRpi6TKNWSDMQxlSrh04zB+48PvxELNd0OIfmTh1smYWPEnNXCIYCUROMnk6zKoU2nTBBtVr7RR24+5yOb+aXCnkyYwp3KoMboVPqaFHnaPt/APn/oMvvi9TSj3LQeyQwgDfujAAiI9HyyXLM3mpQLkG+NIVcdw/qr5+JP/8ms2OmOUlUGaj4klGUAZAClf6AeZklY/tXmI8ZUOUOmXxsPrV09ejvRA6sdG1CbUYQxtMSitYCAzzzG28NwY8P/8zWfxxJ5JzLTIDtwBpFjofJ80IlnjOyxEBKp0vYGR0MeGFX24asNivP/tF6JRn8ZwluwJKaRaLpwoi1aVgJQXCAoAjotMvlNNokCrb/pI0cSDnAnTiUARkv0EPFWvXuQkiSFklrw7Rhvwiw9sxqe/+zTGywFqGnXfJKSkCnQ5Ms8KATlCoV1GqjGF/nYNF52zCv//X3sfhvgYyae1N9nyw7Y8s0CIonYpLbtMINeVuCqRa8dmn13pycsR96Mf/ejHOuc9OaVFtXBkjcTqQQpssq9j3e/7WfH/wZ9/Es8dmsFYPQFvcBGQG4E/yRsFmnougYYAlwrKGKL5cskZg3jztevxtteda0vtjiSzNAITZsa4bbIogmAixRv8n+hMAO62R4lNnWoN5w6ByU2m47RhndtWvUtA0Hc4ySSSyRRTKh46oN5JjSft44cvWb4IyXQWYwf3kgw1yL5CWmse2VcarSBEW6uKeil4uT6bZL338Dj2HS3j/PVraA7KL3rY0nQfhUdIUpLwNKEJ0mKbilxHFDovWRx68vKkB1I/JiKI8kONuiZQeWnUWhpGAByqAn/z2W/ivqe2W/d6lBtGNUoiVG8VzY5EnuabX8Jgu4q+cBLXnbcAv/iOq3DNBctQIEsqsNDaQO+25tOprz1eRSAhBmWl8MRiJaA6lQBKojYgwgsjRyAlW0q4ch5/k7/YRGHF2YNH8NAgUX2RmtrS/NzlS+dhyciwAdXU+FFbNqYZaHlhvpfK28J+jUYLrXw/ijyOzdYIaA7WLFqADIFKK8TYIHpt5qAh9gzTGsd5lAEoUXhy+hsfe/JypAdSPzbSRt33WSBZsli7aw7eDAvIp77yML50x4PwMyM0WTLWc6XevlajgcK8IfgzRzEQzKLfn8S1G5bhQ2+7DuuX5tBHZpVuhxqHTa/VxmSHY06jz1m0eXLqFyvFVG1AErEXOQ2qbPFDNF5cw0n1Hd17cvqjV/j1WL5oCKuWLMHRg/sxMzWJVCoNX+/SbDM6SbYUNny4fYM05ZKYPHwQQ9k0Fi+ZBz5K8CPTJHj7fgNeOsN3YnNcojAsOTvhdaLZk5chcUr25JQXFTg/aCFN80SL1PnMua9+dye+8b1nUE8Po5EaRLmVhE+ASspUa9XhhSWkgxkM0q0bzeHD73wj1i/uQyaYRobMKtVukkGxOLMAqeCq5lc7ihae09HA6sdALO78Y3HvOvvN7+BHxC5+xpyakXhMkAblWg0MM7lec/ZC/Ob734orz1qEfGMKAwl1CZKmas4fWZQGvEYNslk3j6mmgy/e+T08tHUCs7xt+cF0d5k3LQ1CY4xsKg/PlLYCKAMpup68fOmB1I+JaEpINteP6WrL1h9/dEsVX/7OQ5gOM9ZIPhvQnOkbZsXvoFGdQSEVoDG5E0POLC5bO4r/+Cvvx4JcCrm2iz53EImAppGWY1HPmJUihcGDHK9qK6cfF5QSR1KjdOczzMXjynQvFoHSCWL3NTAzZWwqrDewcc1C/OI734QNy4YxROgZ8pg2YUU3kRkdol3nIapVyLKAzYcn8YVvfxf7ZshomR8aG+XTP7UXKgYy7BQfDT+IhyAcj0tPXp4oRXvy4yDUcNdzkMk7mCkDt91+Lw7N+jhMh8J8JPpH0aw1EbYiFDIaQjCL5uQeXH/xGvzC+96AtYtSKLhkY0VtB5WFlyggYe1WLIgJcoFEnSClvsIQLumGG3lW0H4cRFNTNHxC05TFDA2sGHVrUqPooHMd7bxzVHo6BPVSsYJ8Kmnz9M5ZNh+/8v534cyF/XCrU8iQkaI8jUSjgrRW5/TrqDd9JAZG8fj2PbjtO/dD42THa0y3ZJr+CfLofxeY6GJA7LievGzpgdSPiYgJNGmBSM/vvPdxbN9zCNM1FppUH9oZFqjcAB8g4BCk0iw0XquKay5dh3e/+Xqcs3QApUoJA1nCTitHMPMQNNI0ZVIkS3wHVSrCDF2J/KlhmxWoHfj4hOZTW9S7puWKtTdzMqHliQlWvKY1rWw1BToDLWp791xHjQo/OBnY8i+uwy+vVDGYAc5kev3UT74BZy4eQgHatCFEfeoIWpVpDGQSSCXJmDIFBMkMvnHXvXhi8xiKtYaZmXH7Vyz0PpYeOP0fyasepKRI1n5ARbKud2ruMaffVlDVEMoyzYdCTdBlIQh5rgXlnu+s61nnesdcrKNdJ1FY8lPPqN3ExtR03tH1OD68I9fxSVASEFfufXoGt93zIPZMz8IbGoA3PIjm1ATCqWlkRkaQjSI0Du/HOWQCH37vzTh3URpaa3M4lyUJaGFokLjGgsjyhSBUsRJjip1MvGPA1Dn8OEicalTlOY3VOpOzc/4xJsV07/5mcmvtOwz3J5EneNfrTeRzObSDEIME+as3jOJnbr4ci9N1jLgVjOS0YQTzMJ2Dz7TytWaMm0OJfvzdp78IN1+wKThK0XiAJ2+0NIJNPX5CfbsRx6GjV/qnG22ey+k8vqdn+GyLed8KzWlv5RZvtOmXbU/R1rRq9WnSMbzu+vE2BINXTbf4kdKtrn7puhT55Dou0JZOx66rq6eCvOp796QMcY7EGWjn1Ck7yvGSFNoynMohF/Cveo1UDPTo3MePuY53erkLXBK71DmzUcly/CU/dMPaL7Q+twYIakcVXgsDHzWksG0W+Od7tuHhXXvRKGjAJpVR/lLZqInoC5ooVIo4c8jFz/3kNbhi3QJbRXOAHCObcJGmeaPHHc3MYIHTwMYYoGimJLJMC/VM0VxhKdb4qB+f1Se7kHQMlujiM32vjsel84sHbS6qra30dFKLU/Ga5gBqGRqtMHrG0iECewnbn9uCRK6AyVqEZm7UhkSlmTdJgSIzrl6tojRTwoa1ZyLntXlPU2uqzEOa0Z2Gsib907xCT+9QMWzOMZ3UT6Jzy27lvzw1veSFzsqBmjiudsmWdK8ls5wgRb8jmqGOaCH9b0ctRG3HJlhr4LwWW9VkZ+mXgpHfYsnHFHau0AtVwloyRzBo623p4ikgr/oR5+1EwExRpqvA0mmXEI2R0VGifKJTvs4FFD5Bk4r1leUj/0gDqFjd5FQmSxPs9jGJG3hjHwQGrvmpX3rO9NnG2sTKqblnCdKeo1NFeCND+IdvH8Envno7JoMAZS+Fpktq1aZzs/CqTYxQcRenArzhyjV41xsvxtKhBEOpIo8MwU8x7slcsbzpsIi4fmIGGDCLudL49QMcKLfxvz79Fdz60DYk5q9B0R1Ci2a1ozFZUZM60ESyOYslfQl85L234HUXL8J8ZS0z1aNfqkQ04HaW9U6JmFXS6PZGE+VKDbWmb722rkcWSwAizKCQS2OgL4f+bBKFLJBnvZFm3BRLaaTa31IyaYloWpCvUSnzObWmMX8dBaw2sYTtZt8kq3aFwvFdAyjt5qzPNNdVCXquPpTIWJpuKCw1/Mdp86OWVz1IBYkai3aN+aV6w+U/wZWOAitRDrpYgy37LI95YpWXI/XrSvxAW1Wi/HqxAY9iSVRsUzmNedI0Cgu96zvv610qoRZqi1gY1Da+rwj83l/fike27QcGhjHNa+3cIMNJol2vIxP5GGV8LlgygF/74JuxZkECA/ReM/sy/HuqKNypJMYU4mzTj85RhhJNev7QWKkyK5In9lbx0b/8DPZWCFzuAMLUEEkSX7A10Jlf5QkM5x2ct3wYv/Gh67FyyKogFJlnW3aOY9u+I5is+CiT8R4qlQ2cKsyzelPb0auiEyQoCm2anGkCVYYglcHwQAHz5w1haV8SV6wYxLJ5BWN/4HuFlIssabdM+UQUkkWpSqO4GttFkSq5npl69l0UqwT5TYbDkjhQE5FxmXmdVIjLQ/e5H7G86kGqSSbVNCYVN3nqqMyOXedMYGWOP7tOmeuwajTOznNdELiIzksxeC3mUV0l4ZE/PS3ZEWk6MH8QoOx5e07+yFHpeU3LiISZAbAiNwX6fz97P75w9+Ooe/0oh2myqAIiglgq6SKoTGJesoHFmQY+8p434LoLlmNQXjdp6lHZzYRUFHryPGGqKHM6h1hkyNOsZwaqxafUTtKsBu56dha/+8d/g0Z2HqruMJkHkcjmMZL1Kk9nxzE0kMYbr70UZy0exq7tW3Fg/z4U6yFqkWMgNUNgSmSYMdITgl9CdndHX0S8bZNUVk6h30DIvFOjf39fHqNZB0totq9YMIJLL7wAF61biSGyLI2QGCKRNlgiu06RgdtsAOmRbfPFr9IeifrAzjfO1cnuKhYG1ifI8dQ4FaQHUswfrSKQoLJJOa0L3pyUVQagQERAJaeaky+oluKhnah3slNKxvtUvG6jpR6RxIpx3KmG1QJz9ssASsJztT9YG0Q8qlwbdDZTeYyRdJX5xAd/43/YhgpRagTlagp981agPFuHQ00dzvhIN/fhlivPwm//7OuRZQHrYwzSjHez2kBeNoOF3pMTJS6c3byRqPhKB1os6MrDppNGicdJ/vizf7oPt975ME2+YVYgi6gWnYrLYz5qu3m/goFcEiM5bUVfRaNOky6kZnlZONl+1kkufC2yZw1QcnxX7xtY8EQHAZXOZfZrjiT9zqrnsjaNnKYr8fri4T689qpLCIiX46xRmoN8Q0Al51J/HDXUW4Unr6iXHTCSKseMKdZPaX33n9Omttvz9qTF5VRpk3zVg5T1rvGobDyel4ItLSMnuFHyxKobbytA84oZar0mdicWZbp+B6pYeVF6qze7eth1VGuaX/F7+i2VVH2s1Y9sfj7NwZaTAetRA6ej9PRTX3kC//SV2xEUBlFqpJFw5yPpDaHZ0H5yNfQ7Uzh7QRO//YtvxsVL+pCnz82ShhyMYHa6jJHRgVNG4U4tiXNPedTNSMtpsVldZZqFhACZaUeIQWJUv/Gf/hp7ZgJMhFkkc/3MNY/AE2HhooWYGjsMl6wqqBaRTXnIaCxIKodGy0VFC86HrDhSKYbBf2Q8rqfJz3S6Rn2qVirGplzea4tRBfTLbzKMCIPD/WRYNOtJr9qNEqpTR7F0KI8rNpyFn3rLG7FmUcK25AqrTXhRA4V00hbl0zxGE+W/GtqpcFRR0+wOPNlftVk6Utyumkh/eyD1yonWPupSW8kJv2lWqeKR2EGI4aoW9Zlf8fYAgo94Dljafus5rU9UJKZYAyWP2vmpWmugXIvbGgImq4CtRYYVA5zUP0HldbFycd5ATHtYql1TKz4WeJ7mtQRrQs9L2fpQE9Smg6zGP/I7/xMzZFZR3wBKtSQKuWUoHy2jf2A++r0S6uNP47d/4bV46w3nYl5iBqy3kYo8zE6SZQ2P2Df1QOpkchykuk12yqkYpGJWqyVexkt1JAcHMcsHP3XrQ/jSnQ+h5KnCaJFc540tNYtlLFi1GlPjR9BHk64d8t0opHox3+i07lei7ZHt8EgGLWBoUQ8jgpFWlZBOaiFBW8GBIqAy0435pq6dJuMi+089emlCp4AoHdWRbdUxmIrwjjdcj9ddfgGWDsdtkWJXaihPWXMEHZW8RSYW8X19rzTbhpzwn7XBdkFKNyWnkM68KkAq7Cx3q+VGpBD63V1Z0tEaQqpaKNQpW59fVl2z7dMxaQgYDWqwKsI69WR6NsD0TBlHSk3sGC9ix67d2LtvPwGqZtnuRy3bucVJxjsBa6JpDFIxUGm9a5cK01/IYWSoH4tHCli9aARnLxvB0nkFjBRSKPTnoY67KuP0p/9wD77z8DOYiVwErLl9P0UFHkGLKDmUysKrHcAFq9L4i//8NvQT2vowiVQ7SQXVhwzS0ZMeSJ1UDJeYLPEYN7vEXBLhEEjR+TVe99BiZhRD6kvaxaZ9VfztF76BR3aPoxQ4qGjHi9wQ3OwAirMl5PJZq2gEcGLFyndNlVGztgxwtLX5BUNhuAIoncTsyaXeEPSkc9Q363jRe/YMHcO23ppOk4D8TrYarIxq8JolzMu0ceHZK/CGay7FpesWkkVrfTCgn48r5JDPa+hMQuMrKI2WdsoRqzOIor5oL8I5ICVLtgdSr5wIjLorSfJ7T2BSrhbEVsZonAzvxW1UBBsqhFaVnaTNtefQLPYenMa+w3QHJnDw4DjG6jVUyYo09kWqrW5kLQ9ii9HxUtwu1QEnCytmUhINJtQmldbT51eQjKo02XwMUdHOXrkQK1csx7IVK4H8MD7++dvw9I4DmLfiTIzVAr6bQ6vpsbYkqysVsazPxy++8xq8/brFVEoNN5ilsoniU0vbMgBM5xn8aZ/NL1uUI/ovEOlaOkoqm3Qt0zsgnyV4wKPJR2VwMmmwjsLnvvMs/v4bD2CayhKmBjAl2pvpR35oHqpHD1OXHOuF8+hH5PtxJUmzy/XIqlmJaSyW6aSxKAIZdch+0xtTU8ZHuqR1qaRftjlYhpDDCtYawwVg0p+oaW1h6c52XGkC1qKBDF5/9aW47qr1OIMkeoi6naRTG7/UUKP8IhsI2kKSAGycTiyqTZDi8RhInUIV26vG3BODkqgNQNIFrURbfKXCzPNQD6h0yT74rGG2H6zgqecOY9POMezYN40DRyuo+VrZUU3SSVSdJqrpBpKpNHWGtSD9V9uEKHysRMxlKZecNN9EJUGOzxiTo3KGdSSCKnKtGjLtmg0E9EjJU4xn3+hi2wL90HQZbm4YJPhIuRmWnaZNFvYnD+GNl56J3/ml67CUxClHkNJ0GLVw2ZbFvGIAZZ962mfzyxYVVOWFsSWmk8qnkku9odY+GGh9A0oyhUqVBZtARKsbT44Bf/T5u/HQ5r3wCVKlOvM4M8BKha7Bd7ScMPPUIXikmZdiMkFA8y8oI+sxr7Np5HNZZFIELgKWWL70sa5hCQ2fjJ2cR+raWRcr0ganUQFtmp5qrLe1rlS5EvwUa4egmKTZl25TQ8Su6K6+7EJ88O1X4nySaUbZsl8Dl9UpoGlDGsNlEKXrppfSV5p/UhM5qW4PpF45kQKIQUmkEAIs/Zb5F3ptFFGD39aAujy2H5nFt+5+FE9vO4zJCjBFJlX1XdTDJAu8NpYkQ6FSNxM+/AQBwWg5M1mOwKTGUJ1HpmVSed2zoCk8EUDR2eqN+q1enNAn+xEENdCXJEBRqxq1KpmcQzI1H5OlBqJEhn738TnWq1EdA04Nw24Nv/mzb8VbLltojaZpdYVrpLr1NGq6bdIKntTPRtb35ASJQYrMmvnZXZ5GWWXFVWYVKxDLL+ZpK3JQb7FQkyId5a1P3rETn/7KdzBeTyA9uspYVUsjc2nKOzSlcszLVCSW3MAgK5Sli8iQF/fjvDOGCFA06XM5pJnRLhmRBv5KRwOCTqXWwNRMEYePTmLvgUNk7ocwVgxQT85HRcxNY+tSeQJXGlqQzyWAZrMZVMYOIZVNIq8VDJsVDOTTWDmSxW//7E9gzaIM+vRRvKU2KrWBujIXuxUXazJt6CGT1Co1iulM9/6PWF4VICXpmnw+6beOqU6Pyhhri0lWG+PlOr701e/g9rsfozJq84JhlJoubXcCUzIPJ5UlsFCZ+a7aCVpURur2MYbmUNls2gLpvA3o5LlpxfNEe7c5YRDX3lpUjWCl9ocka1wpd7M0aUxKA/oa9NrJ5FGtkM7PW4x6kQDkszZ2K8hFY7j6vKX4j7/0Dltve1RYqbWMFDZN1Tb99PXNDFPKSC978jyx+W4smm0WfNvhJb5sBdRTY7N2XVCbkCoe5lVEkGrwcpU/t4wDf/6Pt+Kux7YQpFbj6FQVg0tXoDg1gYGMA68xhdWjeVx3yQZcceF6zB9KIUOdWdjfQpphicWoMUD9h+qgiUUdNC6Yy2T1Ear1ABNT0zg008Stdz2F5/aNYbxYQ5TuZ+VaQCWUvhFVqEOZoSE0qmVkSAPFzrUcco4WwnXrRvGON1yDy85Zam1UWpc9wyKf5rcrtFhHpS+ssAVU9E5XNJwhnh3xo5dXBUiJNQmQ5ARSAiiJ6PWzNReffWInPvvPt8GPkliw9CxMsuYq+wm46TwCVS3M+FCjxEnhbeKoclrz3LSSAP0Um/I82vQEqhZBSyClaQ5xdhtf6og24WwhS2XVwiJ+giYbISQU1Vb7FAFzZLCAcnEG2XQKZU2bUM3J2tUbWohWOaSCV+imMC81g19453V49zUbkKd5ME9dzdJ16R29U3tug8ikf4RXM2F6cqLYxp5KNKaxFdD4MgsvndqO1OZjDdeUVM7MLO0OrY6VOtP5q/c8aT19T+wax4zvYNmqNYiaNZy9YiHe/rrLceW6EYzwWTfU0jdNW/GzRbtSQ6HUBi71kEVlsxfolHXaJt9nGLbUF/NQ2SbQOkwr8ntP7MZDT2zGJoLVgZmGDejNDC3gfQ+ViQk4/f2s6HykNQo08glGJTiz23DDJevx5htfh8sJVMO8leZnZ+W/WLxFgn8JUoGAKr4S9w72QOrkYpFhoh2TTuzmXjp2Pifm3QFqSnvxByPvSmRqge+ztiJzSRCcaswXlfsZ4s2jj2/BZ+5/CvfunyUrImNpttEIWcdlB9ByNZrJPKPm0ObTSo2piM8FaIdVJIIM8ol59J4wQIBpywxjmNIPh2FqmoK9S6dodvNbc7ocaqLtXuJlCCZpAqF6Bfm8lEYFh2DnZVK0AgN4A4O0Ohi2qnCnDwNZXqvvxboFEX73F9+Ci5aPYoghuJpJ2upoNU8DngYKjKmSpSlLXDxRjiXiS0n8fucLOo6eW1qrsVmpHV+NP1VnkuNnXTlpcHMeUvuceq7kc9zR0OkN1V/eMh+PFRqFG3dIKHYnhv2vl1hHlE8yjV1+T/e6CiiPuidGFTBfrLc23nBUjdD1Zp0gkcWesTI+97U7rb3q6OQ0rr7iUlx50XIMUsf6GM1UpF64JpLmYZoVkoYg0JNO0upcLQYSfZ51ulgE+JsH/dYiexrfpFdmeX7/0xP40h3344ntB1BzsqjRz0z/CGpENxVnDX1Ikv1lHJqdwWEkatO4fMN5+MBbbsYlqwvopz95+qOBoXHlyAsGUh4C5qnCkfb3QOpFpNuAKVHadY/mlLBzYzvnXIMrZR6lmJlSOdtHhcBhdg6Vo67pDVRG7fC7ewb4wje34c6HnsJMrYq25yAknW+yMDf4nOi/enSsylPArQbzkGoc1QkYRWRo9+fcHLUnSVBq8TcznTWmXIbhaftudRam0hp4SfrOWlmNoX4YIYxoxjVzdJGtWa5JoD6Zl88CoVnomXyOQKo2KMbb1gbpaLLCSwwi71SQmdyMX3r9efj3P3klFuUZx4B1rauu7SyVLI6yXjf2JEXrlr65cpJLL7zG9NM2Wsf2lVNcmDZMx4DpFS8zd1ziEWEaY6az4zLXW32OCiX/W0eVerb0W2uEt6ISnyXYE7jVrKtcpIKaiewJMATkxmyZ0IkMP4vMWN/JSzKRX77ELLfLdbtHiYEj3XGJf3XfUJNBd7MFJW98L/5WfVvX2ZIr9pY4bffuS8vcUI/7Sd0h2xOr0nyFg2RWX/3uk/giwWrXRBle/0I0EnlE1JOmKixlWcpDHiWkW3UCpY+bLj+fQHUJVhOl1DyQV/sl9Tnu2U6wDBCIk1lUWFn3p8W+58bkRyenHEh1bWKJMkdOYue88WIg1eSLml4nJmO2uWg2GYl0OmDGVclWJplxD2wu4u+/dCeeO1i07mMtutJijtbJbrKFfjIcAlWZNCubQSabRqNeQcKv0kb3CUwR0k5oc6SGsgWsXLAUo0MFLJ4/hKWjg1gwXMBwIYNcxkWBmGGzJhg+8QgNhi0aXyV27j5QxRhr3SNjE5icLWGmXMPEbAWz1QaKdZ8Fj4VTiz55BAKe2+hg1uQ+C79XPoT1Aw385ttfgzddsAwDSXqq1fDyw9SzrA2hILTZQD5blsNghFeUgM+XExJTogTunFJUEI2rdMcNWZGUXzRVrWE+Bim9okIoY0E9WRqZH+/SEssJQdNP5UtXTP0UDuOSSDToyFSZ2nEnucbwaDEZFlLV+BICvk5brHjaZAsCZd1Xm94rKUqbk4maFH7QYp0eZD0tsh3Ng/BZ8QmDDhConjtcxse/8HVsOzTDCrgPJV+VopQ/y0RhhVKfQY6HJCua0UwL77jxCrzt6jUGVEOqBpoCKeYVMzJiBd1K5U1PbQmbF/nGV1pOWZBSVnez+9iRN05WriT6CqmxzK42C1WaLEZNklpTp85CNVEHbn/gOXz+m/fjQLGFBjO02o4V3SwlemDjV3QesNBbj1uTgBSin3kuN5RzsWrpAqxfeybOWbEUy4eyKJBw5elyLClqqlKBUetGggwrbhpVp6+NurECrTjqqN9yFb5zaDzCzn3j2Hd4FrsOTGP3wSkcnVKPI+OnlRBa8oP/3Coy9cP4iY3L8RGyqEuW5ZEhy1MXuZhFkFDhNhiJt6my9hSmB6mGzo4llonO5zrJ8fOYyWgJEPrDS6rJXaarwRYLohqa9YX6rXuKoUBKrIfVsd6yd18gUnwVZDkFxXS3Ak/nt2ssiPSVgGyMresHgcnhtySN2TLcMG7TaxtL5efTq/Rp3OhmOq80IuVskllqHJ/aHMWqNODkyYMtfOrL38ajW/ej7uRRiaTXOWsm0OBNLftSmR7HkBdgfibCb/7sW3DThQuNTbkEKU/KwkpFIxo0gl6mn1mnHV34Ucspae51I3QMnPTHEu34+TE59nALkV9n5nis6NOYIBvy8gXbVWX70RC33vE93PXwJkz7NFW8AZQDFilHbULMbSqAS+oV1cvM+SoGsi7ISeA0ShjMJLDujKW45Ly1WL10PpYtnIeRQRItRsQlImjQngqJE7GOCwVqsfkSt3UotvSfrKMtZ8U5pHJVWcDFOTRjTyElaI5S4agkhyeBvYd9bNpxEJu27cPeA+MsiAmkWR1G7SLOnJ/Gu264CG+4cDWWZMm6KiVksznWgH2EoxgMjVkoZDX8ahVRR+FYylHiBIsVUCaI4EtQ003I+Bjzohik9KY+KcYB8TqZOvH7cgZS/N64jUcgxRjYuBsJ37ag9UfndJ1X40GMAp74etPiqhqdQEQK6jBvLCnpIjU+85kkvdXoDrXVaKSFuJ3aT2QgvpLyYozpxRjW/5EwLSJ+sKt5e/ypPNbGDzoKpGT+7a8Af/2ZO/Hw5r0oEqRmKgEyg6PMEbKuMs1BglWuXUcmKOLyMxfi//7IO3Am2VQmomXQIiXj9yg/1OOc8DIxeztF5JQHKVMFXpirEt1rJwoLpM/ETufgk1UcYSYlCklsOhTiE1/8Jp7YcQilgOaBW0CpzoKWzMHLFGgp8T2adlpuI6UBcQFNxbCEYdY661cswBuvuQTnnbkCC4dStviY2p9EUIJGDX25lA2KM+ZE5pVQG5hqe0VOhdWKmAohSxPZXDwsgSpFsBFw6V4z1LjkDMs1AZVX5BgjVHhycBzYurOIPfsOo04AXbZ0CGcvHcTFa0axkPiRDirGXAwAU7lYeekEUBp24GkTARbjwGGtanGJpQtQOoqTdM8t3ub0VyDKePG8mw+dr7FnBUoCJwFTzNP4pH2zTvmUgVT3TTor1HSspXW0AiEgYtoYe+XVMv+owHUfUwrJZ63Uq2fiFIu/saKOVmZEPu9ikBczr3Cheimz7gcNVFpa2OdHy0qWc43mKOdYuTFFpC+TvD/G7P6LT92Be5/ajqo20siNGKsyJkp0T9SLGPDIQYuH8OF3vxE/e8tGLGCiZmgxxD2dNKWZ4I7Wlmb+SytOBTnlQEptON0IWRIpP+zXidK9d0wiAhSLeEB2pF4XwgA2s5D/7RfvwHef2Ia612eNikE7hZHRhZicnEZUriBNWtQkuOVdFjba725lHBtWzsP7brkB1110hg2SlD1fIGXyqJgiEAq2W5MpHlZg6cSVktIiKSlpuZJWhd2YFAtjyNpQbCutxmg1WIlyGZPQ+BQV+dhPAVUXcJryKvbOpm+JwaV4w6M/yTaZW5pAQqaktopYzeLCTF5Ik0+DEWWa5c1viaXbnGMXV47JMYakczIafc7xK8dAymWaGEjJg8474lRS7IS+mWzIlk3mLzML7TwWBan4dH+r273Jj1Z5UrpKumCk1SynSyyAE1M4eOQIDh86hPEjh1CcmcCKJQtwyxtvwhVnLcbAMd9eGXlFQYppqOWA1RZneuZoZVCmINNdeqPmjGKUxDTvT/HyH/7ll7CNDHw2TKOUGET/8EIUx46STVEXqjMYJP8adWv4g//fh3DF2hHMU4UQCe5ozpOmqv1T5rbp7ikgpxxISboRenE1iGXu/XZYY1lvM/nTqLLQ7mFN+0cf/wbufGoXnIFFKLWSBAmHz6TQLmmaSRaFTBpho8jCH6BVncbCgoe33nAZ3vPG87GQdMSjZvQTvMSWwmYDvh8hRxNSoFKnkgpMunFQdloB7gCUrqvxOF5/Ov4mOZeKpLZuK6V6SIjS0YWQtVlLyiePeDPmOVqoQwCYRUAmqOaDiCwuQ4VLpViLaiqOvikZN2IrjBikAh7F2uhZS4u3xPe68e3KC0Gqc+TTjsCUvzXKee6IbEXPmwNS8QRdmYdxj1w3HnLyfu5R4Ns9l+hZdSawvsCBiQb2HZ7Bnt3bbcG4qZlplGsNVPmNGq8m5pDLZZCl6dIoTWD14nn4wPvegdeftxTDpzGTkjYJpFQXqGnBtsDXuD0DqjhHZkMyXzKgw7z16PZZ/M2n/hm7Jhuo51eQdfI5Ao/qRC09POg0EE3vx8+88Qq858bLcDZRyvPr1DBWdQTBbhtnD6ReRJ6f9XMjx7gyoVm7CwSMhVDJQ6K/Mk8rVDKByzR09pJG/dnnvomvPbQZjdxC1GjuJLJDthMIZmfMZstR0R2aaPl2GYVEBWtXLLJtjF5zTr+1NeVbDQyKumiqiUSFXbULay0VMp9hd0EqVpMTj3NF39B16oTSOtPdZ+zIP/GR35Xo8qgul1IxVois3VoD9ESK0ynmVFBjaDzOLfwCKRmRWjpYTAoRbUMdLZAXEd074b7CJROLCBAtDTkgoHuaOhQ/pgk3thyJGKObJBx61rbWbdCV2dbgCfHF2o+0nE2t0cLk9AwOHRmPezY1mprsaHx80laOCBNDfDbLoqHWNYWva/o++s/017msafWwekERZy4exs//1FvwE2uHXnGQeiVFIKX8Nd3RUZ0lZNGWR0IuVsqa5KIxU2qjmqDafOveTfjTf/gXhKPrMdUkgPGZOEMCVrQuCq0KBqMp/OFv/gKuPrsfOXqTZ363WAE6GuxMi0SdJ6eCnHog9fzYsER0Lx0DKdbeTd+3xcK6oBVQgadqLcySLX3itrvx2TseQmtwKabbeTMBrZsvk0Ke4FSfOoyhjIsUAWjYqeDN15yPd775GixiWQ7rrGmSLRREeVgIrVQa9LD0aattmWVz4hQbMTJ0LKrmjkc6/hU/EYvMJ0GPpPu83rUQ+F1mtKk26wKUnfNtja+IxwHTUVSDmjmm+HSLdCzdPkVxG53HAer5OEQ9F5txuhYfj6/UoN+80ooYGl/kg40E61gyQoFPV4J6RDZHRkOlThXyODIb4eBMDWMVHwdmipiu1jA9M4OZ2SJmSiWeFzFLBqt2qIbW9mZAqUzWKpgwarGizxCoBhC1MmRp1n/F2JBJMl814Vvj1zSVSKNhswTytD+NtYv78UvvfRNuYSEbeTWAFJ3GLrka32Sum+vMN4JQ082woiDL55UtB0r4lzsfwqfueQ6p0ZWYqTEvvQxNxjZSbssmtDsz+/Demy7DR951LeZTtYYJ/n51FmmN3yHg9UDqReQFICWxgkTXUUSxqECLP1FczRJnZhXJMGaYZ5/80kP43DfuRkXL7DoFNNKDHZOGnvg0k5zI1l1qlSexbtUSvOOGC3HD+SswMpC2qQJZVldu2ICjnjGFkZJ9zswSgzKzx6CD9RbD1tZFFrOOHDuNC/xxJ4nPW66LCjNfj+pKDFCxOgh+bGyTskQPzHVkWXCoqgYmfMuYZAxSXQYlkYmowq2zOESag6a2irVCiu/ql5q89XQMsTG06aj7Gp+U8gOCUBuTDYeONXStjUq5iEatjPrMUeTTDgYHCrj4yo345n078Knbvo2dY0W0+wfQdNQGx1AY33jJEQJb2LL80rpJahnXYFf1WjUZTrzet9a/ykDLK6vNSx0SAdNdIKWl3sRkBVJINJBvjuHcxXn88ntuxi1n9WHe6QxSTEOBlPJTcwo1OdjGrpli87ulEwTziEClFV2lo1XeemL3NH71j/8RRXcQJVHc9ICNeNe7SbKx/nAWawYd/MdfejcuWlXACHXf8WmLaEXGnrn34mIg1Y2RcqUrPNfkXj8gg0omWUZdmhA+lT6eoDvBBz57zxF8+tavY6zKGoHgZFMGCCdqP2hriEBtFgOshfsJLutWzMfbXn89rjl/MRZmY93XaHUNGrSVBuLyyrhICcSi1Nt1fEmPlBREXbcnlbkR74o+itdpr6iJMv5EjTFSQ3N8VIf7sSVcn+/kpcPaU0cCkwGUfug3H+gCk5waqq2xmk5gpOGRWolRT+gdgZMgXvck+opirYkpsp6pmVljPM1aA/54CXXi2wRBapwsdawcolKcRLMybRNo+7wIF1+wHr/26z+DL925C//7019CIzWARjJLc89l0jFEpr3ySskoVbOF3TogJSas+7quZ4KIGUHT0mnHI6TFBAMCk0xNFRpbfsbaYWroaxzGeYsy+Mi734A3rh3B4GkNUiLDcd4qV8WmbOxq95uln9IApmWN9nWbFQGTE4eYsX/ypXvx2W8/CKdvAcrtHEJH46AcAp2PIaeOfGMcP/emq/G+N2zEMDWiwDy1ddLJynog9SLyoiBFUbNKvdmAR5DymBENv2nneu6OHU383sdvx+7DY+hfsBQHJstw8/1Wu7SCOhIhFbtVRS4o4oLlI/jQO2/BpetG0Md3swxP4arR2xaj0w+CleZAqevWaioGEptFMcDYQEkNOeiKPTNH7KeenOsovB6bi7GfgiehoR3JBnVFj56QDl0hC9QNKY8UUrcNjrrm4TGl1YRZFm6equVCfE/rpRcrESZpdslNl6qo0uzaunO3jYiv+QSguo9Ko8E09hH5EfzJCgEkjVpyAEGq39baEstJRmVk6+MYSYe4bOM6fOiX3oQvfWsX/vbzX0WrMIpqO262jz/AEqIjTF8BEy/LZI+vxBJvfEkQsoZ+gRTzlmxKY7zMXE/QFu+AVKJdwWDzIDYsTOFX33UjXnfuYvSd1iClDhRVK0pN/aOeMJ26Ow/rr5JTwNQM4k0kUukUtNzxI0cC/Pp/+VPm4RDGGtSLJNkqKxHpd7o5QzY1gxvOW2rzQBczmftYW7f9KtJJjZGTbv7o5dQGKckcHW8TQGRCODYWKYG637AVDQ4fOYzf++xjuGdfAkfJBFJ9Q4jcNKrlCtKDND1KU7aHf8GfxTmL+vDL7/4JXHp2P/rpjRqxrTjxKDySrtfIItLppNFem/gqU8t4iKQTQc3xE1uILxqA2p3Oca7M+QQWPMKTbB8T3tHN7gNiFTx0u+vnOj2iJvuYMx33USaRLXfLAm2RF1hq5Hln9LkaUj/8Xz9D+p8kqAeoNUMCUoCq37JmOs13FBCEZs7KCQAFmkDB0ttBOVEgflJpNdWCQJ8Mi8jXD2M02cAbrrkYP/W+K3D7/dP468/ehnIrg1pbax2l6Qf/ySP+sRzT9xH4Y7OdYKu00D2GI5ASa9KzCTLUlIGUb2DbJCNGQgxAYBUQKCsYahzA+QuS+LV3vRbXrV+FnPl5ekqbwKwhwHHFppRUYwOPyu5OlmsHKw0sVt3ZZrqpI6lG7djHJ//gb76Bux7fjql2H5rJYb5KsGc+uMzLgWgWFyzJ47c++HZcujJvw3fjNkFaIBbej170xaeYqJiKGcSpr4yxQkunZVYiW16ChStkYePpTAO48+FNeGbnfoyRHQwsWGaLk1VrPgGKYEUgWzCYQ6I8gaX9Ln7+nTfjNev6USAgqW28u3S04R6daqN8IUMGLfODoMDCw4hYmBYnxc9YAAuwlINO88e656rvXsoZwGi1AnP0u+u66GZMSWDU4j+1J2l2oZzO+cyxuMw9k+hXN67H7yimT+6YwFN7KthyOMDuaQeHqjlMhUMotkdRTy1G3VuIujsf9cQIgWuI3z0AP+zDdJBBKUixZqX2B4on/RVD87JIDS7CeLFpax4pDMcJUG/UoWVnHIKeQ8BzHK0+Sid2xLgJqlpqMee3alaeOX23gJLAaQOBCLgxM+Q1vqvNUU3UUKzBqWSv0goNytB3auKxfD/dxQC/829u/nbVRs1/qvsEWN1hMEKsFH9ffeVGW2OqnxVvLk2gt/Y/WiOZgs1ymKw2sHXPPlT4SqnZpJ9Mc3k0J5xOSaSTFsp1f8v9cOXUy19jBGp70UA12LQWdfcLALR5giYQS2ROhLkMnjrSwGcf2IPDtTZyfRmMzUwSNPhSNodmvW5zuupje2gaZPCLP3k1qe2ADdBMKUcZlvJT7U+aHdNNbOWPFiBQbSQVUEuAeEzs1I6SZkbakEW7onpN45c0dy9Fx3rqBMc3jjlL8K5XcvJEDQy8IYUThVfBleHH4k2/Hb4nx9+MskviqzWrbW4eXUz56ZFYhpaXYdzEiLoxljTdJCrJDKpyHpmOlyYo0VzmRzeYABqLZStpJ9QWwVpUzvORoHNSLVthIKGWq2iMij/FiFZQqjQwMLjQGnHJcxjIASQ1rsq+UqkmxqT0VYuYTBAaLC36qRqBkdNuucIusWO5hKYz8TktuauWNGNQ7hBZHnOL505QRj5i2PVZRATCYqKfrI2py3xgMpzWIpB3ma4etYElwPRNumZHOuUzi4LprCpZM6l5oopW6jUyP4clCwYQlktwKj5ZJ3OMlU9AxusUhjHNgrZ3umj5YXNeqV8R9UrpKqYbjwnjL1Ueqki6S7xYZaKnOkD1Q2Kz0uVTT+yLmUg8Mr06ycDIUpm9zqBFra+jLaXuefw57JwKqNA5EhIHHhNZNUiSNnmGNKndKGLZSB6vvXwDXrPxLBsPElQryBLtUimaN+LHx0I4mYslrjPixugYtCyGx9zxO3TMrBdz8knz3k50c0OKP5+X+XwMWF13XBgm/YrnV8WhC+3itiod42fVyiOJZLZRaTVMI2QahQTxiEcNXeialvFf1pBiJmIzBIz4d4sFgjWyGrI1gl2tXDQ/umEqDvGZRkkpLY+nTfxVcx3FPu64s2+3c/kTt6/JT/OVJqv16PFcvX0pLTjI+4qzltYRkL06hEBhbVBxO5R0Q+n7fNdN5/ivElX5Agznszhr+VLkWTF5RKC25tgotXnQPMhqw8e0hoowe+McjN+V9py0MchAy07olN/KOfEraX/33g9OYo06lUQs6Bjd7CZB7NRbpERr2KJxwOadRdz32DOYqtMgIouoaD0UvU+zMN7ggGBExb5i47m45rILMMxKWUVYSals1Pgq64HqSU9OQ1GZIcHC/EwK61edaSDlSOdDmswsXyK1SVXsrBTqpTJqs9rIg1xY5Y9FJC4lsTteCgV7LEFWRtWGebzZQy5+9gcrCvXUEn64ak91k0u6SSMTQKxHm276TCAtcfL17z6M3WNltPLz0Er32ehmAzdWsAkyqGxYxoYVo7jpivOxan4Srt8iaY5s/XCNVNd65DYLvyc9OQ1FcJKnG2SRWDY0Chp3NA3Fdch5aMK3aLZpVVnNSa2Xq6iVKkalrJ+I5asLUCLs3XO1lnbH16m4Pd/pmR+0nHIlVCO6ZY6ojVai5hrt3GEmiNovCFBaCWTTrhrufvgZlJBFlJuHho2jiVth8jTzvKCMJQNJ3HjpuVi3LGdDDXKO5psRnEKfmRPZuuQaZ9WTnpyOojbLLJEjT7NuIJVGPunFnUTWmEmzmeWqRVblkU01qjXUqw0DBLWACGyOgxP/8YcAqoNfdhQodY/d8x+GnHogRafm1+4Hi0HFmM0rBKgm7XL1Qtx6x70Yq7XgJ/t5TcyIqS8AIwAlo6bNQ9p4xkJcff4ZGCazktmXVmsz70caX0Vw0pSajlXZk56cdmJtVyxMGep4liDV119A5GoUv6asE5xySZvvmvCSqGpoSkgQYlnRpt4qf1Y0rDkkhiW1T8ZthiIN+k1WxlsCEeGeDTD9IcgpB1JKEkFS93uPARRFM+HLTPTZJk29ux9EengRAi/HF5ScZESZrI0azzBnRrPAxWctxdkLHFsUP6vcqlcNpJKZNBJkZTL5Qrqe9OR0lbavpV1YJjRvdSBPgArh2yR2WhMezbbARyNsYbpaR9Fv2+wDreulOj8uh8eb5OO/sbloQ0VolWicXjwCPnbx0z9YOeVA6niCCKAETjFAiSUFpD0erbr/+qefwfyVZ9l0CTdXUJ+rOKyxrlwygcrkYVyx4Uy85Ya1SDQC2uIa0sAk166bafUYMQf4P+l55nrSk9NVopaGfhCS2gFZEit5bXiaZa1NtY+KM1h01tmYKFbQcNMoIolZvnOU9XaN5UOdU+oZ1oyEQIVS46sofrNuQ3ZclSn552ubtQAZrXP1agApiXhR7ARQ+mjxKcdm4W897GOi4tv245p8Gmm8k/pSgwZrjZptmpB3A9xyw1XQZF2tQR6vOkh/zLZTr4Q+W8Piuv73pCenp3h5rXfOI007N+sh3ZeF1j23yjqZwpEj4+gbHLXlpz/+xa/iY397J54+3MSBEnCEhodmLESkYnV6MlsPyLCSSJMYaDZHtVSE67lI0r+oWUVIF4+d+sHKKQdSXYCKYUQgEi+qpsGbmof22JZdGCs1SU9JVwU2Glhmo5EbyBGV/NI4rr3kfFy8Jm8DK13Nr7OEUwM5c8sa17uN5T8cetqTnpwywiJSZx3dZDmYrZbIjlie1DLOyj0zMt/okkbulPwEpgMPdz+zA7/1x3+O//g/P45Pfe1+PPDcDPaVgQaLjZPLoNbyMFOldZLvR75vwMxFbUTqplwbTPqqMPcUIUGIDSYUuNDO1ehXsagSf27addDapWwLcnFOAyH1SjRRIN3MtJt4z1tvNqBL2UjpNrTzrIY1tBMpAp7WJYpDEABaF0ZPenI6Sjzq06r6hl/H7OyUjZFKqXL3W2gcHIMTecgn+4lZadQ179ItYLqVw9NHavjk7Y/gv//Dl/H3tz2Iu5+exs4ZoMxXm8k86k4KFQM/bWxLOiGbUv7+EHqiVFJPKVGE4rHTcS+CQETLnwmk9o8De8dmCEcpWyzeYYJoATCt5a3lvlq1GZx35nKsW+EYdrX8Jm1nrS/ukaZq0q3Wq1TLlUJhYhpA9UCqJ6enxJrdhpdkmXITSJHqqFcuJdQK28jnhpDT1JgwiVRygIwrjUrDRVhYgMnEMIqZxdhedPG5u57AH/3Dl/CJr9yHh7fNosriMyuikOC7mT4kUjliXqIzleZVAVIaES5wigGqO3iMaYJte/ZjYpa2LxND85O0RlQ8XaJpww6csIFrr7jE5jNpQ0R1n6rlSbup2DK0vERfrWbpZmD3rCc9Od3E4ELDBnjoz+dx5spVyLlJhNW6Ta6vjs/ApZmX4T9Piw2m+oB0P4tdGqHTj5l2H6ZRQNkdwJifxHef3IE/+btP49O3PYCteydtIpTYVJ0AlUjnaaxoFucPHlK+r48xNnZd/OEvxMpuYT/+7EuJPUlP5NTeNNfprisY0fwX/k+0+KsdA8yeQ2OYrjVRF3ixVvC1vG8rtIXq3KiB0UIKG85ebeaiJvZmkh4aDa223Z0Ic6J7NYjlF9NLNWg8Ny4+2pgXg//j7tgznftqE9Qmpzp237VxM917x5xSOL5/3Mm/l+O67yln5COFv9XVrYng0glZL6piNLjXI1XW8fvp2qtZLGUcxwZwLhhycOm6s7A4n0S2MYt5RKlVowNwm1U0SiWEWoReq3ZqgjhBSqt4gqDVImgFdEWahYfLAQ7MhPinW+/E337267jjgR0Yr5JROUmUIwc1Fmitt69yrXwyvWL+ySKSPkmEDl2tiRElvtKJ7UnlJUHKFECeq6FNSz+Y0ugaPZY7FmT3KJ4ipQrJckKbGxfPj4sZkUaRC4giaptAR2acGJJgRL0IWpzN1xIsRZ4pwUg9E4m8zfKuN4GjsyVU3TaCLJlRss205JFcVu1MWsnxwjWLsHKeBw0DseZxNQ7yvsf4pxltJr+xLH20kkXrJmmy6uks+jotHpekWawJukmteimnNUvbNV6rmjt2XayUaannEwnVlTSZ7VrTdktO82jnDnOvVbctC5vMQCeo2v5tfczVDMNJ0a+X6zLa95B+xDnE2pnn6bCMwWAaferepl4NZpIo8LlCc8p25I1BrScnE6WMQEOV9gj/vO7cBfgPb74It5ydwcDMY0gVn0S/ewRJb5pFu4SoWWdm8i3boZUlM9RcvqrpgJOmqZgfwmxUQMVdjqf3u/gfn7gHf/qpe/DUoQAlz0GF1kqNTzdo4bQjTUana6ss66gldogSVMju0kY6t/XajJMJO04uLwlSsYrL6bGu616LoUnuBdJ9xJIpPnaflsGlo4w4/SOM2RNKSAGLhi3l+vhHgy/5YdqUrc5CcHQiwnSpYmZbvB6OIIclpJ2lMueRJpovn08bm7eIYeaf8SeBK51qaRsVy+uKmmJyHM1PX9F3Bmrc7Lq2XMKc9DF2Ote1489oZL92EpZq6VkNpA2oVbHTAnUeSsybBo8au4ZUHnVqXpMKHofH916m6/rtt1NkzzTn+Tsio25Hka1TVaFpUqyHaPK61kSP2h7NDTLqWIV68gJJxKushi1bTmdln4O3Xnk2/vO/fx8++T9+Bz/zpstx+XkLMdrnI+cUMZBqYsBjpdQsYSSTYIXRQFgr2vDCkNbK5HQRuXlL0S4sxFSQR5Bbhm88uBV/+FefwUO7ZrA/bGPcli8mE9PYRQ2UrmpX8Hj1Cimj9FFOWaZj/FcAFf86mbgf/ehHP9Y5P4mwANuYIjqjcULC+Bgv8dE97zCSY/di88rKvy7bIV59wEwJHl0iqCY7ukYHWWsTuRNCYJcflaiRpfqsk/XBVPpMClsPTuHOxzdhvMZCpxWh2gV+WxZekEGKbsir4ieuPx9rlg2jjwhljIkMymgmKa8Gg8ZxU8RiUTyE7vp3qsuLxrBzI17zpyvdc+1DmMCff2s7yul5ZJ05cy26tkbqe3k6HWOn1Tdbcnafaq1NKNwCc2EAEZEoSmp/Pz5LF0RUQjeJNauXYuXaBdh2sIiHtpZQbI0izGjb96z583KcVlNV/JCkqeFpkC79YOVjbYrJApoJxik9iIBmiHacGezP49ILz8cZozRhOl/ck+MivU46LpLUDZuuR6epKykvgYG+NM4+awUuu/RcnL9hAwYH0qhVpxDUJmh9BGhW6wh9H335NCuKwPYWyPQNolzzWYHQemGeHJ2aQr6/gHK9jO8+8D30Dw1j9fIFggGKi7RLq0Y98Fbo6GjxxBhhv8yp/BuAnTA06ER5SZBSERbisXIzaibXDU9Hc/acXHwjhiIlTxeQ4qvHhTUja8dj5iJvKWoegU0THYNEC1qC33budbNU3LwVtAe3HMQ9T7KwtdIEKSoyjTe1VyUjZkTUxsJCE2+64XwsHMrYri/iWWrriEFKzCsGUn1DV+L4nd4gJSL991+8hyZ3xHSiWRfV4NG5dA5/6+jyqGteSBNQzq5XqYwluPydZ22cjipIRUX6U2X+1VjT0sSujePCFQW8ZuMKTBw+gCef2AHX7aeJUIYTVsy/f61L0rTQ9vZphqtC0Y5Y+/I8HbD2DmcZjyprZj7LAqYpTk51HMv7Ilx77mKsnt9nbZA9OVG09lTIZDQLgioRT9ZnHcDyIccstPaq4QEXF69biGtesw4rF82ztPZrGqqQQLk4Sd1qoa+PzIlY4tNFTgpNnvSPzEcj1PirGjL9g3jima1osfIqFIYJekZBkCQbd9S9qJVXtSKfDf+JNTRuxxRIMVI2hpGROom85BrnghHZj3PZtDyXeynRfevsF0Ly1wnNBkw4zZuj52h1lkuRqItU12c1upXRj1paoTEFlwkyxe/4wnc24x++/j2Mh3k03D6+nmPB8sii2lTuCBevaOI//tKNOGNhCnn63c+0cMImA2EcWOMLqTXEv/stOmMW0mkhsZMj+KkkluYnySmrNCgCKd2WIa18k6glsMLv+72Pfwc1MiQ9a0xYX68skLNnmfbKl47/OtdifIFW5mTaZJp55QgZTRN1gkTAymSA/gWTB3HV2j684YZL8cy2x3HrnQfJotYyqbUapwaNvDxRO5hiVCXQaY12xSxNQMy0KtTtFBrM64aTs9UjU/4s1vQH+ImNS8iel8drIPXkBFE+asVlGRLMQCWtCp0KBvNSZIB5mtJa+DSx6dSK1GCZrbdSzM8Id9z/NB7d9BSmGw1rM65pxRGy2IQ7wDLNMlVh+aI+pJMtNGvTyLg+BhMVvOnai/D2112Bs+YTAPlenrqUaLLiE1gRqERfYs1TaRRG8KhxjNbg80L5V4FU94FYnY+7uXKiJwqOJpyBVMxXWkRV9dKpkMTrPvH/HI8EZMKrMbqjNOkaFWBygvSTzx6YqeC+p7fgkZ2HqMB5hLbFkcsau80aOGTtG+BNFy7Cr7zzGqyax/BqIUZzpJoBqxHFjArOPzYPucuk1FCnAaPWrHgag5R2/j2gZoHOt+t5HaUeOu96yVMDKXM8171AQM/fWeqiXaNu1alHWu7cYdIO8bjAm0U+66PmlzBWX44ia1KrE6SHL0Pkv5bElVQZrvROkmZEM3TyUwN4tRqrCp0qotF2BSvTJSRSLDTaTaYnJ4hAyjLYMltHnTABNedOi0Ypc0kKfFobDRa+kJW4Q1IQIWP79o2XgCeem8S3H3oYjzy3DTOhh1Z2GLUGMyDVT4ZUQKuhjg4gl0vTRJwldSgjQ8Z9/cXn4oNvuQHnL+KjDI5P2n4C1vlm0slsqxnp2mJeJ1ea7wtSVrB5Lp2RF7ESxyioowVhaRFfjZ+MQSpGSQ0f8MwxeXhkgaGHMiH1rjry9u2vYvuOndi37yAO1XM4zMTx3BbGxg8jncsYws+SVs6wJm2qQU5MjImsbmj1NGmM1M/dcCE+8NqLsWzYhV+qY2E/gUxD9iXS8JOAlLbz1nWb3HSKi0X7JDmltJe8GEipIXzbwQkqoGowfT+fo7Olg+0piZ7vsik6/mozfUOtdU5kypJJKb9bjh8zKZcUnpnSx2p6eaGI+aMZlOvT2D05QpBaQpOMRqbNtH95op5FxbpGpiwmpe9Q422mVUVTy956GdtaK2DFpAUNl6XrWJVnjZYZZT3TH3vSkznCvFThlVNm25ZodDKxNNpZPXhaIoGor0dUGvRYpC3JopxVbA0Wj32zwJ1PbMW3HnwCm/aNoZUZZkVVQNhWx5UIQJJ6EzfX5FMN1IsHMI+3brpsPd523cXYsNzBEJ9S/4o2hLcIKSDqYCw8Uu/+TSAliVttzBs6faCAp/PlcwLRFZlUel67C3tMDI8FI2K0ZLhpKos2URU4HWXNvml7GQ888hSe27EXpUqd79C8oKs7I6z9VStqFxIlolbibKFOBG7zvjsySswhEM1M8qjdXBvW/f2rP3ElPnjdRoKTBqcpQRhP1RyG3CygjnYeiWOuWMfLTChbiOCnMUjJ3PvJj/w31GXu8ZqxKHNxNWN5aMDEf3zA3tSDTPNAPT0ttwNS0RyQcuGKSbkhXrdxAX7+A+/AHfd9C3/zuScZ3kqa7o1/A0iRFRtItY6BlGKjYRPZqMbcYo45SVRYMLIZ5nBlHOcvzuJX33EtNp69ls+dJHF6wnyOtcLGypn2q0zE16x8WBlmobTOrg5QSKlUWAhgWltKQ4O0OsIj24v46r0P444HnkT/ghXYd6QIhyzWTQ4S71jGZCk5NfTlqS3lKeRbZbz+8vPw3jdchQ3LXGSIT4Msz4mwQR1xEPkBtSrBSk2WEfXv39ImJemqflzYBVBdkGojqjOwXN4+UFN3KhrMRDBIZVkg+Ly2NZqsNgk6aaQK2lqpgU/f+i08s30/Sny0HrnEtRy8TI6mKjGWftQDYa2onwCKF/hRbU8fT4Rz02jXqfxNvpxkbU7bWnuEaZ+2337LFfilG9dhgHijRlSN9YlFmSAzk4nCU32NkkIgpQ52mXosHnrwlBZ9hUX+efL9QGqGX3nJh/4UZXfQnp0LUrFS6lkBlGAqDkd63WVSLmuVrN9lUg00qLgB88JrJmyc0k0XLca///mb8I17HsKf/+PDqDqraIkTwTSE5GWKNh6Vbh0HKZl7BCkyKVUpAqlqK4V8oYB2aYwglcFvve8mXH/WPAz0QOoFojzUMJ+4vKr19VhuW34bWMmGV4mwY6xDekadFvFGlB7qLMcy8ad5ecdEhPuf3Iw/+/tPY3jxGkyWad20mB/Iw0v3oxawWswkMJhNwmnMIunP4NrzV+GX3vV6nDuP3tbqGM2lUJ2dxsDgEPxmyHi6SCVfnCh8H5DSR/EDDaDkOiDVRWJtNUHzywBKi2tl+/i9LqZLNaT7aJ0SS+Sefm4fbrvjPmw/NI0mFVCL1gVO1rqz+RapPAHPoiGbmNhK10ow8lRNY25UTtvQUBtEErETtJszYmmNCpJ8Lska/XffdRF+4brFBlCEJHgBGZYaL9SgSkfIfB5IqblQICVAPH1BaoJfuf4X/xEzyXl2324pAXRitWjHdT06FgYzlUxK1Ndt5viEQKqJVsc8kNb2uT5uvHAhPvyBi/Ct+7bhLz71CBnbGnrH9/4NIJWwYb1kzNrGinlsQpNSvZCmHtIDmRj9vF88gnMXpfEf3nsj3rjGxYIeSL1AtPNxBL+jEd1KSP9YJqQEzFu7GivOMTH1cMSfmIetJKLIs41OAuIIcxYHiF/P7DqAP/nbT6FCgCr6WZbUfjSjDBKFLKrNGjwCXJYEozp9GIvzbdzymvPx/luuwOqBeN31Vq2MPm07F7CMEwRTfF5s72Ri8Xlp4UfMVWa9IlrGgt8m+6kQCTXh18sPos6Pn1G5L+Sw6ZCPu545gv/yvz+Pj/35P+HxPVOYauVwsNJCOZGl2ZCFdlitUfs0pNMa8ZJMMgKU6wT8SCas9NRQR/fp6gQlBu01WaNPT7GQOEiGBBuN4VCj37EY8l3F2eJNYQGcmw/Hk2Lu1dNXTvxCpokBUidtTpDu9bmuK1L0TnpZpRVPX3JaAntlD/OsLddpc3iBP9/Pmc/mOj87onDpnyor81sdHjxXc4L4lY1k7snJJE5Z67+2f3HJmONYPpRTYtZGrOQ6v2Xum2PmuixbiQZN+IpMb2A5Uea6Dcvwux9+P1YMp9DPyirN0p/THo2a2cCKTNynxuxy+kZZ3nP41kNP4xv3PYUZXpupk1jk+lD3ac2Q5GhNKgv4RUT69RKij9AHxWxEiBc71mh0Pp2XG0STNuUsA9do+ilWhl+7dwv+9NNfxX//xG347pYjqKQXoOgNo8ga0s8Mwhcq01813jpahyajsRT0ICjRkzptViJdpE5RpogAyuWxRbOO5l0/TUCnVkSatHIwSUDzZ3HGokEsmU9zhjG2AsOzhLGoONWN1SrhKS+RFqelKD00ATttU07qNIPJTGhCaUpLvCPwXFez6w5dgs/omn7rPU1ZkfNkBtD8ykQV5KIycq2y1YyFVgmFqIR8xLzhfbfNKuhluTictKZQ8Hg8PppuI1dBig4MI8cw8iHDkuPvU58H/2hEJp22B7WdojsuZlFxYTDWrSLScR0cI8FqWe9qU/etUMkcSyPvuszvEF61aEMLrjpnCX7+PW/G8vkFmuqkKDTX236ZR5Zdlr+IWBE6GZSQwYTv4fYHn8Lt92+Bk6UJyWKtAaHqvRdLNqb8IiIdflFRHSYg0e4t8ZbX8Tw5OS190nazKAZt632rMZBHts3i7z//DXzyi9/A4zuPYszPoJIcRsUbQCPZT3CiOmcKBLY8WRLBjoWn7ZfgEGhSVPKsU0UhkUYq6Ee7mkS7xmQlx0ySlnpKHAITGpMYyTexeIg1qL8H8wfKeM3li7ByWdbaUpTOx8xRE8uKzvlcmfvM6S1xy1PXqdqJB4XE9JqOR92L16jmfbUn8ti9fuK7naEbLSqi5vjxXISXRj/ziNe0GgVZjw3WfVkujtPxfNG5wlKYZEys1amBvBXPTHBYaVmtzepOxa4nLxRjUS3CVMuzDhC3LUdCQERSwTcdUF7KNHd8OhpzDoGG5rq1ASYyaLLca3qSlSwRlTBCfypJa54VEd+/aN0i/NS734LlyxYgDGpkU8wxv46Q5py942VovpOUJPM4MFnE57/yDew9UkGtSSZME8+j9WReK4gXERpZJ7+r60LXWFVip09Sx33cL+bYmjIh7a9DJED/cvvj+It/+hfc/cizNlam4uTjMU25EbTpaJChRarVZmKFmt8TaBZ7vCttijWyxlbk2kXWyBFyTK80KWEfA11MQDtz/jDWLR3FeSvmYeWwg3OXZrBueQaXnjuED3/gRtzy2rMxTPzrfC/DiAtYLJ3v6/6k6Ipdterj9JO5X2Xf2gWCOFfplJOd82PX42vGQnU0k05n6ljQMU7COMl4RtNLwCJFFZMRgGiKg2Pm11yw+de67l+J3lce6lxVDOt/hquwNPaurRHpPAowkzT7XrKmfTWL0k/d6XJqGCfYiF0JpI7lO9MvHtTMwqyxjTZ0KID6UyMacW1HTlYUL6uZhyDVbjSRdR3rQVdrzCXr+vEz77wFZ6+YTxJBpuslkMlliS58Xu2IqSx91ZQnAVUJn/z8lxARoMoEqpBxNCZFf2JRpOc6Buu32+144m1XsaRiomrxi/IgoiWWYTz9JmtJhx+TLmCsGaCeTmI/AfOfvvIQ7nngcYTaD8ckgUYmh9npMhKFEaTSA2iS36UyfQga/Ei/SsRtI58kkyIzQjCJgRywYDiHy1etxVkLl2LBolEMDPcjmdFmCaKbSlz6HLXhkTI5qlkZ8UKBJifjGg870Hcw4VUrC6TM3LOs4CEuaEpsu3Ks5tYbTMwfA5GezBX7no5YGxxFK050q6UWv3GainXBz/+VmdsSy1c6gU03XayXmueWvjrjUb1/fpL5qXEwAVkqa9u2U4tNb6Zbuh5hIWvdN144D7/yi2/Et+68E//rUw+h5J6BWpL8Rgr6MkVVoPIk1j+G61DRBXqsyNIBKzJGcDZMIpkrkIRXcPFoCx99z5W4et1qVnBzU6MnEtOCTt7OFc0msKPdpLPf8TWVDZ0JsmQaknex8qGOdFFEbYP80XYIa7KweF+wNktzavehMv7Tn30WY2Eek34CVeZfSGsrkSPQNcvMwxksybFiKe3DB996E95/y1VWwclpVJy2BI5LI2Ng+SmOzDjEUZPoRheo4r/dxzRSNGi04xZ46t6h6UlEBKinD/r4/b++DZ+642EUU/NRSs3DWN0DIQizs2UMLF6INN9pTo/bEHJ/6ijmZR2MEk1aM4dRO7QTa0ay+HfvehP+34/9Nv7y938N//7d1+K9163ELRtHcc2KDC5f4GLjUAvrChHO7W/hnKE2zhwEzhhwsKLgYoQqPcB4Z/lR2lonTn9+phr27cgMsv/xx5tJ033Ghjr8eACUpJsnXfdiYkAjx4d0jL+cPERp0nX8HU8EZ/XUSSuBQ/xs7Kz2NQ3gb2W8tfPFTn7ovgbxSQR4AraIzxgA/ltcJ9x4M1jpIsOg+a/R5BFNFT7Ch4w/IVQB4DFmBD05mZieWNoSeOa4rsgclOGnaWGJtmdOSyQl6FJ0mncnAiOf2kQKc2RQ3cHRLgmDyh2LI5Z4AS5YmMK//+m3ojp2AAvyKWRo/msplnaTMMYwtKDe7iOzyC9YhS99+15sOVg0gCMHou6pelJgyveO7SYd4CWN3Y4zmYHZAzx2VNSc9tPUdIVsmsVcLyXTcHIDuOfR7firf/wCHnjyOQY+hFo7g1qN1L9/PlrJfpqi8xHUWDCaNAn4cYVUA8OZIlB8GiPuAfz0G9fhn//yt/DpP/xpfOiN63HOPBfzGN5oPoNcLp7iwM+zf8KZeCNPJuqLOnulJ88TZXmgtgUWaq0iIBfQqZBHPLZ4lItU6Ol8AkLTyfEZEnkbg8YasFVFqlWzBnVdE7uxeZlSQFMuKloiyXfUVqkBvTFw9eT0FZU5WyeuRWjhMUnW3VdI47pLR/GRD70Xs2N7MNKfouVDnREVYqUWEPQyg6OYrASYqoT41l0PoKz+Mvon9OkgUSx2QX+IRQZSVmsJoHSMEcyu08l/LdnQIiqK3s00WnjsuX34+3/+Oh7evBepoaXIjixDpKU7kn1wUhov4ZF99cENicy1BlHVw5JCgFWDDfzyuy7DX/zeB/Gr770C6xZoTg8dgxxm0AN0DiPtM7xmo8EjzcGIcWG4hKFjcTqZ68n3F9WqJ6SaWJEBypzfx66pgvKtR0+9bqmWFszTfEzVe7FZJlF1ZvWeenIMpDRRNH6/J6e3CKjmin6xxON9N6/AtZecA794BFnHjzs8SDJaIcnKvMU4OFVDanAxHn52Jx58Yi/qxJgYqGTvnOinaZhAKAYmU7XYqTGN1+1xoobrRbYlDokS7nl8M/73p7+MfbMhvOEVCFLDqE+zdiVAuf2jaBTV15eG20qiMVUmQGWxYjCN1120Cv/jdz+ID77+PJw/1MCK1DiGmocx4E9jKKxjQKsZaBoWw82k0shkMnb0XM9Uvq3VDCxOL/avJycTpYvMJzVqW8O2kWulJTPTnM7n/o6d3klpZUyCk60hT4DSOKh4/S+BlFgUqzYqKt8wkFLvr3p9Nbq/J6evWLsnRdaNDZimRFFEEIridb1ow33k/bdgxQjLcLtOa6pCRaGWpPKYnOHv3DwUwzQOTvu44/6nMEkDixooODKdMjGzNHYMwVRtjosfU62rX6LvJdqq0600bn9sKz7xtXuxdayBJs25irEnmmaaSxU00arO8kUfgwS1NMFnWT/wuovPwm984G1kUNfh3MEsBlBGDiX0oQGyQaSdyLqtQaamlRyk+i211KvFXonBAqP1p7o9dip0J3M9OblIhWxqSVQ7wWkJlCSdR5bk8b5cUoBEl27HrEnq0WVH8RAUubhNa2771YkS14c9OX1FICXXZVLHfjPf1XmlhZQW0UT6mbfehNFsi5RFY+5Yxkk4CBg8Fmy5pWKQwY5Ds3jiuXEbxhTz87h9tEP7rczT3HshQEl0pit6uUp7884nt+OTBKhnCVBB3xJMEQnb6UFEZT4hUAlqcOqzmKd1NUpHcNb8FD78vtfj3737PFy0GljI+OVRQyFQgdFYF2Kn2BHjojFTCbXO6xsSMjUTjNhxjqRzY1R27TgwzXVzot6TOSIIEfB0B2N2XXdwpwBM64p3ndiTnFiTAMl30jTztR1YysCqTaeM6ja2d1LfmgykS7E+9TLj1SBdcJITo/JcOjSRa1cwRDW5eO1SXHHeavRpoLYYvE+KlR+ksmRRCslQ8qM4Wgpx90PPYJxsKub4cQXY1SvpEkGKCiWw0EUN/6Tyae93n5c1enyGd54Zg20U+PjBCuqFZWhkNA+MxM6ntw4VszmDVH0My9K0Nad344Z1C/G7/+4W/OS1A1iRBwbptdqesjQBkw4j2R6OnfoFEnlEbgpNN4EacUq7wHQp5MlkbsLMdT2J5fm1mw0hYa3UXZ9cStDWvDhN1ibwaHKJOYdsiUe/TWAic9YwSZ81nu8UUHPyaCRyBCmyZod1JfNLNR4DM91RGDIjNUxFbg5p78lpKHPbonR+rFNLF1qB7TMgYFrUB7z+yguwarTAirFGRSSb0rrn1J8wchG4WZRDB49u2oH9YxVbK0xIVPOpU7ScWgI1gZT8ZSjwa/QklUG9GdqcmwpfSFAfnz4C/M2td+PZo3U0+5ai6AyhqkVm0n1IZtIoeC2kqhM4c8iFN7MHP3vzFfjld96ADcuAUQag+dFyaWpyosXYR0StiLFv0RZs95niN1k7azmXBp+L6HryAxRqjsN8TXhpsh8bF26bHmhr7ZrfQjLbDzdTgJPMQ+uaa82mltYa14RuVW1iTinNECBA0dyziqzWQOhr0CbJe9JBiieq/1pBnYS6TNNcqtaTV590yi6BKkPlKRAmzl02hCvWr6aFJbZFhYoIPKrVwjZqLQdRMseji3sfecomLxOFqHLUVzcJm9rW0gBhaRp/NLSigaMalbVrko6Vrebjfe2+p3Hr7d+zycE+GVSrTQZFT6WhUXUGzfG9WLcoj0zlEN792gvxobdejvNXeBhJNMm1ZhjZMutkBi+2Y4Edd5ofpIW1pO5yWvdAn2mN9i/T9eTFRYRXi9+1WIM5BJtUfgDZ/mHkhxagXPVRrQao0TWbWtNLswkIaAIp5VOb1Uboox2o3ZAeaUmNAfJiTX3wNQdQo5UpZsLrPG5U78mrUaQJxAaCTOQ3kSJzWkxOcvWGNVg9kkFejUcaDM5H1NZsOwEl04hYgd75vUcwzdsiRxpsrKl3tiY6K7y4c4+e5weGrIbVmsea/Fcm4H3znm20F5+iVbYQ7fRAvNClXk5TgRs1uI0SRjMtpBsTuP7Cs/Bz73wjFjBSLmtbj7xIxoRqWAOoOJhY7wmQkUDStJtxoVO81SQVU7uXLx2vejJHRMGVrmcuGbHNChb3eRh0fSSbswiLR1Gf2I/hvIN+MuZcKkKWFD3vBig4Ptlvg3kR78nX164gHZaY59NUjAnWXhNIkT4VaNulaKZbnjGPFV7SYw3Y6917VYqazkMVbNGSehMeWVOS7PrsRQPYeMYia5O2+bdpPpMlC6LOaF9ADW2aLNfx+Oa9kLGlIQl+1Fm+SeakPNbSrGokrZD+E8hsX85NO2dw+3cfxOGJWSxZvjpeJUPqyJdYhcJLhBhKtTDs+bh07XJ85APvwJCm69Bj3XM1elVt/ba8KIsKXxU4iYSxsrbpRPJKI1r1RIafqCGc3XWuX7b8W987TeT57XLddgNmJf7o/3on/vuv34z/++ffgl9912vxszddjLdfeTZuuXglLliQxPp5CZw1EGJVroHFbhkj4TgKtYMoVA+ir3EYA8EEhlHEkFtDxmsgmVBju1ZEoJEuOq7wWOtp6IGUS7rVk1ejJKgDaQShhyTZVJoVWMqvYiTdwlUbVmNBjjy7MgEnUtOStIbMnYzK1lbP9uHrd95n5EjkRRNktBCmxP1PH/voxwRU1qXMi1p2bKIMfPWOB/D09n2oapPGVBa1WhOJXF8MBvUy+lIEo8pRXLvxTPyHX3o7hohH2p5GlWjU0qTTDH/LZFCPkKZeUHk15ydB80HjsGxiKBkXI+nxeW2q4NHitKLVKWAvW/6Nr51O0gWnrmgY7BCzYRFrgDPmARuWZ3H52hFcv3EJbrx0JS5buwavWbcSl561BBeuno8Ny4Zw9vwczhjNYM2KISzsz6LA/HGCko0+d1QBMS+1FGyeBvqK0SwuuOgc7Ni3Hw9vHkc1MUI9Yhz+DXmhV2QqyrUSHis16Y+kBW29lXJaaLCqTaRYpREcF+ci3LB+MVbMHzYw7smPVgxHSEDK1QiFPPMubKIdEJBozuUGhvHcgXHsPDzFiow5rT0dbetrYoVDHGj5mDp8AJduvAwrR5KGYWm1SdGPhN9utUO1JXQAqkig+PaDu/H3n78NE40Eal4fjpZ8ZOYttakTarPQHmy5sIjrzpmPX3nPTVi3kGEFIZFTs2+kai5ypE2aUiNUNAZlK22Kp2mmtQBKTwnRutSKzEv0SqvaScn/DdIdWvFqFDEp62GZA1IiV4k201zL8qo9SaKMl63P1Cfp4blnx4gZpeWe9U4YtFD1fRyhfT9NhatMtVFs1jETVjHWCDBVC1E6XEO7PItzlqTwrp96LW676z78r88/ienEKuqJVlbVUAQGbX+78sIMivUllngIg+ZgRjQDUvSnXx/Ah0KaqFM0RUPMBik4+X60/AYumefj9999Ka5ev9rmkPXkRyvKyyazUxvIaAhCuz5NfWzAT/Zhxu3DZ763E3/11QexfTJAYmA+2jXqJYt9LkGzkM/2EVd+/h0344O3bECeajtEAHFoHiba7Wa71vTJlgrQCjCbDob4+9vuxj1PbIefGcBMo2SNrFErj0SUZm2qvfhnsXokgY/+yltw3iJgAHXWZOq0TqHVsjGnBkJd9RN4aL1llhQ69fzEqmmt9ub4dLdRXYVMpy9X5E3n9FQWG0cU28726wSnQ/znBSKwj9+K006FWWksOd5xoCvx1e4l3VO3RJz2EoXT9SH2LX427kY24QUtoaF1ra2fjq9a+HR1XmgwIsUprQXWRH+6jQWLBrDvyBie3HoER0rA/mIDh2bKOHz0KGZLZdJ/LQTt2GrTaqUMmd/awt1NpuGJFfFeEEXwtcgdAS5j+pCkKZCB5gNGXhJOUqYBv0OsWz2K1WlcQnr4W2+/HteeN4p8D6R+5NIFKeVEVuPmwgrVjHmmoQaJHLZXgV/+vY9j2wxNvOwQag0yZC+BJLHBJePKJ5q24MDf/cH70UcdG2JdmvIFUq1aW9R6NnBRcR188d69+MfbH8H2iSaCTD/Sedakk1PI5BYi1UohHboYSZbx/jdfgXfftBAjVLscZmTUMXa0+VqxSSg9m1N6etIR24tQhc1+CBQsoWLXAY+TiRiy+i2UuMfHesdAZW8YyOuKa2zoWMrzsu50oejlyPcbfyZQ6zI4HRuNBsqsHUvJAcxSTyrVBmp+iHK9iYnpMsbpJmerODpVxL5DY7xWtA0/xebE7tw+l2SarL4W0Lxz4WkidDJPNq/FEzWei2iZbFGZfeRLR3HJUjL5t9+Cq87N9UDqFBCBlHrrlRMZTZ0Sg9eEdEeL5+Uwxuu/82dfx13PHrDNNiqhg3SWeUxLTuxZ29MNRLP4+//nV3HWUDy+MuOz4mq3GywyaRwq0yYMU/ijT3yVnhxENTmMZrKAZCpEQGodTZaxcNFitEol3LBxFX79A5dhVUHtEtpKsMyioViqxT5nDadxeespzvPFwIK1TBeQYiaj8zhzhTX263lJp+vxGLIuOMUTU44nMR+wmsGuGvPpik4t3B+gdIEpCAIbzOe6bnyN98T4xMDE3bpOY2AqGs/HKMqqj3cGAmaKwKEjUzh0dAwPbtuKveNjaJKFJaXArIHr/KZJUjc/n2elmWY4rHXJ7t2pw7hkxSL8yrvfhms3LkG+00/dkx+ddEFKkjaQ0tCjLkhlMcnrtz06hf/yV58zZlUncmQLBdRZuamdM93ykamP43d+8V1462uW2hIwGTKsBCm0po7iMKnYA88dwX//u3/B/ioNysElqNGT1uw45i9fgvF9uzE/7+HMBf34hXfchKvX50CLD1mqYEqtWaYj8c4raln4YRSM00EMlJg4SpmTpY6uxWn3QonvmQ8GUvHqFZ0b9saJINX1P2ZbJwvt3y4CqO4yHQKp7iwBzbtsa3kOTath9DTaPeEk4dKsU2+NwGsugClWIlM16nKdRJwGAsjwEZSB6nQF+8cmsYum5OZDh3G0WqWfZFqsXdPVWVy8ehl++ubX44Kz57Oa/cF+X09evkjvujueHwcp1kROmuCVsS2xdrGi+unf+EtMR2nbMl8DN0OyGoGUFzWQJUi97drz8TsfusE2FM2GDSTq1LJJDaIiFfqDv/o6vvPkLlLrUTRI2QMNDqDSJWlXjmRZY5b24+fedj3ec9P5NhePhh1NQEbJmAF/sCaNt41SIaJymgnSk7lia8Z3zrvSTaW5qfX8lNNvkQUdY8BhmhtIdQunPWHuBwVSx9qo/pViwBXRVEtQoRL6yk6cuoiUoJLJ0bQLghYZd4KWXpI/aeYxekfp6ny8j6/l+bgGsfAxVOmVT1UUgBVZH5ZnmqhNHKX+RVi7eAEWDOepoy//+3ryg5UuSElSapMi/YlBKkWQSoOk2djUv/vYF7DlcJEmXwE11lBeOt7X0SFrGmgXcdGKAfyP3/opLE6TSWmYi1pHmO/YTQ15cts+BF4+3mNLfJxVXsLJWitqvTiBc88YxQVnDmGE2pMlgU+pAdgUkIpHFxsi6uEL7NiT7y/K005RPuZkOguQur/tGf7uupiKddwLRA91Tu3F+PSHJV1GJSdxtZSFDR2gM/Of7DqhTTvIdaSsRE/NIfTSGSQzGTMThbUh9a2PHy52rg3T01GEVL2KHFnTPCe0tcaG+WkryLY2LErjyg0rcOG61RglQP0bO4N78kOQrsqZaqqSmzOwV2caKnLZhedB+xuoI58KRKRgFcrKS33+6kyZmS1jelZ8m69rYQGBFM1F3PXQk5j2NX8ujbqW+tTWxxo9TG+1xvEQTb3zz1qIdSvyBKgppMIpghjpXLfKpmN4Bk5ta+LtgdTJpJuJcl0QEihpUKuNGSNNtvWfmGUuf2u54+MMitJJ644WxMfuNf0hinVv26UfknRNvbmiayFtPOlQNVFAVZtxOFqWI0eXJRNKsxLMIvQ0USruc1TNqxEoTsoxBVbfcIY1cLpVgZfQ5q9lVoazGGqXMY9vjfC+QEwsPsf3XibZ68kPWZQdcZZ0dMOASs0/4lkxO778wrWkxnXqdQupVIosWnN2NWqSpcFJ2k7ok9NFQxDNZ3AaPNMw9Eee3Y6qFqrTcHNXNSBv8J0kVSnhV7FwIItrLj4Po1Qm7f2g0cYGRN1YqbQpPnYaR6gnLxQxIQMlunhp5hZcjdqW/d7ScFtRZDJUmk2aM6feQKWn1tMS8MgsaqmxpwMQrYBF3RQh/i3pKsT/aR4IhF7MzRWZhV2nuNimFxYBXYuf0RuqVF8KPLvpoiV5oLW0tcOGLiRE6ds2M0FKbpfoJOZf90dPfqRyot7pl0BBFpZAKs47VbgLh2nOp2jgEahMG9QEQMakweRtgpRPy21qtihDzliWozakrbtbODpTs63PI9Jym+1Ouq0R5FonKpPwcebSBXTzkZGZJ6bUGaxnodN1lUXRikHqxVTx1S2WdUyamCUxfWWzm+3ecQEzzhgqr2sApioLFlA1TCt9lXEawyS+SrRgYjPFu0jwCqb5ydqrdM0hEunO8+9KL7TlmJwBUcfpfK7TNRN5oMWtu07CzxOwzwUqffEr99U9+X6iPDmWL2bqxTklvRdTNrbMy6MDeZp7xAnpMJ8zQCNI+ayFVS3PlMrGpOSPadQ933sIs7UmnEye+NRhUXzE0wJopNkDmRDXXb4RgwwvrUDVjywwUwHhfxs0zqM8VHRI0OzYk5PL8Z45Qg6ZUnyM09wYhIQ1S4LmthqOtTqKKpMGj4Qx+Hy25bpoaoa4ViXoaoYluamHTkziXDj++4ctUkYtCKM9qrNznJlwZIvmbGE9rQSq+X9dp998n1HVWC+byK51r+S0KYR+U8VNp+Xi4Dryyn1fT15aji9+aL+ot127Kv6b5h+tN7Vo3iAyKReu6btAhPdpwWnrdS1JPTE1Yx1MKhWOz79PPLMFdVkYVITYe75AlHOpPGmnisUjKVx07rCaQlmL8W9EhVGjqOMaOFm7Au9JDJzUptXj4C8qcXZJdJzrmJga2Cgmy7xQY3PIQlplImtXjRprGS3q22QuqSmw5aoXL4FA29Lrdd7rOoGFXaJ0j6+MsE6kyeoSgOLt2sUM6QhKsVO3dNfNYZDmxC55YDrYyHSCUkTIiwhSmriq65ZKfKaj2nRaHkaq3JNTQazytfZKHogBseMNgRcr5AxPVd3MHxmwXI5FIMUDmVSTNbKGrUxMTXcsBt4dG49o/5WIPjTiNImLPmqvrBTNOS+qIefWcO6aBfFcHEGblv1sa72CnCkSVc1q9y7q2R9Rqx5InVQEHbZ5gQHRXMcETihtPQSsAJqsDrQAmC+WysvaeMehrdTy6JKupXmLZpDyVnuhmR4wyW1fNTrR6LjRXXdeOYlz3WITOwtfToox5/rJhJcFQBJNo9Em7nHjAsFaKi3PO8+49I4pRaflErvK3pMfrXQrx7ay6divWKSLQgwK69SR/rytOWV7F6hNirnYZjmwXj6+XKlS+/mq3nZ27d5Fc0LzodKINOwgfpxKEFBF5Cq47MK1vMYXrERouQOt0ijFUW0XA9QxNVEVb7ZfN3I9mStKFqWVClxIKmyLewmcyJi0frg6LiKacLMkHTsPVbFlfw3bj7Sx62iIXWPTmK7VCEqqHDSJVwvUkX3w2IWAWI4ry9yrr4RYiI6GG2Rj58pRX1wtNEYn3ek6W46467L8LS2LRbFX24RWEhVXMtXrfgqPqrG1pbtSogdSp5Aok5g36lyxTp7OJfuj5gmean+Dof4+/qRpJ+YlUd7zhWRKjDlmX10EcXbv3kNzgWqgmfG6oXYmjRoOm0hqgEJUxgXnLbOHWYHbM6rDIk0AZZAaEaWConlVNjZK9zXvoQdSJxUlTxfYzTGZbLtqAY4c86HBh3YenMBt374Xf/upL5r7+Gf/BZ/87Gfx8BOPo9HSPv1KXwc1v3EMoCxrKCJT3SuvdC7IJBO/0ZKHx13SpqDL1QjEcnU557hr0HU8sPibotIvfZsgqKPK8bfZ9/GqOh0IUvETPTllRHnYOZV0tVDL6yhHNbp8oK9g/SHH+l90QmRKpWna833X0+wVlg/+cbYcmUYjWYiVJCm6xfpXLxKspBDnLlmKBQQnqZCsEqmEVEOrGqgFK0dXoNP0GHU22oAfPXy8UuzJHFFnRC6YRYoVgQbRahR1lc4yptVA3mlYkXtsz0F8c8tB3PrcNL6yYxZf2jyNb2yt4bvPjqFWI79ghmurIHUAyjSsEwxCOmsTsOEMdWkFc8Wa6c1JWRhMnPnMZ5+uTlejq3bOm3RhgjWc5bSMSuW2GjNZGXXuN+h0LrNVo500/cFGF9Nn6Y7MMalA11FtjOZLJXSUs146RlWN5Ul+sNYSs7jxIQG34hp3wsTv6/l4y2+K9NMYqDZPms9YZhn3FmPJt9QA68vxi1X5EshaiSbjGzDukX2zlqqOSGXr9KeUqPJ7fD5D7xj5BE/klF6ah9bgO3W+6/OZUDP6bSR9FzJ7MleULZZz1BXLos7RYd7E2ichThCdMumkbTqs9isxLBuRq7WjeO43NKlY73T05kglQJDWbiD8STMi9p03BFIsOetWrKQKxMqmrGnykcDhGY8CqQydgEokTSAlEqWloXpE6kVEDcfhJAGpasVfQCU4sMVMoirxZQazlSqeOTCGXXWafUOrMOWNojh4Bg45y7BjsoWjYzMs1JGtIZ3LFoyRCSKMTwikNHxBQMV8UT6oAHbzI1aWuJDp+e67XaffEf+JH6tAJlQoDbQUwxOfs5aHY0MoVPTjtgiph0BHIGRg1AGYruv+tvt6ruP0dqi1qOiHpAtqMUjFHM2W/rB2B8VTV9Q+F5u9+mcNGvFHxOdtxT3kP+o5L3ZvKZn0Th01u3PcCogfUKURr4Cm1Wr1duyPbnbTrycnEyWidEz5xawyoKLjUeAkNdTWVzL/zGTXBfvD9whQbVbeakftgpT8cLSl+UvJ0oULO716HYXhm65qUPp53Ok3b1hJ6HqtY09eIFYZZHj0LE1TdHH6ClA81tgZ7J8oY8/hSdQaPjLK0GaJz7AosWyMz1axacc+Fkytt+TEecH3lTdK9Vh0xiudtipJnCsaHKoetwrZSxG5Vhn9/K1Zmn0sfFkWQjPipWd8Os5B/ZCiiSnHetB1ajGKGxwkPNrAU4alF5/npKRCAFNa+x1fP6YydNanRz806l7+GxPjawZqBi0CEh47To3nLk8V7wK/zaZpCf0038JjbJMpVpqqPpN832EaqlIl7yL9TDLe+aiOft7V+54Bu76BwVi4EZ9Xb5TeUT4xrTspYEMkenJyUdsSXTy4N9ZEO9eZI310yJbJYpusWjymqpqZlP8dNqXKIpNTiseXlR1Os6ka9+Sih1YtXxYrJZ9WDanBeJ4Fqvvx3xMcC44wtJPXPXm+yGZ28swKghQTSdkhkJJRphG3YXoQu47M4miJ1JcZGNaKWHfWcrSq0zavaaJYx9a9RzFbbxlQKZ1JqqzYSCEsW6UdDEewIpCK84IPyRnr0ZAAGppRia5IBlei2VW1pTI0NUcK1bbCaCpmR7GcGKhiEBF3OdZgLRtNjmLrZem6jRLXudiHVmPl8zSZaETxd5Pg5PMVMhiHDOXYSp4EOflNsNHmpAZW9lv+6Lt40FFfJTuXwOLQXHA1qZnvGhAyGhGTWJ3QARNFbX3UWn6NS6CJO4TQVr9piezNR44Pa1kYKyRKG8bLnMKm3yl6maanKb7vtmkraHiNpUtPni+xnkn3LKMsu7pOfzVRQiClYU9TxTJ1gFovc09DaERtmX8R011WXMT80C3VG472cH8xkXounDcSgxSd0XUdGaqUw2JlDEpKLGNPR/3m9U7UevI8UVuK28+CmTKmoHUpVZMLADQm6ki1jUefO4DphmM9HW5Yw0/dci36HY2QcjFDcNo7XsE+sq2Wp7dZyzNTLH+6kGS1mQetuKAr8VVdl9Mv5bkUgxWULS0sFxdMMeJ2WwvMkUewQMY9uF3AEnTRzGRh1gRRGw+jUPlNUUIbhqraov8EJ61jH4ejb5OLAarrFH5bZiQBypYbVg2ouCkOfE+j8RWGjYMykNI9xV/6pa+WU3wVb553epS1mqhWUiAMmymtNx0xTk2CV2OXwE3f7VTj9/wcH2JOtFgw1K5l8eEzir9sPnXDytPQZVjSfpWKnpxcmFZzmBTPzBmZ4e82K13lhyyCyZkyb8ZTZkxkoilveCUkaMk0VDrLEpQfLyl9WjODPqtAqSBoNxjLXDvqCQVCZ+exzDntyfNEI3CbrN0FIDIpPFu9UEVKfMPDgdkQWw9Mo9ZSIzjN7eECLl8LrBjOIgpDvpfG/skqNu85ijLzRdnazZt4QIhEihJDVtfF7TeaG6WhAAN0g3yJTuuIuwUecwSbLLSdus84qtFYjfE1glWNvjfoBFimcooYdUBDIBpOFjWaVDUnyXc0+FKc8Lh6xiKNiJmYYtP9pWflp5YI9h36L5ZpzGfuexQDW6VZkmHKhKPjucxjKXo8LbnAdM0wzopr3M6nAiGf1PZ1bB19pRbfjzSzwunj76x9d5XfUfLSKLkeqnS+mSF8XrseWSMrv0cALlXvRq8nLxRVIpb3ElVbygVlAIXpLg1VFTVVrDAfPeIZn9fjHv8QnNIpVogEq0IhZ3lnt7VUxosKFVHmfUT7MWbSUk4G2gUqe0Z/Ormmy/GhJy8iyjIVIim6mR6RWExscuv69qMV7J+u264oWpvp0nVnYJRZdOk5K83UzveP4EjRx9b9ExhjZSTqrNSX+WV5IzEQFOeJ1UP5IU6iIQAlcrfZRAFFZxAlZ5gFcpgAM0CXY0H1rMerIcd31Ouo3kc5wShDoF8qvDwRkAnEeF7pOL0n0JEpe9wsktMLsXSbCGLDUS1g2tI9YaBi65kz3jFrk7YR8PgtAi+BZJXvVBlulQDSoN76BBNtD9+gJpfpbYnuxLjG3N4SwRKCAKUdswnKxUQ/ygQqkaQiMWiGbppPayHsWX5XlWAYafS/vlfxOYZMXc96cnLp5re0TukkLew2FsT5UuOlyXKNjIrmnU2W5wWBG0Eql9PyPcDQ0IDNENN4K5p/8vSlpbtWkImZeXT/ivd68kLpZpSJGnrNaVJlCrMsqY9t3Y8KaYzqADeo46oL1tp+hDdcdr7NeVPPiHZS2bTrEMEqtI0RpA429MDOVLBVf3ULVXx1vFLDnmKAnSzBz9SAR0rAoyzRjxPoHp8BtvK4fRbYOQXsnQYO2oYKvDbBI5/fy/MjRK1ig2anlIuAoqEI+/neHrrn+N7OsTbN0VgtY0WltgkYBFi2D6NMQjX4C5zS2H14BruPVnGA4e9n2FP0X2yvTrPMAMvYmYcZpsu+ad/isIfx2jIWGShNM+lK/LgtjOPtm4DP37Ub33xoK57ZtZ2poHazKpkq621tnaREYDRmmEyHyKp2hCncvcPHlx9r4zN3H8U/37cHX3liB769dSe2zJbBz8EMw9DuSdZjzd+BVqZgDON+zp6cTJRO4jCmwGrns7a+mD1LL7pM6vA4M12rrQicpCohryqd/SYyySQGNY6KlwVtiQt+48/bu+s5lEn/zRQQcrV8ZKMaBoMp3PfnH8Ziep1Oi/LyLdX+rM3Mc7ugQKy+im/zp46qf3rW+wtFBZvlDP3MzWzE0q3JL8zVZnohHh4DfvV/fQW7xku0MNJY09fEH/3mT2PDfGCCj73nD76GfWNFZEmNs/4U/sPPvxM/cfECzGfWFMgfBFRqjAxZwON2JHqtMMMmbvvO93DPM/swHvXRpBkhg8giWxhAVC1hgLqSDCoExYat0aSRwJEG9HqMF+OWKgwjqkziojWL8I6r12HVUBKJVD+OUhX+7EtPYBtZnXZ/WZ5p4H2vvxwb14wiRz0QVY8Vg+qp9ib+FjOqUVNrLPmf+NxX7XsaWiIoSuCdN16K6y9eac1BYv+qBzWwdfeRMr787fux88gM3EwBixYtxHvffilS9HL3lr249d692DbewszkFiwc8nH5+lH8+k+/w3YxSoU0KXyBYhYz9LdCFf/ktzbh4V07UBlvozFJRpgkOuZ8xmkahbyDxSNDWLd0BV570WW2B+Ew01f7wPn1Mmt6JaoDT6Ple/ICUTOG8EmVQ0JYIQ0kI41o6okJsy6yyvADv/En8PPzUWmlaFpn7D2tADLsVrHYq+JX3vFavOXqtRgktDlaSP9FRQHy4MhOFKzJ2cqLOtEdihRxzrl+2qWenFS6aaMKxmxomWUNLRQHPLljHPvHZsl6tWpAE5ecuxrzWBZUHPoJJDdcdA5SQY2FnwWLzOTBJ7darVRtqqZiRcHrsZlnw2p5RYYXORUp9cGDR7CZLGH7nsPYeXgam3YfwcPPbKcfm7HjwBHc/8gTeGLLNjyy6Tk8unU3HqZ7YscBxukg7n1yGx7fuhcP8dlyVWDY5pGoSVV4ZvdR3Pv0Tjyy7QDuevhJjE0XLexjamGO+tJRoJC1mM9CXiY72rpv3Py++4nn8L1Ne/ntM7biQ1Kkix5I2bX+uXo0nzs4ibv43H2b9+Jbj2yhuQbc8+RRfPwLX8UDW7Zjz/QswY7Pjk2gOjUN9RC2+d1NhtVIZnGYCaXC8Uu/+wl84Vv345Gnd2PX2BQO12ZwcHIMk9NTyKVyGD8yjcee2Io7vvcUPnHbXXh0bwNHGCeZwYHnMX4+018f1ZPni0y6bpbHeq4zKXrMpIQ00vO9TFBVpDL5bfoMGapGDOh5l5ZalgqwdPEiqZfpmhOGL01dm7rN2lUHBWKmuapIHS0mnWjNyTi73JOTitJGZVDO0k0FgExC7T/fffRZ1jhppDwXhUQTG85YgpFs3DDezxeuWrcKw5kEGg3aVF4Gjz27AyXlelImniBJ7TwaehAri9qpaDAhKQVggY38AGHTp2sQGDVwtIb5gzkc2LkV8wZyaDbriFwP040QyaGF5CFpOAWyrlQfCqNLkCmQbYtZuQl4GodECTxtGTQPib75tux0MpM/XocdU4nuCeNB3WGlam3dvscwychahVF4w0v4vsY0ddKIf9SLrHYJl362M/3Iji5nQizA9qMlM0c/ddvt2Lr/KBlQC6U6bUFaAM3SLHL0JJ/IMp45RKkCtK/IsxN1/NYf/yWOaGPTRmQGQbNZRX7AxdVXbbT10rY//jjceojB7DD2HZzG3Y89h7/43G146pDaqyipLNI0URS/npxcLNuPJRBrjU4zRLdNSqrxxLNbqbMZW9BAu50rr1PUCw33APGokE5jyQKtkhA/7zjGyU8u8ni6pNG6HZBiKArIBvJK8fWqsQEVi67Tb1636Pbk+aJE17iotE4CpmrkIDkwij0sY09t329jpcR+ltAGW7NoyNbwUprq8ZXDDtYuGyUrJqSRMRVZoB5/5rDNqZR5pzFB8WCGOAs01shlwVUv4toVy3HdxefjugvOxPXnLMYtG5fivVeuwk+ePx9vu3QFXnPWCN58/cXYuOEcXHfjjQSQDGarDVZSbTK1iExjFueffz6WLaLt6YToo/mvDWirfogq6c5UqQY/JBAGvjEgi8AxR0RIkNnQjlPcVNmp8bRM4Cy3aQIwDY5USXXIVATekS8GGKeVXh8cyKNS92miJrF/vIgU0+vW23fjwPisLdJYr4xjyWCIDSuHceHqpVgxOMw0CjDNZJpkgN/d5+OPP38bnuXzNUaukE7i7HkD+NivfRB/+6fvx3/+yPX4u//7Z7Djm3+H/+unfwbLc4NYTND08iN4Zu9RfPG7D9kmAlV9BmG/rQllPfn+YsnEP3ZUTlqdjMee3ASH7Fb6okrPY62mGQUezYsErYjRoSEwy+01DSl2l1z1po/NhrFdaLPxKRqXkqSCp1sNXLthBVYuKNgL1Km4xZ3/DKPk4hgcF4KW6WUnUj05UWx9HaZjSuAeshS5WTSTSXzxwaO484kdLLwxi3rN+uV4/aVrMSJEY340VUPQZJooB3iapppMulQqg0R9EjdcuRY844Pq0o9FrYQp9XPR7EmSsSxdvgpXXnk+XstnX3fZKrzhspV4/YVL8doNq3DTJWfjKoLXlVedg3MuOAP9ixdi085p5HNpTM/MYmTBElyx8Vz8zJs3YBmZXCoqQttUHakl8a2nj2C6xjz3Uhh1yriB/p2xdCQGYVMEQRIBiN+rZWRqvEiDFSV+zl2PPIexOhU1P4CQSnvTeUtx8fIhOEGdbJIa1ArJMl2U6MXjO47QPCsjkR1gMiRxcP8eflqdTDCPn/vAu/Dz77sB73/dBbjlNVfjwjNWI5fLo5VJYpxx+K+f+CY2H5mBz9p78shBXH7umfiDX/spnHdGBgO8P8oY9rP05BnNc5aPUsfn4ann9qLsksGRPW3Zvh2XrLsIC/Mu5pHeydyOh0r05ERJQMPKhAjesU4hJqxDdk8LQb2uW8aBf/rynayl+2ynGO0UpM477aPQJsPPU1euvXg9rlpPc4+vZkiAnDSp1UvJxPSMNV4ak+KRumUzk1VbKjKidlK+7jpG8VU9pWNPni8qu5rOoTXMlaka88Myjq/f+T20vSySBJ6BfBbryAjm9dOGrxZp9pBtsXYYool01vJFWDBvhKlLs48ZsWvvAew5ULcU76b6sZSXgijnSLn7iRo0zJBlsMN8cDkVaHE0iwXRPswrbcFydxKZegOVqRb+5V/uxp6DBzE2Nm6TQOfPH8VNr9uIAQ2P1/LGAcGVx/4cfef9cnHWNglt85tyGbIhAyjGwgCq43iuXrEuK1R9qDmgNdpdlSgiOPO8VrHR41kNxScAaeJyRljAzwjI0LRlu1YrrZOBFisVjM5fgLe+420E6RVYw5pX010WZNr81jQqRcaLoHPvMzXsLEUYDx2alhmsW78WH/7Zn8RKpuUAgX+IkDmPxWcgqCBPE2GYn3fLpSvxoff8NJMtyYLEPEr34xOf+SLS/F6/qdTtAdSLyTHdM9Gv41d09sRTO21j2CbzXDvBuKygNXizrcngZFWZZApnrFxlKSwjT+tNOQN8yPHVIUyCrdnjvO1QYRJ8UTPIt+7baY2GCkDzqNJUmDThMkGKrjExGr8SD/ZTpy8VUJ4yFrZ2cU9eKEwWdXTF2z05aLBm3j1Zx5b9OxC6bSSZH4tG5uOsJSuR57NZFmKvXUPW9ZmBEVlKGmeP+uhnjeNFOUxUB3Dvlimon1CVRx/zRy7T0ujrJJoamMhwDMRstbjQ2owcDQuIWEE1XDM3WzQLZ0ozuPUbX8OmXYdRCfIEghquvGQ93nH1WjKcuAE/kyZSuQVTNOIRWV8dhVRE5tOiH00yviq0Uqsm58aLH6YQOjk0qWGavJLi3z4C5BBvp7QDqKagMHaeViFtawk7jwBGBBFbYURVCWoweZ0B5geGbDhMX8rFopyLmy85B2+7ZBG0kNAoQ/RoctooVO1AkknZ8ISnntmBo/srTI8sovEJvOm6i7F6AdOIce9jemq0F7khAyGEK+L8vAFWDkuXuRhdSO/CCEMjZ7NwHcXYtICVxrj1evTk+WJ5xaMIja1vLgywtHKsZaNE9/TWPYiSBVZOLgKyqJCFIdJ0KVZYKepnxglw9tJB23cxSz1xojqcxcyRJBUgo4FrrFk8eqhZyK48ZwF5dtdWa9SVkmcYrnRKTECT4xUZ1ne8r62wOqYG0RDM2HiwRE+eL8xHpi/zj8eQFLjBgnj/s4+i3CYbYlmpVitYPH8hVoymmC8EhmyGVFhDHSssTkUsWejivGUJMqIyvDCDGX8evvLgPhxWBtFzx29aHmkpsCoL37Sazt14pC+NRt7Q2l8R6sKGUK3yNHacfgOHux96GI9s3oLpOsHFG8bo4qW4bMMZ+IkLCljKx7XttaTl5OESSMTmk2EJOTdgdvu8RgWhmRZzJ34h0aVF4FEDPDmRgZTIWJ/fwDBr0gy/QfP5xCq1I4hDJqmlVGzVIca55cRj6IV1am9zbGFGXvFrWDGQxuvPX40zeG8xWVdfs4ZBjZzXGBg9z4D2TZZx4OAYPD+HTNPFApqAN15+FvJ8JO1qRQStgBDSQhCYMqCOcwi4S1Z6WLGGzJasbHbGZY2/HE88yy8jrkdq6e3JSUV5L1hSR44lpoCK+KImjh17A+zYP0F9zKOpid/M64BKlCBzFkhFzNcL1q7CKlYiGepHMiLytIgsK1euMFrV0rwZnoTyTQqR0sqbSUzMNDBRbJrJRz02JVcp0xZMttxG93Jc/Piucll+6IWevECYTOqNl+ncZhrPNELc/9hmNLWON+2JwsL5WHTOWXBGgCkmbMUrYJY/JmmUlDHMyiCHpesuR27BItTJBKJsApt3b8OzO4+aciBBNqEqhf6TIxGmtDusFIdshxWHVmAqROrxI2ARFH0WwplkH765rYXP3rkLxWY/vFadILgPH3jderzhnBGsToJmkY9cWLHxL5q5rmkpIh517a3nEuTcIRS9EbphPqngpaTHRRw9bg5XXyVB0xr5tX65ptJoonR3pPnJxQax0uSTaZDyPMyjybtkccEWO1BPkQa4tkUR9VuXGLfJw/swdngvgV7jxhJYec75aJEOHmVCjfEbxjCACULvUT4/w1drjF6R748zHgHLwvD8RcgyfRIE0TTN5T37d1oXemjzEntyMlEFrFy27htBAJl8jSCleu+hZ57FgYlJtGwYE53mU7ISc1o0+4g/fm0Wb7r5RusIiqijZnJ4JE1rzz4TbV4IWQMz9y0gkWBtAqDu8GLNwaZtB6072LLGZTY56gLXchdSrzhSsW4wpw2k+GQPpF5clJZMsFrUxrZ9R3Fkxkff8GLUK3UUgwa2HNyHL9x7GH9z28P4+O2P4ZP3bMUnbt+Bf/zWGD7+td14ctcYC5RLgGiSC5Aq51N46KmnDBzQZu2juYBSlkAwpb7CNlphEzkyBo9hSiE82u4BM+4QX3m2Avz+px7GrtIgJkselszL4Yozc3jrpatx8aIczbMi0s1ZMhL6LSZj+qfeRIJtImPz97Syg22bLVNQ8TBojNUgPtM7as6PJyNLl0ICczwxWQAlDeo++ULRriIaYKo2rSS/faC/DwUGG2jhfl6tkUFpMQPzhhZAkhVltTiB2alxaC5Ync8dLdbwj1/bij//7Hfx3z5+N/74E1/BH/7jZ/H7f30HPvq3j+A//d2DPN6O3/+7T+EvP/dVPP740yjP0MZrVtCX8zA+ddjiLcDtyQtFea3dYIQJmiwcikVp7wQyYHV6PPSsWLpvLNlAihWUFtBJsDBIJ1ctnYczVrhoCl5sDIoylFqzckU/srTxo2YVaaEWa6OIGd6kQodSOHcEDz6+0wpATSsmeASzUB2yNaImazUqrMY3xCpG/FT+aZGfHkidVKwb3vUJUi00mEmbCDizNW1D3se7LMR+Bfc9/gD+4bYv4JPf+Db+9iv34M//+R787ZcfwSdufQL/9OXv4ct33IsjxSkyL5pZUQ1eIY+tew/jKAtTZBvbxTDhkXtTHVR1kHEwP9Ro0GD+VWXAh9atXiZQffiPvobnGotQTi7D0NAy5MNZ/O6H3oB1o2kCGyulkC7Q7D/mMvVCqyS05ZeJiqzyOh5+0r069yjdUBxMP3iUU2FvMXZtTZvhE1qpwNYko8i3rvboily7HfufSrLWJcsZ6OuLrxO45F+o3bb1sbzoh6x0oyatyAYBSoZnG7n+fuw7NIZPffkbuO2eh/Dpb3wXtz/wLO55cBu+/ehmfOPxZ/HVJ5/G1+huf/wp3PXAwzi0Zx8GGPk809jxZ1Etj5FJ+TRdZdT05PliFQiPGqlnrJe5Xme+1mkx3L/pOWw/Ool2vt/Gw9k0KY2rY0XlkJI3qc83XHm+8Ru1GogUaxlzNWY5QywbZ61aSs+1No8aEZnltBV9KmPg5ujhEDbvGMOBEisUKoA2VIrHjdIR/YRH6irUyorCJemZlhY+psM9OVEIUgkyIE0DKBH5t+6awNHJAJWZOlJ9/XCZmAFZS6U2RSabQJV0ZaIYYaacwGxF6ZpEpTLLwllBPstMZI5WqgGmyw620ORrebRnVFhRp2nGA8MQfzk2t09thazZQrKfI80If/hpMqhZLaiXQcLLIscM/dk3XYNzR9R+xExVn7Jon5env1o9IWfdyRLhXko9cC1N7akgyzhlWlVj1tZxYg2nqlnFk2IeJbVQTFSZdUdDqftZI411j2+8UOSNeoOYZrFatTA6b9jAL52yeptGgDRbuse71PAKwbge8h1+a1MdQTIxCHCZTAYjw0OYNzKA/kyeIJwigBN0UwkEGZqUacY0Sf7JuA/z+tKsiwVuE/2oYjCn4RPqojhpLHtC0XpgVOA46700zbwMDldCPLZzP4otjQkchrasUkap0vOoCEkCWc4J8ZqLzkE/VUtO2BJo0DI9cpg3uGjDOciT/rdYE0O2oBvPorelL6I8Jpkv9z26gza/9uZgwZAntpcaz6lxAiprTI910ui+aq+evFC08qB2z5Ph8tzeaWzePgaHFUE+3Y9ko4aF2RbOXJDDqoV9WL5gGEsXLsDKRcuwZtkKLF80ggWDKZyzYh5WL8wh6atZvM0sS2JqNoWHnz7AoqQGSaZ9u2JDedQ8aJNkrK2RRxZAEIyONh1864Et+PJ3HkS6oGVbQgykG3jT1etwy2VnYyAQz2J+t9TT1s/3BuG7SVZNYtnxt2h98hyBqRDNIhdOYSCaRH84bephC9VJP9o+FdHWESUkETQ670pPhCqOAZTay1hJGpCeXBIJh2BCds8aOmg2MTTQb+P2bL4igdKMWv5WL1IilSHrJ8BrJQktjc1CUK7VsGrFUrz95htw0xUb8OarN+LmSzbgPTdch7ffeDXe/IbX4Oabr8bNb7wWb379DXjLDdfiJ6+4FLdcvB7ve+1l+Kk3XI03XnMJsla0VM335PlijJrsR9vkO45njKnKnH9wy248c2AcFTUhpalPqigFPjoywzJMz4vPXYMzFhdsZkVcRlrWaaEBvu5vfuxjH0N6BPd872H4RLWImt2mHdmONPbJg6eGzWaN9n+Iyy9ZTQXU3h8MQD14jkbeSCVZwwkcrSZTAGrVIv22uq4nc0UbGtDYQ7mdwbfu24G7H9mFPE0sVRZDKR8ffu/r8NqNq/GadStwydpzcdm5G3Dp+gtw5QXLceXFS7Hx7FFcd9FinLtmFcYOHkG5nKJe5BE1HAxmXFy4fgkKPKozX1tksF4xp62DtCxPiQy5RGX51pP78bnbH8VYidepMLnELF573gh+7g3nY3U+QIHAArIy6ZHaL1uuGpNjEBDeyar0ee+OR7Zg//gMWTdNw3AG125cgzVLF0G7MiZqqsjojyrAtha4U2VGfeL7s1Sfbz/0HA5VmlRWFymCymvOXYQNqwdB8kL9IfuxtPIwRfJ+31M7cYhss8kIqEvn+gvPwdpFWfS1yEpDmryk8k7EtKA/bUauQrb3zIEJPLZ9lrX5KNOgheuuWI9fftMqXHfOUty4biWuPGcVrli7AhetW4iL1o/gwrWjTN/FuPSsM3D1OWfg+g1n4LKzF+Gq84ax/sxRrFg2TBbcYPhaqdPoak/mCFWCICVcYGVCFqVldXbPhvjCXQ/jyb0TqCfysO3NBBS+mopYOfl19JFFvev1G3HJ2cM2MV3NC9r3M0GAEu6p+QrnrgTOXj4fBY+1XatOaKEWUaG1o2ibdK0WMrDD03iKZp9q6qrsyWSGbzMwVY3ymI6/eNDfmMb35GQiXpPB0akIW/ZOMan6CQJJlA7uZ+FZhbeeP4KbzlyM15+9Am9YvxKvWz+IN6wDrj8buIru5ovm4ca1i3DLBWfideetQYHMIsd/7dYojkx5eHzbBKuRDALSnHqrHIMUTUbXyaDCPJlOpnD/oRK+cO9m7DjC/GbB7g9msHG0iPddvxRrh0vI+bNUFOYfAcnaLqls1Ahz0i+phgbZqW3TIVsSu7FKkayo2AhQ85s2MFOmrYEUQUSrbLaofDIDNJ2GB8zMyGwN+GIdiWaVqiQO/kKRerWp0HIK06MZ7DcIFoyHFk3TcAINdHBF6SmKZ5JA5fWP2ngcmbEyHSb2bscQ7/Eq5jePYjScxEhQxqKghUW8vpBuHt18AqxGoY/So/k89vE4yHA1RUkbYMQh9OSFIoWgfpPo1Khzavm87+mdeGzbQTSp50iR1BCc4lGarH7CKjW1idWLhsikzkA/dUvQnyNJcgyZlOCsEnSqsSuvu3IjUmEZKTWU0pTztCYtMyOImnBJuw7R5rvrgU2YCgvwE/MZgT4GRjCyIQl8lOGKTZnHFpQu9uT5oknAIri7Dk5j1+EpOLk8QmYYGtO46ZJzrZCMtBo0nRroCxoEEDIsJrEGPw4mfIww5YeYsUPMpxs3rke+zZzI0BSiAuw/WsPmvSVMRxpkS3abTRh70VQcdflPsyjvY/Z+5u7H8MTuCV7LoT/lYKBVxC+//TXYuLJgU16kZNoE1tX6VRr/5JI9qy5iPMSg1Pzj8ocAcIZMqJ2bh1pyFMXcCjxXzmEiFK0Xyyblb/LbGJcKTbQm42Hrj/O96RpwaGKa6aHJyh4ySZp+0h/ToReK3SLCxY3zekuOIhvPVE0oSbNSceMvuYFCHiP9fUiEPtKsTA/s2o5aPaSZykRVZ4DGnyW0uWgNWYKPJn8NECjjzRnIzNSmJUxiQPp2tfEVnCzLiEpNT54vqng0vKDOSq3MH7vGgO88+CwmNdzJYz6wsrCHKjM2kDbJyrHglHH1xWdhOWsFaybgA3EHi4iO0tmLJ6QLpM5bswQL+jwqbZuZELDyKzMjAyosa6l0vEjZk88dwnMH6pilyVBz+uHrbTVGaeSgGoQZAFWNR/kqNenJ80WMo8aysffILPZOzKIUBDSzGzhnzSKctzKHQRaWbEhwEB3mUdtWaVGLbEIjpKaRIaAkGixQvL9+ySjOpAlSq4wRjJj6mQFs2VfCnrES80v7m6gBuWzsh4YXJlngvvq9zbhn0z6afRpiQqbcrOBdb7wGV567FAWGkZHdSYBpqgFetEWDLRMBGYvaGniJ2apxLGJTMvtGFy62aSPIjqKSmo8Hdk7bmkFFAqX0w+sf5gtpJDSnJJlHlXHQmMt//srDcHMDtmyLpkeo907r7UuHYzEImiMxQHWPx0CKR3tWt/i+4iXgknqvWDCM1UsWIKwWUdDwGoLOXXfew8eTaGpRK4Zrq6KqkqCz9FYvJtM2bs6gp+q+tldriHyCXTtFle/p9slEuVJutm2FVi0W+JU7H8JWWgtBooAgoK5VWYlkCFTUyRwrhhxKWDLs4pLzlmOACKURc/Gi1zFIiR9rkBPVNLIh6KsXZHDp+jVIhhXSLWayjVNgvvslekxQIg4dnQnxne/txKGievoc1ucuI8CMpJ0OR71+VGSG0W1E78lJhMmqNei37jnI2qZNu93HbHMaV197EfpYjq0XjpUA2sxMFTUhg8u09dTU7tHMUYmh0dLKWg/UdddtwGx1FyqtKURkRVqAbvehGWZynjmrIty2tdC1rO5Tz03juw9txRQ1KGQ41cYkzjlnGd76tstRrmk70AHytFFMRGlbTrdEoCv5bRvPZFOfGBWpUK1GGkQW4tOku2D92WhqVQair8bVaSebbUcjzGooSyGNhpvDeC1CkSbtDAFJC/7tnQG+9cCTCDODaLpZm0SseYjW60OJoehEORGg4p5CI1CKUULjrDI2wFTpm6gX+fUh1o5mbNG6hTkyScZRm0v8y7cfwn1Mh3DRGoQ5zY+Zz6QeZE1P7uRl4ik5dDV++3QzQJ1lIaRz+1mVJz16zzBsrfSePF+UfU46gcPU7017Kvj63Q9TZwqsQFkraese6keBtUiOSeg2ZjCcDXH9Fetw9sqY1sSj5ZSr8cqyGsKgqXdqgyeVDW11xss3nkNazwIR1FlgCG026rOBbD6JajMkXc/j/sf2YPPuePddwZI2T4zUz20u7r0RNe6B1MlFhfzgkSk889wOJGiOuH0pBF4T51+4FnFvuhJO4MSMVcN1khmjeXFM0Ih1T8IhM2mJ+6Zt0u2lV5yDwfl8K02G2yxjirXV4YmyTVpu+iHymQIqPN9D6v2Jz3wDh45UkUwOMJQAF150Fj7yaz9Jf4Fc3zB8UvIi/dWo6xLLoUZhT6f6eEzbekpartfynAzb2hSiOs5esYDUnV9VnSFoBggaDXzm1q9hhmGKUWmVA68wjDCVR5324aZ9Af7qU/diNkpigrSqzesCh1TfIFKqZZ8nMWxJOgAlk08NW5ZOEoJo5LAw8F2POst7XrNE062CxYmQJvQ6rB7tY3R9mqY+to818T8/eye++HgTm4jc+5jWYywME0yEaaqw0k26rYGurXyW131smzpI0KKe2+AdBmMNdT15vihHKlSFZB/w0f/2J8gNL0bFJ6OOqMPUI63FVZ+dRk6DoeozOGPJIG54zQbr0RNIGXZYLsflRHqpVkr3Yx/7nY/ZQDnWQk62HwfGi1ToIuqszTW50ksGiGjTu06OWZlhTU6Ua1Zx5pmLMSQGT2/UaBmPgVEtkzSQMu06rmE96YjWL7/n4S34ztPbUC0MEtoDLFo8hA++9TybG9cvG0pZRgYVMjk1Nk2TMGmAECBySJPBOqoPCCStjIcan3n48B7sLzFzWZGk3ST6E0VcsGoUCwv99MbB4bqPT3/1btzz4G5Ebj+JWpaWTBFnrZmHLO23/fsmsW07zc8jIR7fMo290008e2Aam4/W8dTucew6WsTTO45g31gNI/39WEhu7gYl5NJaDCaLfZMlbDk6g371fIWz2LF7O3btPoI+LUlN0JiolTFBE/X+J7fhi1+5B/c+9hwqyX70LTsDlWIJEZlJgoB61bolOH/VwJzePX23R0YDfPeJbTg4XSMgaZ5pC1dtWIPzVwzS/G1SV5Oo85uSkfqTybCaE2ampQg3fUNDqIbzsO3AUVu7KkpnaGb7eGZ3GVWCbznR5FM5pnHCFnjUIoLjpHt7Jip47vAhPLrlSTyz/VmsPGMVknxeC0BovJaZlT05QbS2/lbSqD/+m1uZZ9QrZlx6aDnq6gZW01BA/YgaSPozWNTv4J0/cQ02nrscKVYmsuaEId1OGgGUjgIs92Mf/c8fsw0WWctl01p+lpR9125MlisImRPyoFapIl8YihepYiGYmjyEQq4P5541SBzie3QyRTSKtKXla1mwZLa3NAvZ4DHBQhGPKLa99nXs/uP9ePCn2AKZGJ/Vv9NFVEj1TV05XAzwz/c8gX1TszabPlGfwpuvvgg3n7PIRogXWEtrnImSQLP/JXpbNnpDg+F4TcRFya0RtBVmY5NPPPzIM9ZW5LUaCMuHsf6sFVixaJSmXgIPHqjhTz75VXgD8eqXAeOkVQ/K5TLu/96jeOjxrXhi037c8eDTeGbPEXznocdZOHfgwSefwyNPPounntqEpx5/EuMH9+OMRSNYOm+QjJsgQhbke6ymaNLt3ncAQWnSevsS6X6aj8CDjNP3nt6Khzfvxpe/8wDue2wz9hyYIvNbjJVrzsRVV16GTc9tQoF5n2TFd9W5i7B+5Qjy/DatMSrA0U4xM7UADz+1FeNTBDSyx6zbwuXrz8S5K4eQpe5q+kWKaZayylZ1L1Hc8xBQ15o0NxavSuPQRAmlyjQaRJlMIUdWVcMTzz6FR556lqz2IJ7aPoZHNh/GPY/uwNe/+xi+fte9+M699+OpZzbh4IEjuPnGW2imeLYqqYjUjwOZsqI31+la1/FPzFl0gwp1zJHd0kUJkhP+1moG6rF3VG6POeq0o5FMtK6Y/tpVp8Yyrcrk0998GP/yncf/v/bONNau67rv687jG/neIymOkiiRoiXKki1Tni3bKuIhEeJmcgo0cIoC7ueiH5sKKAr0UxugRT+0SD8kLdwhRgzHiQ1XjuzEkmJZ1RTJsSRqosRRj2+879353v5/a5/z3iX1aNWt4FyK+0/ud+45Z5999rT+e6199mCFuZvsYktcUF/wFTOYqpTvr6sh21BDvGwfO3Gj/cbnPmWzpZx0d9Y+4y1EKsQqjSfZzHRzy7VVSTpNm+q17MSBSbvn6G6rZdasnNlQwDIFq3Wx4aZU4IFt5vo+5vYbD/2VPfbMmsxA1tuu6n7ZNqUlbKiOtBQywxXZQZ+ZVSTHwQGKTB3nqmAYMn357UrcMB7fK4CgcACiomP47NKqPXbqtH9O39W+ZMeym/Zrt99kU/KDrd6RBoX5PsiFUdqMSWO9St+BV/nKfLletScziaEiTZtRjv3qXXfa4cySzctwGXTelLbWsOfeuOAmzIYE/gcvbdpq9bB/3aNsQmWs22qjYhu2z1ay++1sZsaWqwv2Zr9ka4UFmXYztt6rWS875So7G2MW1RKW1XBlRQCt4rStDopWk4V18rYF+/WPHrX9k0xvUXzzu2y5M21nc3vtpd6CPb1Utzfbc7aR22O52b125I7b7B/82kfs2K6cza2dt8mN8zLPVhS26gtfFhw6inSyjKWRyVUdNK3WF8HIQWIIGQrlpgiyrDyrDDcty4af9I9WGRkvjbEw48MSppWv/+jXT9qXv3DCju6XydxftHxl1XIyty+1Z+3pN7v2v56/aN989k379k/PSTNt2Butsq32pYV1lC9LJdvckNYoIWT0De6awaisbckcjj98fOAixK4W0o15ZLClv5v629JVSS9skXrzNkAnTD0aSouVD/oZT8uU/m8P/cj+5OG/sczMUbvQrlu3tGAtPueidpYyVi12bLhx1o4fmLIvqmHeUytIh1Wjy5cdOWwx4sW4PbbBL8mVOX/w9x58ENNiKBJij/YsO4iU6/bMi69aUy03SnNHXNdm9K5EZqCWmLEtbanwF14/Ze9Ti7hnpmB9RbyzuWmVMkPdpFeJaVn2JfCjS0ZKizSTW7+JX9Cd0MnoNkMr4+a1i5ScXCtMHGi1WnZ+uWFPKm93TZTtxj0z0kxm7aN3Hbf5yZJrSGU1eWgRTC+gTQlFpwqlFg0gHwWfaIvrB81VTyyutKwps25+dpfNywzcrQrwgVsPq/Ty9sqpV6y3fM4O1Ad2Q6Ur17MDtb7tKbX92n79vtLdIP17RmywMFGw+UrG9k0V7PBc3e46dqPNT9Q8Hr6ioqKlIrf5hQWbmZxQ3Wjb8sU3rJprqZWUjte8YN3V0/rdsjtunrMHPnvSvnjf++34PlWDnkj75WdsV2VgC/WMffT9t9qR/XO+Y01Gmp4r/tmC6p7MiJffEGEMbGKibgd277L333rQDs5N+dzCPCYwg2mUF3RAhAqmeqR89zmGqmR83DtyaMFuv+V9tqtWsTyzWFtS9zp6XtpVtr0uM7ohQmxaVVpEPdu1A7vqdvL2W+2XPnHSTtyyzzfDGLQ7W2O1xh2h3sjxNYvoUoU4ki9en4JDUj3f+PBAV4M3jXwbZgJwwXLKfz50Jtlqg3xHGvTA2srzzWzFFsVt3/7+8/Y/vvWYLXcr1mSzVbWm+Vrd+s2mZStZy/casqXP2NG9E/bAfffYJ++5w/ui2HSE8iM/r5ajmSG6slRt4onGcylXs3Mip//4zcfsG3/1rC239dJhzQYsL4ynXNGX+Si1l22qfcHu2lezf/1P/7EtiBLr2b6Vijnrdntq9ZNKojfDxBB4cKR2O89wzAEjL/2WbvDMtQ5ICiEeRbvdtrObA3uOvZWkJdSl6ua7m3bLgXkvsLyIKawPwH0yJc0hPsmqIVC+0OeYY4yPLxo1kNZVtrVM2V6TevvK+TUr0A/VXLO6NIs7D81ZSebJmdWenbskzYGBdmgnihdjk9oSuKutcY+ZtZapSe5VSaVlQwa1waYdWpi2Wal8BYXBeKqmCnVDBUz/WUNxO3up5+OfTp85Y+fPnbGi7NM9e+Zs35552zUzYXt2z6msh9bc2BCp1e3c2Qs6VxwUzvzUtC2ICbx/os8AUJFwvmorvZy9cLFlS11pNLIdGMR5y56c7VGVnJSGlVEjSj55bnv1QiipbQz36CgM5WoubystvVfvoiq/cb5jr51ftk01vp2OtPietFM9yyYY7PtWF9GzNPGc0rqHWUF670xV75BWl1PaM4wlG3tQh6hPWCuUc+pUdiNC5r883wK4RV2DD7LiAggKGQ2f7buuZzHuf0WMdUGq+re+96z95V+/ZKcvtK2RLfocvVamaNWZXbbRaFihGMZE1TbP2Jfv/6D97gOfsoN1xUKNFCvO8mWYzUIg/50QSGpzWSoyDDqwFanwa4WS/XTJ7Pf/8E/t0Rcu2WqvatnarAuK9DdJ08ByUrtn+st2sNq1Q5WO/at/9k/swEzWGksrNlEpWY1PuSRMcWB+qquNEj7++Yv1D03LnRJFvXInv0On7WsbqfY0au7xe0PpZmNLrpLjmZ7U2oy0oq7Mt0HPyhVd3Uo+YocwcKR1k3/yiCV8naQoCzUias3O0M5IusldRLaiHxVpCPQpMkaJfgGiRDzSfz29D+LaCXz6Va2Qr/B24prrDqwiYvQVM5gDKGHFYGipkjFQc5gvOa8ST/ZVaLfUmJXy0rSYpkM4QSvEDfgnU26gMKuKXxuSyObdpKWPIieNxk0RkTA7L9PFgDGCUUJ8xBsi+K5NDNZk+u5yK4Rqw72t6sP8QWKjfO8xRAJNK5mIjH/pUe4UBZ+qw2PIDF68bORomr151s0cA5uVZ3w1LdaIwXiDft7Q3ULKQpmHVGGt6KjLfoXbID2OwKuvd2ipvLJ04dAP2pMr2NqwYn/09Uft4b8+bZfoOuhWbZU+v6m6ZYolW1tZUvGpTDvLqo+rdv9dN9o//OLH7OSNk14f0GSr5ar19RLOr0b7wdzDR1etM0sjMGtcRjdf7rKVXfbU8y/byiVZnbqeV4AD1qhVTaSqscbP0qW3pDE31WqetQP7D9jc/LRaaVYxChngeeEO6aJqdHUpDNryLzH8w+bjNhmin+HB9wboh2LJW+bNQRAoLhRGWvmrEnq+VmGO5JEOaToBZIJ8IvWJRuXZwm1GTKPC+2UZybrPGKOqmiLqE3Y+UwwKEF9B72RwKH1caAEqh6yEzddRbTPnjWDCiJRRl1cLjPkt2hGBMpQXwWVaysDyBT2ksh/4zsASWGnPEK11NmSy9mQuqRVV9GaUqGmxTkVpYuPRrDSyQbPhJETaGSdZUH0qKO4luZzSTxoZL0McgnBQQ6T1iW/IBuoVAxXciaT55mnZqi/AB0JOCdQlJIwwel3P97y0Sl8+fU3xVPDVAvFmCWSsALMJOVbtTEmJdkCWivKvZ4NWwxorl6wqczPPsJBrQJNC7kT9XmUUYf/LcftfyJ7RI/Bz5Td5hjFAN1BfzN9WWGyk0ZauS8Px+3/0LfuLH78ibapmS62KtXLTTlDra0uynlTGascq0sBbb71qJ4/us6/+5hfsjoNVm1S43giorvj0Kmm5OW88d4ZI6vce9Bhho6vyocK7vSo3JxuuN6jba2+ek3q+7oXTg1CKKkYJR0eqNMMUpqZn7NXXTtvy6qodPnKblSoQmILQW/HO26l07AFHDxeL2YbRpaqMyhzuBkEUiOnVYnuNINWeRs29VLNi4bZej/6Wnsi9Ic1BJhtkoYow6HRU9+kXQAAkjmr52fEXR4ghNGqTJIyM87wK1Y3ObF7bZ536TktCz6hpVSmXzoq0iIJ/7crlStah1uqcrzKce1/OlU5vY3iJr2kpUsur0qEB+cL4SVnxeh++orhkVIdQrvj6mO2XpeXoXeJS2qaMbAcmqhf0rlKxaq3lTRt2RExl+raK8p/zMFHqECzW1g8bcOphJYq8G6giFZQWYkaYVd3PJ1O4MjmGEGCChTzayifVMc8U8oBTmduMSs+XWZJZdY/P4Tnqo8xshUfOEz65jxCVWemx21a5SCyrFavWRP96vt9VnsiEHHewPC+armpH4vhL/tDvSUNAmYZyDBp28jtxiWc3/RgCww7Ea8qh042h/cv/8DX73y++Zec3it4PlanNW79QtVJNDQokpTozV89bvrlot++ftt/5lfvsw8enfTOQQr/rS5GTvT3lJ0UTSMrf+jbkHvwX//xBrwxUCjFLT6ST5bOyKnRFoRw8PGtry207d/pVVTaEQ0KjijqUP6YZTOzea5dW1i1XKtul5TX7ycuv2ezuQzY7LzpSkNRn0srUjqw0ANjTKw4xc4QsQRD7xDr8v6aREpIXfOKA55vygYXb2GuM4Rf0b7iWxdQQ5VRGxMEQ2zCUgy50KhoVLuQLRLGlRXFBAsg9/DDIsiLtpSrtiZUpMzCGKkFHJMXyupg1kCCmnM/alFOp6B1vd1zPSIizhONVg1ZH9aOviq3n+rKPcmq0MsyTwYMvzSKn91lPxEfrlEo88SSCQL8ZtFnArNW1rrQVZqfw22ebuHbEUBQ8J5XECUgCpqMHJ82wJNMjw3QWBhwrPmxzRZbAR+GLFY6XKgwCgwFhUSKgNKjFlSPeaIOkMaQ6XQeLreY5YtYWi8onlV2/i1YscmS5ESr22IPMCMLvS+LoSqhlUJfyxvNORx+2IUNOjQNf2umAGqglGEpbbuk5xuopl+ycbOO/Pd2xf/Of/thOnWvbqxfb1i9OW4GBwMqvYYYPais2OSWy0hOD1XN2YCJjX/nV++3Td+13gqqrQaNPkWV5Qt+oyoEiIraJnFwJlU1bzSORpEAFFSbCwRBN2NM/Ly6a/cHX/tQeevx569R221Jfqp0v06JWcGLSBo1laQQdRWJDRv6S3X3soP3KfXfbR+7cbzdI6aoo6AkGhKrSW3tdOUUBEzMdZUYyUrglwWRZDvaPu9oesamGci2DtZ5U1ZXCkBYvHP9FjnA1EEQiXmmpuJ8g89yVgCaCGPyw+QHPenV0P3yL9Sk2KksfrCh/Pw+o0EyGYfXV8FZ0X5GByox3UoLEySsbZIHZRT1yIZ9NfCRIE5geExAOLvwRAgPpSaWNuOut/pDeiSZFOvm/9U7eR6NHx7hImOBTF8JMzmBxDzxopJxyzHkYTBjivuKrvPK06hj0DF2TZ+6mSH9fRZ7GDKGWedecsjJHY+Id6ZSpnLQdT6JuslBgV0RMXmfVkGUyFWuoIWoPCtZSg/n6haF999G/te8/8aK9crEh065mXTb4FJF1eYEICnIrqhxK0j4zGxfttj11+/L999rf+9BNtke8XlP2hg9DlCsxIxNDvU1/7wSRFPpO+hBX9JAcooBBtq7bQ7XIL73RsH//h39sjz5/2hrleZHVHmuxEBojDhnb0mPUedNq2a7l2st2w8zAPv2h4/alz37KbppijzO+xKi1aoqkWGHBM0vPSXtqirQ6DL5T5ahLEFgEaye8F0iKL530E4BQJNtCEEgqlMSoA/hBhAJ9JS2hHJ2i/Nv+ahoU++C4wxN0uu+cp1dDqAGqbCIE7z1URYX60jgRny0nsvCtoXT0FGTK+itKRSj0i9iFY3gyJWNSNBqvcJaEgaO8PXN0hVP9C+/jvupPSmSuTab5GGIVwg1EE1yIe4hJcKyunhuoYU2eSWOQktSOTKQHuUqIYw8RLPzhOUykPcoJodD4iFTY8KAl82sgjRgTFoMaBYVBwAw3YgT+I0++bA/98G/sqRcWbb1XV62YkAalhk/53s20pXE11VA0pWVu2FSmaoOVVTuyULOvPPAZ+8K9+2xaEaiJI9CgQgkIl2VtqKdXXNyC6iD7loyC0+1L9GP0hjlb3ezYC2eW7T9//Tv2+GvLdtGmbLO8YC025avPKME6biyrMer5jP3ScNEmcpt209ycfemTH7cHPnzE5hXJCt0IrVZQ8WuYHANrSsVnKyM65iYkUIxg3wnvBZJi2WBVD8dORXJlCtNz/HplUyGHa/zFBcJyNV1/ISd8BuU+nOVdmK8M+Z1B5yehb/dgBNHEpXEPR+6k2nj6rnAMxBTiFn7zK00N4YV4EhIi4jvZeqD8wSVvVBqIibOVXwtvdsj0C+8AaTwhZ+KNFpiQj+6mT+PoVfKliQiL9/IcWlvybvzwx4944SgQ40B54w2GdmDR8cVSSQvwpCm/pCR0GHpUzFuf/mXd4HMKBh8WzVqv4CPxH37kcXviudet0RMp5RZ8o468lBQ2aukOWtbpXdITS1Yqb1i1LH1+rW8HJqfsdx643z537wGb1/smZOLxEceXcPY+z7SMiQ7lRslQRsnFK5AZDLsq/m0PFE3OK7Uephxk67MPf05mGdtd/+S18/YH3/y+/fmPX7LywRO2NKhYmw0Zq1X/ItRbe0s007bu+kXbu2vSpkoiHankh2en7Mu//Ev2oeNVqyrD6DjrQFiyZctVFtdnBLEITrFnOOh7FaMkBdJiGS0efl95PRyDmCfi6o5CDgUt41wX0CfQeugGxh85WXCzJhXi/0sonsxnQ58Kb0+OKp80TrzfL23Fhl9BBw+aHtcgUH6H8/TZEF4gkxBrvuHpqPDZsy0lmvCMnPcZUSf9ra7tUG/xS+dEyFVCd9/J85xvvyM8GWIFPAZe18F2zPy5kJzkPDniRSf0e/EhYexBWY1Ec9BXSUgW6W9iaR8+lK12uj7OLVMOhtiiZPLM4oZ9/Zs/tJdOX7ClRsNXXb200bVmt2JTs4dsZbFpkzPznu/N9bNWyq9Zudiw5tpZO7bvoH31t3/LPnbHtLF1/fSgYyW+RpN3ubKOOZ/uRbT8Er8w25My3wmZ/rAnL+7VnbcSqghhlcSha1Heod5hkotekM/Yd5543f7nw0/a954/Y4Ppg7be5q1SqOsVG7bWLCfTb6Y+actvLYqoZc41Vu3QDQtWF5Hecesh++XPfsRuO2y2S4/5NxK9ik/BqIMoWEyteK+CLyWpQQMoqG23LV4QTirYQTDxIfJRYRJGSgFcRYvxTTR0AXEfZGTIUBm4KficNjL550LGtdv0He4IPyEposQ9zCw+UYeYh2tBb+FXSk5h9Dy/wxFQIUPsQ4g6JoRBn6gT0NYdOZknpAFTjzxgsGlYbyjUGT4xAELnqfCW8Hz4lR65E+7yjvCUruvSqB+eTM+TQJOngr/tdIwzFFP99zFgyjcfuMu57kDpOHoT0SVZ5eLZUx176C8ftR8+/qw0pqIVa7PWHjZ1X4rEzKR4pGrrF1etOLHbOiubVlCmzVSVi51FK+fW7dDeuv3ub/59u/f4rO1SeMVOx+rs76jysrbeVqjb0Lt1dDNEJQz1oBFNTewdkBFFOUmllZ4C58HQYaoEDAsiKvP9x+bmZ63RHti61J7nzpv92//6HXvq9Iqt9EvSiJR06ZY1aUUVSdjmWsYqlWlb2VizmYUZW1q7ZKxD3Wmu+Az6z3zoTvuNz37cTuyv2V6R14wcY1SIQxhT9XZcrff/WsJonxQgRcEl5ERJIKzOAlSntGTE4KwxRWHqAQiIYxBgiTN6vQeri+xnpxv+NKc4bv0c8HLwv2hGqoiKT9Cw/YYcf0SYqvjsNBx8hbcwvYfByeCqReZxHTkCH07PfM9AQEkQIY0QMX1e8g9JdTM+OEIuqbN4TMArUxe0SxpdciNxHndusGdgePJyv+GITHsm+93L4ZtdjDmIekeaU2/Ql6UiUzpLL5zMOkV9dVMalUy9F8+07JGnX5T7qf309FvWQOkpzVqhfMj3PGjbmrUGK6oGa9IiSlaemrHWasdX4lio1H1OZX/1vN19+yH76lc+Z7fOiY82+jZfEoFl1LC0GWMpDaohsqrO2KBQUOMX4oZCFFZ8TUgKMtsBIqm+ql6w1wHeGALvW9MIXVXAC4ubtmeuai20KZln2UrZmffVVbN/918etmdevmDNQd6WVhtWKUpAuqK9/IRs1pzl5Lchu27IFH1VQkzSbHdDNiqzoVt2aKpmHz52s5183zG7cWHWpiZysm3N9Jivr0RC0mqSulGMf1W5HMSXvE7jfWXayH8/SpAwmdAcEJjQtxLKCeLBEUbwq6Nu8BvHvVTb4vf/D9IwnSh4T3LOp3gYyOMhN5omb+S4kCAlKj8kYYD0mD4YVs5IyFUuDQ9/ab7guI4fCIojNJNW7zTM1O92fqbnkBAhDCUsORcYkPp3l744eeZtSD2OCUjOZXkskATUDFGDT1dqtnrW6g5tTWTBFKmLyxv27e89YhfX2/bWeseVkWGRBery1mJDi8xu61GJ2GezrOag2LUhMx0YjJsvSUOSprm2Yvsni/alz3zEPvfpY7YwIe9616TKETos9Nuql4qFa1ESaNZH03NMkieiHIImpZIUQVHTd0JmoNoWyiR4QCC2kfEhJWljwh36F+gdIAOYqnB62fyz5Ld/8JS99Oa6KppiWpiw9W5DcRJhyW+TSLKgerHsHwJdQ1DLX1bNwUd/c8XYHeKGuWk7Ml+1/TMV27dnzualYtZKWTcDSzIb3QBIW3PBE6VEXy1x44rLc/hKbN/dupdc2krn1ZKbPur3g6fRd/182CEeO4b29ve4oXTVF1/u8zI4O+Aur4Xg8reM3r8ijARvDwGM1BTddlM1OQU7hzT+YAyXm6fSlrA2OO92u9boDWwpX7Rzyw07e+GSvXlhxd3iWktEhG6KuYtTPpD3kkfG7vn0t6EMNhYSRGNJ5JUxZZVcz4rSjqazLfvAzQv2xU/cbR8/caPtllf/Wip594YhaQhG8zScbed5uDdaAjvDSSr5vQMU4GiIboYxGwg1O2trintjkLVLm2bPvLRsP/jRT+zHz75kS1L3BlKHsHVZf4ptlVlQLKhRBcuWlJyuGFpaGQTECgz9dtPKRRESo7R7HeVLx4rKtHo5TPYsi6TcoEhIigSHShYSHvDOCY6IeK8BYkq/fHNknTImj7e6Hdvgt0R8mGGX7Ip16L4RCWUKFSk4EmDkDWBy6U4ml7G8iK3bkRUkP9we9oJGVB62rTjYtFv2ztgn777NPv3BY3bzQt5mxWkoG0x8Z1ZB+LL87uEdSEoeXI2CGBLndgXfk0ROGy3ZtRPWUULWRULnpFX96KnX7Lvff8xefGvFeuW6tcTmPZaAYJNGJmDRwcUysb6BG6ZjySeVsiU2BNTPs+mjEulDkcXOzOcSYbWb68qAnDuPEiSVOsUnEFQkqYjrD65JSQaYS8s8uIyYxSdvM4Ba2o9PZWL9djk2vugxoT9blC4gC0fPMJmAcVO+5RhbjMkV6cNSGAVIK9OX8jCw/fOT9r6b9tnn7/uw3bw7ZwsSYxlxVpXcMdWtL2WjIJMugzLyLuIdSAoKwLATMW2pVABSkMmHdlQs2aZuY/uSdrYOf+H1hv3FM6fsz3/4hJ1fXLHy5KyvL9PLli0n4uoOeVaEpTAzyiT/YqMMgbUzhUnxmBIJSemabroGhcpJZvOMa09OTHpg67f8OpFGRFxnSBtpHTPZMJEd4vIFAwB9NrJmctKQGLk/lIPMWKu922mKkxiI3fWpVExAzw/almsu2iRWn7QolhS6587b7P5P3Gu3H5m3uSqmHdqTSSeTfMo/H298/h0KyS9Sk6Ljlo0YvIuSuVioMH6EHGAURUZPM31mKHMsKIzBndbJqQtm//1P/swe+fHTStGEtaVyNroy28r0sElB1LN9MpN1RBRctsAcKeZ0ES7XFRLTHgp533KZXXiZM0bM/LNmSlJ+nr45IuI6A0tZJA14ICzB51AOrDi5yzqspImYI+koB05aIiqsoj7Lz7BfYc+KuTAWLdfbsH2VtlUGDTtx/Kh9/jOftOM3z1lZQTOcpcRsEZFXuZizPNPopHmxHlepyKS20c8Y7w7eQZNCjWzqiJaiFzNmiu18UsIiwaScuXgF9J2h7N+2rW5uWqs8b5vyUtYjpxbNvvaN79oTz71oK82BE1WXz6FZhjdAMFI58wWpnXlrtejxEikVipZVRqI9YWMHDSp8AUj7orbPoSkRlBNVRMT1A1V9ySjaURBjTL509Y2+5FRcghjLkwRRdh1DSZiBUJbM8rWO9cayfWlTrEwq07BayttUOWv33XnYPv+Je+yuo7udcoatjtULQ8kz74Hoet457/P8ZEYitXRxlSTDYZ7Du4efTVJiWnZjC6mk3172LiSVfv9Gq2Gmve4P+rJnxcTYt20xczc7qYgXvPOcEKCPUxeH9tiTz9ujTz5nF1Y3RWZd22gxLkZhKBNZ3zqTr4l0RGD6zXdH3hy0pkBmwfhLSMpbDX7zV2ZpJKmI6xCssjqUvGxPG2NkOW7gJMK9PP25upNhba3kyzoLLVbyQ6vJeJmqFezI4Rvs5Affbx84sdcOleVXwscQAZZzLkmCM2x3N5S8bjQsV6vJQy4YO9mSfuID809MsRWPdwc/k6T4LMlafE7ETlJy8o0b+Voc4LsYpwYfs/MZMMDnTXY/xjEFNYxwZejCi2907fGnn7MXTr1uiytrtrbRtPWG3KAiYqsEzZUJflmmeKhF0AWWPN3SnnCjhO2DTyNJRVx/oA8K7Snti/IuFIEhsUygZq0s8YzIqSdSytpsrWwz9ZI0o4wd3rdgJ247YkePHLTdu7LyG0SadUfpd+I51r8Iq05IxpLxk644ZFgVI8g3ksdb6adixsq7iXcgKUgFbcZHYYgeQgIgKIgK+Ln/EDG5JhMGKPgALWeasDYSnz3Z+julErQrCItO98Vls1dfP2evvHbaFtc7tqkbG82WNaViMoC0JT2yw7pIyXo+EFTAdtS3JypGRFx/CEZFGCeFZlUuscBgzvKZtlVkwk1UqzZdq9rC9KTdMD9r81MTduuN0zL7RCx6Nu3uDhLVs7IozolNDlWD0f5u5tFXjPy5dSO5dtkO0sezfwckFTrDk2g5PC8SB0Z/B59QWk8MvqkAoCQYl+QydECM68wbEsZdEsfzPOnv0g8WUFxr9Kyx0ZI52LGmiKrd7bk5OBpZ16eUIf5+MScD0SIirj8gAcHEA4VC3iqViuUKkrls3yYn6zYzVbIJERJk5MQjwWOMInYJu1GzEWuY00BoKCTQDWuhI19c54hfyaB4IVg00FeQYeQXoH39YkmK6Cn9oyQ16jm9NgqukYRtkuIKREXyswovK8IRkeWLykCyJYQpHnJNaVK0ztcDVpGE7oLJKNrTubwHLTMNVQ+mcfBjehIRcR0hrfZwQyrOuZxTCstQOlAT0qO4SrIjGaVhdwkMUsi/gcw5TMZyji91gZrA6DG84e3AR5DJq/n4f8PP7jjnteldfoptMf5wIETco5Y4nXkklRnYrpCUazdJONwQyEzGc/gQhL5saF3IMr5DdnWhs6ZItRQctC9e9gmgIXyCAGHUuc7cPk4zOWhrERHXHXqSM4YhYPMFpkqELGfrw6xli0VpUPQp0+QjP5JgerzxI7CKhQ9SlEslmx2q5VMuKBbpvFGeCE8FqSS8sEdkelfam9959/AzScr5hY4pT7AIAcdMdUXIWTdJhK/C6IqkFEV/JkkItznoediVhGyxLBkKBn1jMXaiwaVcoeBkFTIFWzfYuwxUZ109z2S5lLaCLzKIOCRhRkRcJ0CaurJA8nmRUFL9EwlLpAEJ0hUpAxCTKxEue5IgX4SO30HGcIwuQrYKKAp+heWB6HsKpl0gseAHWWSvSDbO8DWheA+rsv4iR5x7Ip0gebl+pESVMFGgnmCbOkkohX5L8AQrgJAF4ZEtkhJLe9hprgLeITfwjQIYcwERivTETPgi2NQ3RzJp9Mh9XETE9QaGEaIIuSKlcxdX/Q5EIrlNxhkGScEJOh102DxB8su4IZweSGWWUedBiulLzidrfG2TFH5Sktr+6seLS79YkgKeJE9f6g1yuhL4Sl3AqJ9w9cqnoKC3IxAfSJ7ayZPgl91jGu5VPEZEXMdAmlKJuhzb8pLK26ivbeNuNIQrZSzIcLibPh38v5t4R5KKiIiI+LsEGmFERETE2CKSVERExFgjklRERMRYI5JURETEWCOSVERExFgjklRERMRYI5JURETEWCOSVERExFgjklRERMRYI5JURETEWCOSVERExFgjklRERMRYI5JURETEWCOSVERExFgjklRERMRYI5JURETEWCOSVERExFgjklRERMRYI5JURETEWCOSVERExFgjklRERMRYI5JURETEWCOSVERExFgjklRERMRYI5JURETEWCOSVERExFgjklRERMRYI5JURETEGMPs/wD+dL6UFJyO6gAAAABJRU5ErkJggg==;" vertex="1" parent="8wE8BXooY0IBWLYI6pEC-18">
          <mxGeometry x="17.27" y="74.74" width="73.27" height="55.26" as="geometry" />
        </mxCell>
        <mxCell id="8wE8BXooY0IBWLYI6pEC-29" value="&lt;font face=&quot;Comic Sans MS&quot;&gt;&lt;b&gt;&lt;i&gt;Multi-cloud providers&lt;/i&gt;&lt;/b&gt;&lt;/font&gt;" style="text;strokeColor=none;align=center;fillColor=none;html=1;verticalAlign=middle;whiteSpace=wrap;rounded=0;" vertex="1" parent="8wE8BXooY0IBWLYI6pEC-18">
          <mxGeometry x="70" width="90" height="30" as="geometry" />
        </mxCell>
        <mxCell id="8wE8BXooY0IBWLYI6pEC-30" value="" style="shape=image;verticalLabelPosition=bottom;labelBackgroundColor=default;verticalAlign=top;aspect=fixed;imageAspect=0;image=https://www.centerprise.co.uk/mt_upload/cloud.png;" vertex="1" parent="8wE8BXooY0IBWLYI6pEC-18">
          <mxGeometry x="90" y="32.65" width="100" height="46.18" as="geometry" />
        </mxCell>
        <mxCell id="8wE8BXooY0IBWLYI6pEC-34" value="" style="shape=image;verticalLabelPosition=bottom;labelBackgroundColor=default;verticalAlign=top;aspect=fixed;imageAspect=0;image=https://allvectorlogo.com/img/2017/10/alibaba-cloud-logo.png;" vertex="1" parent="8wE8BXooY0IBWLYI6pEC-18">
          <mxGeometry x="120" y="100" width="73.6" height="40" as="geometry" />
        </mxCell>
        <mxCell id="8wE8BXooY0IBWLYI6pEC-35" value="" style="whiteSpace=wrap;html=1;aspect=fixed;fillColor=#FF5745;" vertex="1" parent="1">
          <mxGeometry x="380" y="180" width="80" height="80" as="geometry" />
        </mxCell>
        <mxCell id="8wE8BXooY0IBWLYI6pEC-36" value="" style="whiteSpace=wrap;html=1;aspect=fixed;fillColor=#85F3FF;" vertex="1" parent="1">
          <mxGeometry x="390" y="165" width="80" height="80" as="geometry" />
        </mxCell>
        <mxCell id="8wE8BXooY0IBWLYI6pEC-37" value="Multi- accounts&lt;div&gt;with&lt;/div&gt;&lt;div&gt;Multi-Resources&lt;/div&gt;" style="whiteSpace=wrap;html=1;aspect=fixed;fillColor=#51FF1C;" vertex="1" parent="1">
          <mxGeometry x="400" y="150" width="80" height="80" as="geometry" />
        </mxCell>
      </root>
    </mxGraphModel>
  </diagram>
</mxfile>
